<svg height="512" viewBox="0 0 512 512" width="512" xmlns="http://www.w3.org/2000/svg"><path d="m240 32c-132.548 0-240 107.452-240 240s107.452 240 240 240c132.549 0 240-107.451 240-240s-107.451-240-240-240zm0 432c-106.039 0-192-85.961-192-192s85.961-192 192-192c106.037 0 192 85.961 192 192s-85.963 192-192 192z"/><path d="m304 352h-112v-64h48c8.836 0 16-7.163 16-16s-7.164-16-16-16h-48v-16c0-26.467 21.533-48 48-48 17.085 0 33.021 9.202 41.59 24.015 4.425 7.649 14.213 10.263 21.861 5.838 7.648-4.424 10.263-14.212 5.838-21.861-14.269-24.668-40.819-39.992-69.289-39.992-44.112 0-80 35.888-80 80v16h-16c-8.836 0-16 7.163-16 16s7.164 16 16 16h16v96h144c8.837 0 16-7.163 16-16s-7.163-16-16-16z"/></svg>