<svg enable-background="new -0.728 -0.285 250 282" height="282" viewBox="-.728 -.285 250 282" width="250" xmlns="http://www.w3.org/2000/svg"><g fill="#dde9de"><path d="m64.758 268.339c-2.097-.024-3.863 1.312-3.865 2.923-.002 1.635 1.695 2.933 3.833 2.933 2.123-.001 3.846-1.323 3.832-2.94-.014-1.578-1.726-2.892-3.8-2.916z"/><path d="m38.841 268.338c-2.096.002-3.845 1.352-3.83 2.956.015 1.589 1.711 2.886 3.793 2.9 2.131.014 3.858-1.282 3.872-2.907.014-1.611-1.728-2.95-3.835-2.949z"/><path d="m90.626 268.339c-2.101-.015-3.863 1.317-3.872 2.927-.009 1.617 1.719 2.934 3.845 2.929 2.091-.005 3.786-1.274 3.838-2.875.051-1.577-1.726-2.966-3.811-2.981z"/><path d="m161.754 258.474c-2.134-.005-3.85 1.299-3.846 2.923.004 1.605 1.672 2.882 3.773 2.887 2.188.006 3.868-1.23 3.893-2.865.024-1.621-1.688-2.94-3.82-2.945z"/><path d="m194.133 268.338c-2.111-.027-3.857 1.289-3.863 2.914-.007 1.653 1.659 2.943 3.802 2.942 2.149-.002 3.827-1.289 3.822-2.933-.005-1.597-1.675-2.895-3.761-2.923z"/><path d="m181.131 268.338c-2.104.013-3.773 1.301-3.78 2.916-.006 1.668 1.653 2.945 3.817 2.94 2.095-.006 3.789-1.296 3.81-2.899.021-1.609-1.747-2.969-3.847-2.957z"/><path d="m219.967 268.338c-2.104-.007-3.836 1.322-3.835 2.943 0 1.629 1.716 2.927 3.853 2.913 2.107-.015 3.768-1.283 3.782-2.894.015-1.63-1.684-2.954-3.8-2.962z"/><path d="m110.011 258.475c-2.13-.006-3.9 1.341-3.861 2.939.039 1.622 1.7 2.866 3.83 2.869 2.172.004 3.88-1.287 3.858-2.914-.023-1.598-1.73-2.89-3.827-2.894z"/><path d="m142.333 268.339c-2.076.001-3.803 1.311-3.828 2.901-.025 1.602 1.646 2.923 3.736 2.954 2.171.031 3.871-1.229 3.891-2.885.019-1.651-1.671-2.972-3.799-2.97z"/><path d="m135.844 258.475c-2.092.008-3.779 1.281-3.817 2.881-.038 1.613 1.669 2.924 3.817 2.928 2.184.006 3.846-1.244 3.848-2.893.002-1.633-1.703-2.925-3.848-2.916z"/><path d="m187.569 258.475c-2.102.015-3.766 1.293-3.777 2.899-.013 1.648 1.648 2.911 3.824 2.909 2.156-.001 3.866-1.297 3.84-2.91-.027-1.623-1.758-2.914-3.887-2.898z"/><path d="m213.453 258.475c-2.093.012-3.804 1.317-3.812 2.908-.008 1.627 1.701 2.906 3.879 2.9 2.117-.005 3.807-1.282 3.812-2.882.006-1.616-1.747-2.939-3.879-2.926z"/><path d="m103.541 268.338c-2.105-.009-3.836 1.322-3.828 2.943.009 1.614 1.651 2.888 3.758 2.913 2.138.024 3.863-1.263 3.877-2.894.014-1.624-1.694-2.952-3.807-2.962z"/><path d="m25.876 268.338c-2.102.023-3.762 1.302-3.776 2.909-.014 1.646 1.657 2.944 3.796 2.947 2.156.003 3.81-1.268 3.81-2.927 0-1.642-1.713-2.952-3.83-2.929z"/><path d="m168.235 268.338c-2.119-.015-3.85 1.312-3.848 2.949 0 1.601 1.691 2.896 3.79 2.907 2.154.01 3.843-1.28 3.837-2.935-.006-1.611-1.681-2.905-3.779-2.921z"/><path d="m155.321 268.339c-2.104-.033-3.841 1.282-3.852 2.918-.013 1.644 1.662 2.937 3.807 2.938 2.127.001 3.826-1.307 3.819-2.938-.006-1.593-1.678-2.884-3.774-2.918z"/><path d="m129.344 268.339c-2.094.032-3.754 1.325-3.756 2.927-.002 1.643 1.677 2.928 3.825 2.929 2.134 0 3.813-1.303 3.8-2.947-.013-1.629-1.761-2.941-3.869-2.909z"/><path d="m77.692 268.338c-2.115-.021-3.827 1.287-3.827 2.926-.002 1.663 1.649 2.936 3.799 2.931 2.142-.007 3.817-1.303 3.805-2.944-.011-1.599-1.689-2.892-3.777-2.913z"/><path d="m51.743 268.338c-2.114.029-3.759 1.311-3.761 2.932-.002 1.653 1.687 2.938 3.839 2.925 2.111-.015 3.764-1.294 3.767-2.915.003-1.649-1.724-2.969-3.845-2.942z"/><path d="m84.111 258.474c-2.129.003-3.765 1.257-3.775 2.895-.011 1.688 1.594 2.919 3.804 2.915 2.118-.002 3.809-1.272 3.823-2.87.014-1.621-1.718-2.943-3.852-2.94z"/><path d="m200.592 258.475c-2.168-.014-3.83 1.254-3.83 2.92 0 1.658 1.591 2.884 3.749 2.889 2.196.006 3.862-1.246 3.856-2.898-.005-1.617-1.667-2.899-3.775-2.911z"/><path d="m226.427 258.475c-2.148-.002-3.841 1.305-3.819 2.948.018 1.628 1.66 2.86 3.812 2.86 2.186.002 3.836-1.262 3.82-2.924-.013-1.605-1.703-2.882-3.813-2.884z"/><path d="m206.995 268.338c-2.119.025-3.836 1.365-3.809 2.973.026 1.6 1.719 2.878 3.814 2.884 2.131.005 3.863-1.307 3.859-2.923-.003-1.598-1.794-2.958-3.864-2.934z"/><path d="m174.664 258.475c-2.165.006-3.798 1.283-3.784 2.961.015 1.639 1.637 2.852 3.811 2.848 2.15-.002 3.785-1.24 3.795-2.871.009-1.657-1.666-2.945-3.822-2.938z"/><path d="m148.807 258.475c-2.119-.003-3.792 1.26-3.81 2.877-.019 1.677 1.608 2.931 3.803 2.932 2.168.002 3.792-1.218 3.803-2.855.01-1.675-1.63-2.952-3.796-2.954z"/><path d="m58.232 258.474c-2.165.006-3.802 1.29-3.779 2.966.022 1.643 1.64 2.848 3.817 2.844 2.124-.004 3.798-1.266 3.811-2.874.012-1.634-1.703-2.941-3.849-2.936z"/><path d="m122.923 258.475c-2.113.002-3.788 1.271-3.807 2.885-.021 1.629 1.617 2.912 3.729 2.924 2.24.014 3.865-1.187 3.874-2.863.012-1.673-1.633-2.948-3.796-2.946z"/><path d="m32.382 258.474c-2.154-.004-3.83 1.292-3.81 2.948.019 1.641 1.642 2.86 3.806 2.861 2.144.002 3.804-1.24 3.821-2.857.016-1.648-1.663-2.947-3.817-2.952z"/><path d="m97.055 258.475c-2.108.002-3.801 1.28-3.815 2.884-.017 1.661 1.637 2.926 3.82 2.925 2.154 0 3.793-1.229 3.814-2.858.021-1.644-1.675-2.953-3.819-2.951z"/><path d="m116.47 268.338c-2.05-.012-3.817 1.317-3.847 2.894-.031 1.622 1.688 2.954 3.824 2.963 2.129.008 3.789-1.247 3.802-2.876.014-1.661-1.644-2.967-3.779-2.981z"/><path d="m71.176 258.475c-2.116.004-3.791 1.275-3.804 2.889-.014 1.666 1.631 2.922 3.823 2.92 2.155-.001 3.785-1.229 3.803-2.865.017-1.651-1.667-2.948-3.822-2.944z"/><path d="m45.348 258.474c-2.152-.01-3.863 1.287-3.858 2.924.004 1.617 1.664 2.881 3.789 2.886 2.212.006 3.843-1.227 3.837-2.9-.007-1.634-1.648-2.902-3.768-2.91z"/><path d="m19.699 258.48c-2.333 0-4.086 1.241-4.091 2.9-.007 1.609 1.658 2.893 3.766 2.902 2.227.012 3.85-1.196 3.861-2.872.01-1.584-1.612-2.928-3.536-2.93z"/><path d="m232.858 268.339c-2.059.014-3.798 1.343-3.813 2.913-.016 1.466 1.679 2.924 3.396 2.923 2.533-.001 4.274-1.187 4.268-2.901-.008-1.631-1.738-2.95-3.851-2.935z"/><path d="m14.679 268.668c-1.393-.523-2.768-.434-4.001.275-1.233.708-1.754 1.689-1.425 2.854.076.271.441.607.775.702 1.267.358 2.573.638 3.87.932 1.391.314 1.853.174 2.466-.826.25-.407.354-.866.454-1.123-.085-1.377-.736-2.285-2.139-2.814z"/><path d="m242.458 261.166c-1.832-.451-3.654-.925-5.469-1.416-.59-.159-.865-.004-1.107.396-1.182 1.939.65 4.137 3.467 4.138 1.846.002 3.396-.935 3.74-2.23.12-.454-.003-.733-.631-.888z"/><path d="m123.153 278.248c-2.25-.063-4.005 1.184-3.986 2.936h7.486c.158-1.538-1.467-2.877-3.5-2.936z"/><path d="m135.583 278.252c-1.985.077-3.543 1.364-3.455 2.883h7.519c-.121-1.821-1.803-2.973-4.064-2.883z"/><path d="m109.727 278.25c-1.938.074-3.491 1.301-3.44 2.811h7.503c-.148-1.746-1.816-2.896-4.063-2.811z"/><path d="m3.152 262.673c.965 1.487 3.181 2.021 5.028 1.354 1.76-.637 2.629-2.397 1.792-3.586-2.259.739-4.534 1.484-6.82 2.232z"/><path d="m148.251 278.265c-1.808.169-3.296 1.451-3.146 2.655h7.464c-.291-1.791-2.124-2.861-4.318-2.655z"/><path d="m97.361 278.252c-2.082-.09-3.725.905-4.041 2.563h7.46c-.04-1.319-1.564-2.483-3.419-2.563z"/><path d="m129.141 254.434c1.945.124 3.592-.894 4.041-2.582-2.529 0-5.012 0-7.498 0 .11 1.378 1.59 2.46 3.457 2.582z"/><path d="m116.46 254.444c1.943.006 3.649-1.168 3.694-2.577-2.46 0-4.92 0-7.381 0 .084 1.428 1.736 2.571 3.687 2.577z"/><path d="m142.303 254.445c1.855.016 3.469-1.019 3.732-2.475-2.463 0-4.909 0-7.412 0 .278 1.435 1.821 2.46 3.68 2.475z"/><path d="m103.745 254.434c1.855-.105 3.326-1.135 3.44-2.371-2.422 0-4.847 0-7.36 0 .469 1.536 2.099 2.472 3.92 2.371z"/><path d="m161.235 278.264c-1.681.136-3.124 1.242-3.143 2.452 2.427-.09 4.848-.181 7.281-.271-.423-1.466-2.124-2.345-4.138-2.181z"/><path d="m244.084 268.672c-1.545.6-2.297 1.811-1.911 3.371 2.226-.871 4.382-1.714 6.601-2.581-1.35-1.148-3.125-1.398-4.69-.79z"/><path d="m154.989 254.43c1.695.123 3.255-.677 3.914-2.088-2.453-.075-4.865-.148-7.29-.223.305 1.294 1.628 2.184 3.376 2.311z"/><path d="m83.927 278.248c-1.637.042-3.126.948-3.284 2.026 2.122.093 4.242.187 6.363.278.237.01.476.001.779.001-.334-1.438-1.91-2.354-3.858-2.305z"/><path d="m90.861 254.43c1.693-.112 3.055-.993 3.311-2.189-2.349.079-4.683.158-7.119.24.648 1.316 2.177 2.057 3.808 1.949z"/><path d="m174.164 278.263c-1.419.121-2.682.928-2.965 1.94 2.257-.113 4.491-.226 6.825-.342-.742-1.173-2.182-1.741-3.86-1.598z"/><path d="m164.758 252.572c.377 1.039 1.648 1.766 3.235 1.862 1.466.089 2.897-.547 3.511-1.594-1.965-.09-3.906-.181-5.85-.267-.296-.012-.593-.001-.896-.001z"/><path d="m71.482 278.257c-1.454-.083-2.604.34-3.543 1.37 2.297.125 4.447.242 6.767.367-.767-1.112-1.799-1.656-3.224-1.737z"/><path d="m77.881 254.421c1.436-.077 2.519-.611 3.25-1.701-2.28.106-4.423.207-6.761.317.977 1.006 2.095 1.46 3.511 1.384z"/><path d="m183.786 253.499c-1.879-.11-3.695-.216-5.633-.329.9 1.392 4.221 1.754 5.633.329z"/><path d="m184.633 279.477c1.848-.125 3.664-.248 5.641-.382-1.908-1.265-4.606-1.033-5.641.382z"/><path d="m67.328 253.437c-1.611.101-3.187.198-4.942.308 1.678 1.021 4.205.819 4.942-.308z"/><path d="m56.128 278.819c1.656.123 3.181.236 4.769.354-1.103-1.062-3.225-1.239-4.769-.354z"/><path d="m0 268.48c1.249.712 2.333 1.33 3.418 1.948-.367-1.33-1.702-2.067-3.418-1.948z"/></g><path d="m26.332 106.105h184.472v143.968h-184.472z" fill="#eac28c" transform="matrix(-.9999 .0168 -.0168 -.9999 240.1137 354.1574)"/><path d="m9.976 67.192 213.721-3.594-106.703-63.598z" fill="#af9269"/><path d="m192.907 57.006-13.128-7.827-1.193-.716-13.128-7.821-1.195-.709-13.128-7.828-1.193-.715-13.129-7.828-1.193-.709-13.129-7.828-1.195-.709-4.331-2.58-87.811 55.135 175.364-2.949-10.416-6.207z" fill="#eac28c"/><path d="m10.02 65.394h213.752v7.125h-213.752z" fill="#f79871" transform="matrix(-.9999 .0168 -.0168 -.9999 234.935 135.9382)"/><path d="m18.877 72.518h196.567v24.308h-196.567z" fill="#ffe0b6" transform="matrix(-.9999 .0168 -.0168 -.9999 235.7279 167.3607)"/><path d="m19.162 96.823h196.567v9.64h-196.567z" fill="#eac28c" transform="matrix(-.9999 .0168 -.0168 -.9999 236.5843 201.2967)"/><circle cx="23.391" cy="79.751" fill="#283031" r="2.306"/><circle cx="33.868" cy="79.575" fill="#283031" r="2.305"/><circle cx="45.601" cy="79.378" fill="#283031" r="2.305"/><circle cx="56.078" cy="79.201" fill="#283031" r="2.305"/><circle cx="67.811" cy="79.004" fill="#283031" r="2.305"/><circle cx="78.288" cy="78.828" fill="#283031" r="2.305"/><circle cx="90.021" cy="78.631" fill="#283031" r="2.305"/><circle cx="100.498" cy="78.454" fill="#283031" r="2.305"/><circle cx="112.232" cy="78.257" fill="#283031" r="2.305"/><circle cx="122.709" cy="78.081" fill="#283031" r="2.305"/><circle cx="134.442" cy="77.884" fill="#283031" r="2.305"/><circle cx="144.919" cy="77.707" fill="#283031" r="2.305"/><circle cx="156.651" cy="77.51" fill="#283031" r="2.305"/><circle cx="167.129" cy="77.334" fill="#283031" r="2.305"/><circle cx="178.862" cy="77.136" fill="#283031" r="2.305"/><circle cx="189.338" cy="76.96" fill="#283031" r="2.305"/><circle cx="201.072" cy="76.763" fill="#283031" r="2.305"/><circle cx="211.549" cy="76.587" fill="#283031" r="2.305"/><path d="m26.163 116.938h25.461v143.277h-25.461z" fill="#ffe0b6" transform="matrix(-.9999 .0168 -.0168 -.9999 80.9568 376.4707)"/><path d="m33.225 129.296c-.48.009-.862.404-.855.884l2.042 121.318c.008.479.404.862.883.854.48-.008.863-.403.855-.883l-2.042-121.319c-.008-.479-.403-.862-.883-.854z" fill="#453d3a"/><path d="m42.932 129.133c-.48.008-.862.404-.854.884l2.041 121.317c.008.48.403.862.884.854.479-.008.862-.403.854-.884l-2.041-121.317c-.008-.479-.404-.862-.884-.854z" fill="#453d3a"/><path d="m26.465 107.456h22.348v9.491h-22.348z" fill="#f79871" transform="matrix(-.9999 .0168 -.0168 -.9999 77.1606 223.7547)"/><path d="m24.788 251.406h30.177v9.492h-30.177z" fill="#f79871" transform="matrix(-.9999 .0168 -.0168 -.9999 84.0491 511.5978)"/><circle cx="52.929" cy="112.111" fill="#ffe0b6" r="6.912"/><path d="m51.849 105.197c-2.586.428-4.976 2.104-5.891 4.613-.833 2.284-.385 5.327 1.692 6.831 1.966 1.424 5.933.851 7.421-1.09 3.266-4.26-4.227-8.462-5.755-3.148-.206.715.182 1.063.869 1.006 1.197-.1 2.122-2.541 3.41-1.062.549.631.247 1.205-.133 1.807-.593.938-.993 1.071-2.051 1.25-2.053.347-3.898-1.042-3.995-3.122-.14-2.98 2.778-5.453 5.677-5.331 2.882.121 5.83 3.468 5.327 6.334-.526 2.986-3.257 5.853-6.403 5.71-1.198-.054-1.163 1.809.031 1.864 5.853.266 10.704-7.434 6.909-12.283-1.812-2.316-4.095-3.877-7.108-3.379z" fill="#af9269"/><circle cx="23.7" cy="112.603" fill="#ffe0b6" r="6.912"/><path d="m21.377 106.059c-2.725 1.102-4.855 2.866-5.208 5.9-.304 2.604.649 5.363 2.807 6.935 1.965 1.431 5.014 1.84 7.032.26 1.913-1.497 2.457-5.468 1.001-7.435-3.194-4.314-9.3 1.727-4.615 4.662.49.307 1.121.069 1.31-.478.252-.731-.386-1.337-.734-1.905-.374-.608-.296-1.35.386-1.726.649-.356 1.526-.025 1.866.607.738.829.756 1.251.636 2.316-.234 2.068-2.077 3.459-4.104 2.979-2.902-.688-4.474-4.175-3.557-6.93.913-2.736 4.942-4.646 7.559-3.369 2.726 1.328 4.727 4.746 3.721 7.729-.383 1.138 1.418 1.618 1.801.484 1.869-5.549-4.192-12.337-9.901-10.029z" fill="#af9269"/><path d="m78.536 116.056h25.461v143.277h-25.461z" fill="#ffe0b6" transform="matrix(-.9999 .0168 -.0168 -.9999 185.6726 373.8299)"/><path d="m85.598 128.416c-.48.008-.863.404-.854.883l2.04 121.318c.009.479.404.861.884.854s.861-.403.854-.883l-2.04-121.318c-.009-.48-.404-.863-.884-.854z" fill="#453d3a"/><path d="m95.305 128.252c-.479.008-.862.404-.854.883l2.041 121.317c.007.48.403.863.883.854.48-.008.863-.403.855-.884l-2.042-121.317c-.009-.478-.403-.861-.883-.853z" fill="#453d3a"/><path d="m78.839 106.575h22.346v9.492h-22.346z" fill="#f79871" transform="matrix(-.9999 .0168 -.0168 -.9999 181.8846 221.1114)"/><path d="m77.161 250.526h30.176v9.491h-30.176z" fill="#f79871" transform="matrix(-.9999 .0168 -.0168 -.9999 188.7818 508.9534)"/><circle cx="105.302" cy="111.23" fill="#ffe0b6" r="6.912"/><path d="m104.221 104.316c-2.586.428-4.976 2.104-5.89 4.613-.833 2.284-.385 5.327 1.691 6.832 1.967 1.424 5.934.851 7.422-1.091 3.266-4.26-4.228-8.462-5.755-3.149-.205.715.182 1.063.868 1.006 1.197-.1 2.122-2.541 3.411-1.062.549.631.247 1.205-.134 1.806-.593.938-.993 1.072-2.051 1.25-2.051.347-3.897-1.042-3.996-3.122-.139-2.98 2.779-5.453 5.679-5.331 2.881.121 5.829 3.467 5.325 6.334-.525 2.986-3.256 5.854-6.402 5.711-1.199-.055-1.164 1.809.031 1.863 5.852.266 10.704-7.434 6.909-12.283-1.811-2.314-4.095-3.875-7.108-3.377z" fill="#af9269"/><circle cx="76.073" cy="111.722" fill="#ffe0b6" r="6.912"/><path d="m73.75 105.178c-2.725 1.103-4.856 2.866-5.209 5.9-.303 2.604.649 5.363 2.808 6.935 1.965 1.431 5.013 1.84 7.032.26 1.913-1.497 2.456-5.468 1.001-7.435-3.192-4.314-9.301 1.727-4.615 4.662.49.307 1.12.069 1.31-.478.252-.731-.385-1.337-.734-1.904-.374-.608-.297-1.35.386-1.725.648-.357 1.526-.025 1.865.607.737.828.755 1.25.635 2.315-.232 2.068-2.077 3.459-4.104 2.979-2.902-.688-4.474-4.175-3.556-6.929.912-2.737 4.941-4.646 7.558-3.37 2.726 1.329 4.727 4.746 3.721 7.73-.383 1.138 1.418 1.618 1.8.484 1.872-5.551-4.189-12.339-9.898-10.031z" fill="#af9269"/><path d="m130.908 115.176h25.461v143.277h-25.461z" fill="#ffe0b6" transform="matrix(-.9999 .0168 -.0168 -.9999 290.4026 371.1838)"/><path d="m137.97 127.535c-.479.008-.862.404-.854.883l2.04 121.317c.008.48.404.862.884.854s.863-.403.854-.884l-2.04-121.317c-.009-.479-.404-.862-.884-.853z" fill="#453d3a"/><path d="m147.677 127.371c-.48.008-.862.404-.854.884l2.04 121.317c.009.48.404.863.884.854.479-.008.863-.403.855-.884l-2.041-121.317c-.008-.479-.404-.862-.884-.854z" fill="#453d3a"/><path d="m131.21 105.695h22.349v9.491h-22.349z" fill="#f79871" transform="matrix(-.9999 .0168 -.0168 -.9999 286.6064 218.4694)"/><path d="m129.534 249.645h30.176v9.491h-30.176z" fill="#f79871" transform="matrix(-.9999 .0168 -.0168 -.9999 293.5046 506.3105)"/><circle cx="157.673" cy="110.349" fill="#ffe0b6" r="6.912"/><path d="m156.592 103.436c-2.586.428-4.975 2.104-5.889 4.613-.834 2.284-.385 5.327 1.691 6.831 1.967 1.425 5.934.851 7.422-1.09 3.266-4.26-4.227-8.462-5.755-3.149-.206.716.182 1.063.868 1.007 1.197-.1 2.121-2.541 3.41-1.062.549.631.246 1.205-.133 1.807-.594.938-.994 1.071-2.051 1.25-2.053.347-3.898-1.042-3.996-3.122-.139-2.98 2.779-5.453 5.678-5.331 2.883.121 5.83 3.468 5.326 6.334-.525 2.986-3.258 5.854-6.402 5.711-1.199-.055-1.163 1.809.031 1.863 5.852.266 10.703-7.434 6.908-12.283-1.81-2.317-4.092-3.877-7.108-3.379z" fill="#af9269"/><circle cx="128.446" cy="110.841" fill="#ffe0b6" r="6.912"/><path d="m126.122 104.297c-2.723 1.102-4.854 2.865-5.208 5.9-.303 2.604.65 5.363 2.809 6.935 1.966 1.431 5.013 1.84 7.032.26 1.912-1.497 2.456-5.468 1-7.435-3.192-4.314-9.299 1.727-4.615 4.662.491.307 1.121.069 1.311-.478.252-.731-.385-1.337-.734-1.905-.375-.607-.295-1.35.387-1.725.648-.357 1.526-.025 1.865.607.737.829.756 1.25.636 2.316-.233 2.068-2.077 3.459-4.104 2.979-2.902-.688-4.474-4.176-3.556-6.929.912-2.737 4.943-4.646 7.559-3.37 2.724 1.328 4.727 4.746 3.721 7.729-.384 1.137 1.417 1.618 1.8.484 1.868-5.55-4.192-12.338-9.903-10.03z" fill="#af9269"/><path d="m183.28 114.295h25.462v143.277h-25.462z" fill="#ffe0b6" transform="matrix(-.9999 .0168 -.0168 -.9999 395.1253 368.5405)"/><path d="m190.342 126.654c-.479.008-.862.403-.854.883l2.041 121.317c.008.48.403.863.884.854.48-.008.861-.403.854-.884l-2.042-121.317c-.007-.479-.402-.861-.883-.853z" fill="#453d3a"/><path d="m200.049 126.49c-.48.008-.861.404-.854.884l2.04 121.317c.009.48.404.862.885.854.479-.008.861-.403.854-.884l-2.039-121.317c-.011-.479-.406-.862-.886-.854z" fill="#453d3a"/><path d="m183.585 104.814h22.346v9.491h-22.346z" fill="#f79871" transform="matrix(-.9999 .0168 -.0168 -.9999 391.3314 215.8263)"/><path d="m181.906 248.763h30.177v9.492h-30.177z" fill="#f79871" transform="matrix(-.9999 .0168 -.0168 -.9999 398.2193 503.6742)"/><circle cx="210.046" cy="109.469" fill="#ffe0b6" r="6.912"/><path d="m208.966 102.555c-2.587.427-4.976 2.104-5.892 4.613-.832 2.284-.385 5.326 1.693 6.831 1.967 1.424 5.934.851 7.422-1.09 3.266-4.26-4.228-8.462-5.756-3.149-.205.716.182 1.063.869 1.007 1.196-.101 2.121-2.541 3.409-1.062.55.631.248 1.205-.133 1.807-.593.938-.993 1.071-2.051 1.25-2.052.347-3.897-1.042-3.995-3.123-.141-2.98 2.777-5.453 5.678-5.331 2.881.121 5.83 3.467 5.326 6.334-.525 2.986-3.257 5.854-6.402 5.71-1.199-.054-1.164 1.809.031 1.864 5.852.266 10.703-7.434 6.908-12.284-1.81-2.315-4.093-3.875-7.107-3.377z" fill="#af9269"/><circle cx="180.818" cy="109.96" fill="#ffe0b6" r="6.912"/><path d="m178.496 103.417c-2.726 1.102-4.856 2.866-5.21 5.899-.302 2.604.65 5.363 2.809 6.935 1.965 1.431 5.014 1.84 7.033.259 1.912-1.497 2.456-5.468 1.001-7.434-3.193-4.315-9.301 1.727-4.617 4.662.491.307 1.122.07 1.312-.478.252-.731-.385-1.337-.734-1.904-.373-.608-.297-1.35.385-1.725.648-.357 1.528-.025 1.867.606.737.829.755 1.251.635 2.316-.234 2.068-2.076 3.459-4.104 2.979-2.902-.688-4.475-4.175-3.557-6.93.912-2.736 4.941-4.646 7.559-3.37 2.726 1.329 4.727 4.746 3.721 7.73-.383 1.138 1.418 1.617 1.8.484 1.87-5.55-4.192-12.338-9.9-10.029z" fill="#af9269"/><path d="m43.737 66.626 2.301-.039 76.453-51.562-1.195-.709z" fill="#283031"/><path d="m71.402 66.161 2.306-.039 63.105-42.56-1.193-.709z" fill="#283031"/><path d="m99.078 65.695 2.3-.038 49.757-33.552-1.193-.715z" fill="#283031"/><path d="m126.749 65.23 2.306-.039 36.403-24.549-1.195-.709z" fill="#283031"/><path d="m154.42 64.765 2.305-.039 23.054-15.547-1.193-.716z" fill="#283031"/><path d="m182.09 64.299 2.307-.039 9.705-6.545-1.195-.709z" fill="#283031"/></svg>