<svg height="32" viewBox="0 0 32 32" width="32" xmlns="http://www.w3.org/2000/svg"><path d="m9 18h-2v14h2c.55 0 1-.45 1-1v-12c0-.55-.45-1-1-1z"/><path d="m23 18c-.55 0-1 .45-1 1v12c0 .55.45 1 1 1h2v-14z"/><path d="m32 16c0-8.837-7.163-16-16-16s-16 7.163-16 16c0 1.919.338 3.759.958 5.464-.609 1.038-.958 2.246-.958 3.536 0 3.526 2.608 6.443 6 6.929v-13.857c-.997.143-1.927.495-2.742 1.012-.168-.835-.258-1.699-.258-2.584 0-7.18 5.82-13 13-13s13 5.82 13 13c0 .885-.088 1.749-.257 2.584-.816-.517-1.745-.87-2.743-1.013v13.858c3.392-.485 6-3.402 6-6.929 0-1.29-.349-2.498-.958-3.536.62-1.705.958-3.545.958-5.465z"/></svg>