<svg enable-background="new 0 0 764.951 718.25" height="718.25" viewBox="0 0 764.951 718.25" width="764.951" xmlns="http://www.w3.org/2000/svg"><g fill="#77a295"><path d="m713.39 650.479c7.848 10.062 15.708 20.119 23.568 30.17 6.961 8.902 13.929 17.798 20.893 26.699.187.237.343.498.515.751-.076.081-.15.164-.226.245-.236-.211-.51-.393-.703-.637-4.265-5.445-8.521-10.897-12.779-16.348-7.776-9.953-15.554-19.908-23.331-29.863-5.497-7.035-10.996-14.072-16.491-21.109-.177-.229-.327-.478-.489-.715.258.03.516.062.773.094 2.755 3.571 5.494 7.154 8.27 10.713z"/><path d="m726.628 645.621c2.007 2.55 3.976 5.131 5.978 7.688 5.1 6.521 10.213 13.027 15.318 19.546 5.678 7.256 11.351 14.52 17.027 21.779-.031.258-.062.517-.095.773-.426-.531-.854-1.055-1.273-1.591-7.837-10.026-15.67-20.054-23.504-30.082-4.796-6.139-9.596-12.274-14.392-18.415-.125-.162-.229-.34-.343-.51.06-.057.119-.111.175-.166.375.326.81.597 1.109.978z"/><path d="m603.208 640.085c1.464 1.822 2.88 3.683 4.324 5.522 1.446 1.838 2.899 3.668 4.344 5.506 1.425 1.814 2.846 3.631 4.258 5.451 1.436 1.846 2.855 3.705 4.295 5.547 1.438 1.84 2.897 3.667 4.341 5.504 1.444 1.84 2.884 3.681 4.318 5.528 1.435 1.846 2.857 3.701 4.292 5.546 1.437 1.847 2.874 3.689 4.317 5.527 1.445 1.841 2.9 3.669 4.345 5.506 1.445 1.841 2.884 3.684 4.318 5.528 1.415 1.819 2.817 3.649 4.232 5.47 1.435 1.848 2.873 3.689 4.318 5.528 1.442 1.837 2.898 3.669 4.343 5.507 1.433 1.822 2.855 3.652 4.286 5.479-.091.093-.177.186-.265.278-.279-.255-.602-.476-.831-.769-7.474-9.53-14.941-19.067-22.403-28.606-5.723-7.313-11.436-14.636-17.152-21.954-7.138-9.134-14.27-18.272-21.417-27.4-.961-1.224-2.006-2.384-3.011-3.573.16-.145.32-.29.48-.435 1.571 1.642 2.847 3.541 4.268 5.31z"/><path d="m573.391 634.548c10.704 13.686 21.399 27.379 32.097 41.069 9.777 12.514 19.553 25.029 29.338 37.538.196.255.475.446.713.665-.079.062-.158.123-.237.184-.064-.002-.131.006-.189-.013-.092-.031-.176-.079-.265-.122-.086-.045-.174-.088-.254-.141-.054-.036-.1-.084-.144-.131-.045-.047-.085-.1-.124-.15-20.669-26.464-41.338-52.928-62.005-79.392-.017-.022-.028-.062-.023-.088.007-.028.035-.055.181-.264.319.293.665.531.912.845z"/><path d="m638.498 652.562c2.18 2.788 4.361 5.577 6.538 8.364 2.201 2.816 4.398 5.632 6.597 8.447 2.198 2.814 4.398 5.629 6.597 8.444 2.2 2.815 4.398 5.63 6.597 8.443 2.18 2.79 4.356 5.578 6.537 8.367 2.2 2.812 4.404 5.625 6.602 8.44 2.184 2.798 4.362 5.599 6.615 8.492-.301.045-.5.123-.537.075-19.599-25.217-39.188-50.442-58.779-75.667 2.353 2.575 4.465 5.391 6.636 8.15 2.206 2.811 4.399 5.63 6.597 8.445z"/><path d="m603.065 661.664c7.268 9.324 14.576 18.611 21.857 27.922 7.235 9.255 14.462 18.518 21.691 27.777-.357.071-.635.047-.751-.104-21.579-27.678-43.146-55.367-64.716-83.053.07-.075.141-.148.212-.224 7.333 9.153 14.501 18.434 21.707 27.682z"/><path d="m670.147 638.631c6.767 8.644 13.523 17.293 20.281 25.943 3.32 4.249 6.639 8.495 9.957 12.744 7.998 10.236 15.99 20.475 23.997 30.704.871 1.112 1.812 2.171 2.72 3.255-.123.109-.244.22-.366.33-.359-.32-.776-.597-1.07-.97-3.453-4.392-6.886-8.796-10.324-13.198-7.838-10.032-15.679-20.062-23.513-30.097-2.737-3.505-5.454-7.029-8.19-10.538-4.734-6.066-9.476-12.129-14.214-18.193-.154-.2-.287-.414-.43-.622.065-.07.132-.139.199-.211.32.284.694.523.953.853z"/><path d="m696.521 639.764c8.09 10.331 16.164 20.672 24.241 31.012 10.438 13.361 20.878 26.723 31.32 40.078.234.303.524.562.788.842-.096.113-.191.227-.286.34-.267-.211-.588-.378-.791-.637-11.188-14.301-22.365-28.61-33.542-42.918-7.458-9.545-14.918-19.093-22.378-28.641-.188-.243-.363-.499-.544-.751.072-.069.144-.141.215-.209.328.292.71.542.977.884z"/><path d="m643.133 636.802c18.516 23.745 37.021 47.503 55.523 71.259-.396-.102-.738-.312-.971-.608-6.306-8.05-12.598-16.109-18.894-24.169-10.536-13.482-21.069-26.965-31.601-40.447-1.535-1.967-3.069-3.933-4.735-6.066.38.012.618-.048.678.031z"/><path d="m677.65 713.588c-.128.112-.257.224-.386.333-6.887-8.552-13.501-17.321-20.312-25.934-6.872-8.685-13.649-17.44-20.464-26.169-6.774-8.677-13.54-17.359-20.312-26.039.144-.111.285-.223.427-.333 20.371 26.032 40.718 52.081 61.047 78.142z"/><path d="m555.481 633.496c17.669 22.701 35.325 45.408 52.983 68.117-.406-.27-.833-.574-1.144-.972-7.55-9.642-15.086-19.292-22.625-28.942-9.678-12.389-19.355-24.777-29.04-37.163-.236-.302-.533-.559-.8-.839.06-.081.122-.162.183-.243.153.011.382-.038.443.042z"/><path d="m603.239 650.977c4.378 5.604 8.755 11.207 13.134 16.811 4.358 5.577 8.713 11.154 13.074 16.732 4.378 5.604 8.755 11.207 13.132 16.811 4.367 5.59 8.733 11.18 13.221 16.92-.384-.021-.615.032-.68-.047-21.733-27.873-43.456-55.756-65.181-83.637.095-.086.186-.171.279-.256 4.34 5.555 8.681 11.109 13.021 16.666z"/><path d="m687.107 638.666c19.493 25.02 38.975 50.049 58.457 75.077-.071.077-.141.156-.211.237-9.865-12.441-19.567-25.014-29.368-37.507-9.85-12.55-19.632-25.153-29.573-37.901.406.049.631.01.695.094z"/><path d="m608.021 635.39c20.887 26.749 41.764 53.509 62.64 80.269-.106.094-.212.184-.318.276-1.42-1.671-2.729-3.445-4.09-5.171-1.408-1.783-2.803-3.58-4.199-5.37-1.421-1.816-2.838-3.634-4.259-5.449-1.399-1.792-2.798-3.583-4.197-5.373-1.4-1.792-2.799-3.583-4.198-5.374-1.398-1.792-2.798-3.582-4.197-5.372-1.399-1.793-2.799-3.583-4.197-5.373-1.42-1.816-2.841-3.633-4.26-5.452-1.397-1.79-2.798-3.58-4.195-5.371-1.4-1.792-2.799-3.582-4.199-5.375-1.399-1.79-2.799-3.58-4.197-5.37-1.399-1.792-2.798-3.583-4.197-5.373-1.419-1.817-2.839-3.634-4.258-5.45-1.4-1.791-2.789-3.591-4.202-5.372-1.396-1.757-2.815-3.492-4.223-5.237.07-.066.139-.131.208-.195.181.039.448.014.538.132z"/><path d="m652.008 637.241c18.251 23.39 36.487 46.786 54.726 70.183-.369-.018-.677-.147-.871-.376-.464-.541-.865-1.134-1.307-1.694-8.062-10.31-16.13-20.611-24.188-30.918-8.061-10.309-16.107-20.627-24.175-30.93-1.618-2.066-3.3-4.083-4.953-6.121.079-.091.156-.182.232-.271.182.039.446.016.536.127z"/><path d="m578.787 695.826c-.093.094-.184.19-.277.283-.296-.262-.644-.485-.884-.792-4.33-5.519-8.646-11.045-12.959-16.573-5.571-7.144-11.134-14.295-16.703-21.435-5.753-7.374-11.515-14.739-17.271-22.108-.215-.275-.415-.562-.779-1.061.429.101.688.079.776.192 16.04 20.492 32.068 40.994 48.097 61.494z"/><path d="m723.031 651.905c10.457 13.386 20.913 26.769 31.369 40.153 2.621 3.354 5.242 6.701 7.853 10.061.19.246.285.566.424.852-.052-.001-.104-.003-.155-.004-16.07-20.57-32.143-41.142-48.214-61.712.364.193.726.431.978.753 2.592 3.293 5.167 6.597 7.745 9.897z"/><path d="m678.812 638.88c2.273 2.879 4.526 5.773 6.785 8.664 7.457 9.544 14.91 19.09 22.37 28.632 3.24 4.143 6.499 8.271 9.74 12.415 5.442 6.955 10.864 13.925 16.317 20.873 1.036 1.321 2.169 2.567 3.258 3.849-.132.126-.261.252-.391.378-.269-.207-.589-.368-.793-.626-1.159-1.442-2.289-2.907-3.43-4.364-11.175-14.304-22.349-28.608-33.524-42.911-6.938-8.879-13.873-17.756-20.81-26.636-.217-.277-.417-.563-.627-.847.061-.064.121-.131.181-.197.312.254.682.462.924.77z"/><path d="m563.773 633.6c.031-.005.064-.005.098-.005.031.001.064.005.096.011s.062.016.092.027c.028.012.061.026.087.043.027.016.054.037.073.062.047.048.087.098.128.147.042.05.082.1.123.152 19.131 24.482 38.263 48.964 57.393 73.447.018.025.027.062.026.094-.004.017-.037.03-.193.147-.365-.335-.81-.647-1.132-1.056-3.411-4.339-6.802-8.694-10.202-13.04-8.021-10.254-16.05-20.506-24.07-30.762-7.398-9.462-14.793-18.932-22.188-28.398-.194-.25-.37-.514-.558-.778.081-.047.106-.064.133-.073.028-.012.061-.014.094-.018z"/><path d="m638.947 642.279c7.903 10.106 15.814 20.206 23.717 30.312 8.044 10.285 16.07 20.582 24.122 30.863 1.558 1.99 3.185 3.928 4.778 5.889-.078.091-.154.182-.231.274-.122.017-.317.091-.354.042-19.035-24.43-38.061-48.87-57.084-73.311.354.136.701.333.928.623 1.389 1.759 2.742 3.545 4.124 5.308z"/><path d="m515.521 636.65c8.043 10.274 16.079 20.555 24.106 30.842 7.032 9.009 14.051 18.025 21.073 27.04.233.296.452.604.677.905-.071.077-.141.154-.21.232-.312-.279-.675-.518-.927-.841-7.496-9.595-14.979-19.196-22.47-28.794-7.59-9.723-15.188-19.441-22.781-29.162-.19-.244-.366-.502-.549-.753.069-.077.14-.155.211-.233.291.253.634.464.87.764z"/><path d="m547.058 633.557c16.85 21.574 33.684 43.158 50.521 64.742-.102.09-.205.18-.309.269-3.535-4.177-6.73-8.633-10.137-12.917-3.436-4.322-6.83-8.677-10.233-13.023-3.386-4.32-6.764-8.646-10.138-12.977-3.393-4.353-6.773-8.717-10.166-13.072-3.373-4.33-6.754-8.648-10.248-13.119.404.05.641.007.71.097z"/><path d="m664.396 642.191c1.38 1.679 2.686 3.421 4.026 5.135 1.319 1.688 2.639 3.377 3.958 5.064 1.34 1.716 2.678 3.43 4.02 5.145 1.318 1.688 2.639 3.379 3.957 5.066 1.339 1.714 2.677 3.428 4.018 5.143 1.319 1.688 2.64 3.377 3.959 5.066 1.338 1.714 2.679 3.428 4.018 5.143 1.319 1.688 2.639 3.378 3.958 5.067 1.339 1.712 2.679 3.427 4.019 5.141 1.317 1.688 2.639 3.378 3.956 5.066 1.341 1.716 2.68 3.43 4.018 5.146 1.32 1.688 2.638 3.377 3.961 5.064 1.332 1.699 2.666 3.392 4.001 5.087-.067.071-.135.144-.201.215-.269-.188-.582-.333-.794-.569-.432-.482-.807-1.013-1.207-1.523-10.475-13.409-20.949-26.815-31.426-40.225-.34-.436-.693-.857-1.031-1.291-5.358-6.858-10.709-13.721-16.073-20.572-1.797-2.295-3.631-4.564-5.446-6.844.111-.113.222-.227.334-.34 1.586 1.37 2.651 3.209 3.975 4.816z"/><path d="m554.914 654.442c5.502 7.035 10.997 14.074 16.496 21.111 5.485 7.019 10.967 14.039 16.604 21.252-.431-.076-.657-.05-.728-.14-16.321-20.955-32.63-41.922-48.938-62.887.062-.068.123-.136.186-.204 5.605 6.84 10.935 13.9 16.38 20.868z"/><path d="m508.185 638.121c1.823 2.325 3.623 4.67 5.444 6.999 7.815 10.009 15.635 20.014 23.453 30.021 5.098 6.526 10.198 13.052 15.295 19.578.156.2.298.41.447.614-.123.108-.244.215-.367.324-5.128-6.3-9.977-12.824-15.021-19.189-5.083-6.412-10.068-12.904-15.107-19.354-5.03-6.437-10.074-12.862-15.111-19.294.088-.095.176-.19.264-.285.235.195.518.352.703.586z"/><path d="m535.111 694.396c-.22.019-.282.03-.349.028-.063-.002-.128-.018-.191-.026-.031-.005-.064-.01-.092-.023-.058-.031-.113-.064-.165-.102-.025-.018-.047-.045-.065-.069-10.734-13.74-21.472-27.477-32.202-41.219-2.396-3.068-4.777-6.152-7.163-9.229-.017-.021-.021-.062-.013-.091.007-.029.031-.054.258-.431 13.406 17.064 26.656 34.069 39.982 51.162z"/><path d="m523.119 635.518c5.326 6.799 10.639 13.609 15.958 20.413 3.122 3.991 6.251 7.972 9.37 11.963 5.38 6.881 10.748 13.772 16.13 20.65 1.813 2.318 3.664 4.61 5.496 6.913-.064.074-.13.148-.194.22-.149-.019-.374.021-.438-.064-15.761-20.182-31.509-40.372-47.257-60.562.048-.064.094-.129.141-.19.267.215.587.393.794.657z"/><path d="m506.284 646.606c1.829 2.279 3.605 4.601 5.404 6.903 1.819 2.33 3.639 4.658 5.459 6.986 1.799 2.303 3.597 4.605 5.396 6.908 1.798 2.303 3.598 4.605 5.399 6.908 1.798 2.304 3.596 4.606 5.396 6.909 1.819 2.327 3.636 4.657 5.457 6.983 1.784 2.283 3.572 4.566 5.358 6.849-.343.083-.628.076-.739-.067-14.267-18.248-28.521-36.506-42.774-54.765.102-.085.204-.17.308-.255 1.976 2.045 3.56 4.428 5.336 6.641z"/><path d="m525.129 692.967c-.319-.27-.692-.492-.945-.813-2.65-3.366-5.282-6.745-7.919-10.12-8.493-10.871-16.985-21.74-25.477-32.608-.182-.229-.388-.447-.523-.7-.079-.144-.039-.352-.058-.6 11.699 14.977 23.315 29.842 34.929 44.711-.003.042-.005.087-.007.13z"/><path d="m513.531 689.407c-8.818-11.271-17.621-22.557-26.416-33.848-.091-.118-.03-.355-.033-.396 9.08 11.449 18.203 22.953 27.325 34.457-.386.042-.72-.016-.876-.213z"/><path d="m499.724 681.999c-.542-.416-1.129-.825-1.556-1.364-3.039-3.847-6.057-7.713-9.055-11.593-.417-.544-.688-1.2-1.027-1.804.027-.012.056-.021.083-.035 3.852 4.932 7.703 9.865 11.555 14.796z"/><path d="m141.633 72.542c-.735-6.434-1.565-13.706-2.381-20.86-.062-.54-.122-1.078-.186-1.613-2.044-18.003-3.952-34.808-3.951-35.056-.39.284-.781.562-1.177.834-.638.444-1.29.87-1.953 1.281-.086.057-.167.108-.255.161-.007.003-.011.008-.014.011-9.98 6.19-22.289 9.367-36.271 9.305-.673-.002-1.345-.011-2.025-.035-5.682-.143-11.631-.819-17.81-2.034-.606-.117-1.221-.24-1.834-.373-5.282-1.118-10.718-2.625-16.289-4.533-.528-.181-1.049-.352-1.569-.508l-.014-.003c-.169-.055-.334-.102-.502-.152l-.912-.258c-.377-.102-.75-.2-1.121-.287-16.764-4.137-29.922 2.479-38.131 8.916-.498.394-.973.78-1.434 1.167-5.26 4.411-8.111 8.424-8.111 8.424s-.195 2.752-.511 7.289c-.044.647-.093 1.333-.143 2.047-.029.396-.057.801-.086 1.219-.474 6.825-1.133 16.267-1.804 26.254-.042.604-.083 1.211-.126 1.822-.567 8.444-1.15 17.181-1.648 24.969-.015.22-.03.438-.041.658l-.042.65c-.125 1.93-.241 3.798-.352 5.58-.653 10.642-1.061 18.292-.909 18.76 2.831-3.984 8.724-7.856 17.327-10.137.126-.035.255-.07.381-.103 4.155-1.072 8.928-1.773 14.282-1.944 3.73-.121 7.751.018 12.038.473.042.003.082.006.121.011.701.074 1.409.154 2.123.247 4.384.563 9.037 1.45 13.943 2.715.596.153 1.192.313 1.794.476.535.146 1.075.295 1.616.451 7.879 2.985 15.479 4.147 22.651 4.041.479-.007.958-.02 1.426-.04 7.45-.287 14.419-1.93 20.744-4.289.662-.25 1.322-.503 1.969-.767 7.098-2.879 13.325-6.622 18.429-10.275.312-.225.626-.452.933-.677 8.985-6.592 14.233-12.713 14.233-12.713s-.939-8.2-2.206-19.309c-.065-.59-.132-1.186-.202-1.795z"/></g><path d="m141.633 72.542c-.735-6.434-1.565-13.706-2.381-20.86-.062-.54-.122-1.078-.186-1.613l-.196-.142-36.606 7.973 31.727-40.593-.053-1.46c-.638.444-1.29.87-1.953 1.281-.086.057-.167.108-.255.161-.007.003-.011.008-.014.011-9.98 6.19-22.289 9.367-36.271 9.305-.673-.002-1.345-.011-2.025-.035l-15.199 28.429-2.611-30.463-18.505-5.086-1.188-.327-.014-.003-1.412-.389-1.124-.309-.651.583 6.969 41.774-44.448-33.442c-.498.394-.973.78-1.434 1.167-5.26 4.411-8.111 8.424-8.111 8.424s-.195 2.752-.511 7.289c-.044.647-.093 1.333-.143 2.047l35.69 23.063-37.579 4.411-.122 1.822-1.648 24.969-.045.658-.042.65.522.434 43.116-10.932-28.329 23.208.756 1.493c.126-.035.255-.07.381-.103 4.155-1.072 8.928-1.773 14.282-1.944 3.73-.121 7.751.018 12.038.473.042.003.082.006.121.011.701.074 1.409.154 2.123.247l14.002-17.019-.06 19.734c.596.153 1.192.313 1.794.476.535.146 1.075.295 1.616.451 7.879 2.985 15.479 4.147 22.651 4.041.479-.007.958-.02 1.426-.04l.314-.413-6.195-23.969 26.624 20.093c.662-.25 1.322-.503 1.969-.767 7.098-2.879 13.325-6.622 18.429-10.275.312-.225.626-.452.933-.677l-.044-.885-35.747-20.339 47.822-10.799c-.066-.589-.133-1.185-.203-1.794z" fill="#fff"/><path d="m139.252 51.683-41.467 9.031 33.931-43.414c-9.98 6.19-22.289 9.367-36.271 9.305l-18.496 34.585-3.173-37.027-16.67-4.714-1.705-.483-.912-.258.002.021 7.71 46.188-48.398-36.413c-5.26 4.411-8.111 8.424-8.111 8.424s-.195 2.752-.511 7.289l40.717 26.313-42.871 5.03h-.004c-.567 8.444-1.15 17.181-1.648 24.969h.004l50.936-12.916-34.576 28.324c4.155-1.072 8.928-1.773 14.282-1.944 3.73-.121 7.751.018 12.038.473.042.003.082.006.121.011l17.936-21.803-.076 25.24c.535.146 1.075.295 1.616.451 7.879 2.985 15.479 4.147 22.651 4.041l-7.484-28.958 31.623 23.862c7.098-2.879 13.325-6.622 18.429-10.275l-39.781-22.63 52.539-11.863c-.736-6.434-1.565-13.705-2.381-20.859z" fill="#f3765a"/><path d="m133.55.297c-3.956.706 12.815 129.045 12.815 129.045l4.395 2.887s-12.56-125.091-13.231-128.686c-.672-3.595-.024-3.952-3.979-3.246z" fill="#453d3a"/><path d="m504.056 211.539c-1.666-27.757-6.127-65.286-17.472-101.18-2.706-8.56-5.803-17.028-9.346-25.248-51.146-98.836-199.954-18.045-307.396 26.776-2.896 1.206-5.762 2.386-8.593 3.538-26.815 10.901-41.684 30.955-48.886 54.94-5.428 18.077-6.498 38.392-5.042 58.706 4.372 61.207 31.651 122.402 31.651 122.402l181.524-48.144 184.258-48.865s.841-17.293-.699-42.909v-.016z" fill="#f3765a"/><g fill="#fff" opacity=".32"><path d="m185.089 321.077c-1.918-.015-3.517 1.548-3.545 3.468-.032 1.989 1.506 3.568 3.49 3.581 1.956.013 3.517-1.499 3.549-3.439.032-1.963-1.548-3.594-3.494-3.61z"/><path d="m179.667 328.146c-1.936.024-3.484 1.603-3.484 3.548 0 1.949 1.545 3.486 3.51 3.491 1.975.005 3.514-1.511 3.526-3.474.014-1.971-1.599-3.591-3.552-3.565z"/><path d="m180.062 214.823c-1.96-.011-3.548 1.582-3.538 3.552.01 1.978 1.586 3.509 3.587 3.484 1.939-.023 3.462-1.583 3.451-3.533-.01-1.935-1.567-3.493-3.5-3.503z"/><path d="m185.562 165.28c-1.969-.012-3.522 1.497-3.549 3.453-.027 1.978 1.56 3.588 3.529 3.583 1.935-.006 3.502-1.578 3.511-3.52.009-1.951-1.532-3.503-3.491-3.516z"/><path d="m179.861 271.514c-1.964.003-3.503 1.534-3.508 3.493-.006 1.944 1.545 3.518 3.486 3.541 1.929.024 3.527-1.54 3.55-3.475.025-2.003-1.521-3.561-3.528-3.559z"/><path d="m180.039 257.351c-1.982-.052-3.579 1.42-3.642 3.355-.063 1.995 1.453 3.618 3.436 3.674 1.926.054 3.556-1.499 3.599-3.425.045-1.976-1.439-3.551-3.393-3.604z"/><path d="m286.661 271.836c-1.969-.008-3.523 1.511-3.544 3.459-.02 1.976 1.575 3.585 3.542 3.575 1.933-.011 3.499-1.592 3.499-3.529-.001-1.959-1.534-3.497-3.497-3.505z"/><path d="m265.262 300.087c-1.973-.023-3.582 1.545-3.595 3.501-.01 1.925 1.545 3.511 3.471 3.539 1.985.028 3.562-1.518 3.573-3.5.011-1.954-1.512-3.515-3.449-3.54z"/><path d="m211.855 299.928c-1.951-.018-3.511 1.497-3.544 3.44-.037 1.998 1.495 3.585 3.471 3.598 1.969.013 3.577-1.575 3.572-3.526-.005-1.923-1.573-3.497-3.499-3.512z"/><path d="m164.164 193.532c-1.979-.03-3.577 1.521-3.597 3.491-.021 1.966 1.559 3.55 3.538 3.547 1.944 0 3.479-1.534 3.494-3.488.014-1.956-1.498-3.52-3.435-3.55z"/><path d="m158.497 299.767c-1.972-.026-3.585 1.542-3.597 3.497-.013 1.923 1.544 3.514 3.468 3.542 1.987.028 3.564-1.514 3.576-3.499.011-1.951-1.51-3.516-3.447-3.54z"/><path d="m206.781 193.661c-1.98.008-3.512 1.58-3.489 3.584.022 1.939 1.578 3.463 3.528 3.456 1.932-.009 3.497-1.566 3.512-3.497.014-1.954-1.587-3.551-3.551-3.543z"/><path d="m174.515 278.572c-1.954-.002-3.514 1.543-3.524 3.489-.01 1.971 1.607 3.586 3.563 3.559 1.933-.025 3.474-1.604 3.47-3.554-.006-1.958-1.546-3.492-3.509-3.494z"/><path d="m212.15 200.752c-1.941-.016-3.51 1.51-3.542 3.454-.032 1.998 1.497 3.576 3.478 3.591 1.972.016 3.577-1.57 3.566-3.527-.009-1.917-1.585-3.5-3.502-3.518z"/><path d="m185.338 221.911c-1.932.019-3.497 1.603-3.497 3.54.003 1.959 1.537 3.498 3.499 3.509 1.956.01 3.526-1.527 3.542-3.47.017-1.977-1.588-3.596-3.544-3.579z"/><path d="m174.428 321.047c-1.948-.028-3.562 1.572-3.565 3.533-.003 1.973 1.573 3.527 3.563 3.513 1.948-.014 3.469-1.55 3.469-3.508.001-1.938-1.541-3.512-3.467-3.538z"/><path d="m190.867 172.371c-1.964-.008-3.515 1.52-3.53 3.473-.014 1.951 1.515 3.536 3.449 3.575 1.955.039 3.58-1.564 3.584-3.537.003-1.944-1.55-3.502-3.503-3.511z"/><path d="m259.926 307.148c-1.956-.042-3.591 1.531-3.621 3.484-.028 1.917 1.529 3.525 3.449 3.561 1.996.037 3.574-1.491 3.594-3.475.02-1.957-1.487-3.528-3.422-3.57z"/><path d="m201.156 299.895c-1.981-.008-3.533 1.554-3.523 3.548.009 1.947 1.548 3.487 3.494 3.491 1.976.003 3.549-1.574 3.537-3.547-.012-1.93-1.571-3.486-3.508-3.492z"/><path d="m158.768 200.592c-1.96-.015-3.574 1.583-3.568 3.533.007 1.928 1.566 3.497 3.494 3.512 1.991.015 3.552-1.534 3.549-3.525-.001-1.94-1.546-3.504-3.475-3.52z"/><path d="m281.29 278.895c-1.955-.005-3.517 1.535-3.532 3.481-.016 1.972 1.595 3.586 3.553 3.566 1.933-.02 3.479-1.594 3.479-3.544 0-1.957-1.538-3.497-3.5-3.503z"/><path d="m180.066 228.991c-1.962-.045-3.578 1.543-3.584 3.524-.005 1.954 1.528 3.495 3.494 3.508 1.97.013 3.521-1.504 3.541-3.461.02-1.95-1.502-3.527-3.451-3.571z"/><path d="m158.765 186.435c-1.933.003-3.502 1.556-3.522 3.486-.021 1.951 1.586 3.566 3.542 3.562 1.938-.004 3.488-1.552 3.501-3.495.014-1.991-1.538-3.557-3.521-3.553z"/><path d="m153.071 306.825c-1.919.001-3.507 1.57-3.531 3.487-.025 1.922 1.528 3.524 3.447 3.559 1.998.035 3.575-1.493 3.592-3.478.018-1.992-1.532-3.568-3.508-3.568z"/><path d="m185.242 278.606c-1.992-.024-3.564 1.519-3.572 3.501-.007 1.929 1.543 3.513 3.467 3.544 1.953.031 3.568-1.562 3.576-3.525.005-1.939-1.529-3.497-3.471-3.52z"/><path d="m222.458 299.96c-1.945.013-3.483 1.578-3.475 3.536s1.553 3.5 3.507 3.502c1.935.002 3.527-1.566 3.544-3.492.018-1.956-1.6-3.56-3.576-3.546z"/><path d="m201.471 186.565c-1.945.002-3.484 1.536-3.496 3.487-.012 1.983 1.551 3.564 3.521 3.56 1.923-.003 3.496-1.571 3.51-3.498.017-1.971-1.56-3.552-3.535-3.549z"/><path d="m174.707 221.88c-1.956-.014-3.559 1.604-3.546 3.578.013 1.945 1.575 3.475 3.542 3.469 1.963-.006 3.489-1.539 3.491-3.507.002-1.946-1.553-3.526-3.487-3.54z"/><path d="m169.346 214.791c-1.933.013-3.506 1.595-3.507 3.526-.003 1.943 1.553 3.501 3.505 3.51 1.971.009 3.516-1.503 3.536-3.464.022-1.985-1.561-3.586-3.534-3.572z"/><path d="m169.524 172.308c-1.982-.012-3.566 1.556-3.56 3.526.008 1.921 1.58 3.502 3.5 3.521 1.926.019 3.516-1.536 3.544-3.462.029-2.001-1.498-3.573-3.484-3.585z"/><path d="m190.751 214.856c-1.978-.018-3.553 1.568-3.542 3.561.011 1.957 1.553 3.477 3.525 3.475 1.951-.003 3.507-1.554 3.507-3.501 0-1.945-1.553-3.52-3.49-3.535z"/><path d="m142.792 193.467c-1.978-.021-3.604 1.576-3.594 3.531.01 1.929 1.592 3.502 3.529 3.509 1.958.006 3.504-1.524 3.522-3.486.019-1.959-1.513-3.531-3.457-3.554z"/><path d="m153.41 193.5c-1.93.002-3.502 1.553-3.529 3.482-.025 1.951 1.571 3.556 3.538 3.557 1.949.001 3.485-1.527 3.503-3.48.017-1.993-1.529-3.561-3.512-3.559z"/><path d="m180.131 172.34c-1.937.014-3.481 1.572-3.48 3.512.001 1.966 1.607 3.561 3.562 3.534 1.925-.023 3.475-1.599 3.477-3.532.001-1.982-1.565-3.528-3.559-3.514z"/><path d="m201.377 214.887c-1.94.008-3.483 1.565-3.487 3.526-.005 1.967 1.514 3.498 3.485 3.51 1.961.014 3.526-1.516 3.546-3.463.019-1.978-1.57-3.581-3.544-3.573z"/><path d="m190.559 271.546c-1.974-.004-3.509 1.511-3.521 3.475-.012 1.957 1.515 3.527 3.461 3.559 1.964.034 3.573-1.564 3.571-3.544-.002-1.953-1.545-3.485-3.511-3.49z"/><path d="m190.418 328.179c-1.929-.026-3.522 1.536-3.551 3.477-.028 1.976 1.471 3.531 3.432 3.56 1.984.03 3.555-1.452 3.601-3.398.044-1.977-1.522-3.613-3.482-3.639z"/><path d="m164.272 179.377c-2.003-.053-3.61 1.446-3.661 3.414-.053 1.965 1.508 3.592 3.471 3.62 1.941.029 3.52-1.491 3.559-3.429.041-1.974-1.439-3.555-3.369-3.605z"/><path d="m206.481 292.831c-1.943.004-3.479 1.544-3.489 3.496-.011 1.986 1.555 3.56 3.531 3.551 1.918-.009 3.496-1.588 3.508-3.508.015-1.962-1.574-3.546-3.55-3.539z"/><path d="m163.776 292.7c-1.932.007-3.496 1.562-3.509 3.491-.012 1.963 1.583 3.565 3.54 3.557 1.964-.007 3.51-1.595 3.493-3.588-.017-1.938-1.573-3.466-3.524-3.46z"/><path d="m265.166 285.932c-1.918.023-3.474 1.62-3.455 3.543.02 1.923 1.596 3.486 3.521 3.495 1.969.009 3.531-1.574 3.52-3.561-.012-1.988-1.572-3.502-3.586-3.477z"/><path d="m291.96 278.927c-1.956-.005-3.509 1.531-3.522 3.487-.013 1.975 1.6 3.587 3.56 3.561 1.935-.029 3.485-1.61 3.48-3.553-.005-1.944-1.562-3.492-3.518-3.495z"/><path d="m195.772 321.11c-1.958-.023-3.562 1.589-3.549 3.568.011 1.955 1.554 3.479 3.523 3.48 1.949.001 3.512-1.551 3.521-3.498.007-1.923-1.571-3.529-3.495-3.55z"/><path d="m174.957 165.249c-2.021-.038-3.607 1.481-3.625 3.466-.015 1.946 1.519 3.526 3.464 3.567 1.933.042 3.537-1.507 3.568-3.448.032-1.982-1.456-3.549-3.407-3.585z"/><path d="m158.413 313.92c-1.948-.016-3.571 1.607-3.556 3.551.016 1.971 1.597 3.504 3.596 3.489 1.939-.015 3.454-1.566 3.449-3.529-.006-1.938-1.554-3.496-3.489-3.511z"/><path d="m206.471 306.985c-1.931-.01-3.499 1.539-3.521 3.475-.024 1.997 1.512 3.566 3.498 3.573 1.933.006 3.508-1.535 3.541-3.465.035-1.95-1.558-3.572-3.518-3.583z"/><path d="m195.964 278.639c-2.004-.04-3.588 1.478-3.611 3.458-.024 1.976 1.548 3.585 3.505 3.589 1.919.003 3.51-1.563 3.537-3.483.026-1.939-1.5-3.524-3.431-3.564z"/><path d="m137.114 299.702c-1.983-.017-3.575 1.573-3.558 3.55.018 1.944 1.583 3.49 3.533 3.487 1.954 0 3.492-1.541 3.498-3.507.005-1.966-1.518-3.515-3.473-3.53z"/><path d="m243.887 300.024c-1.951-.018-3.525 1.51-3.563 3.457-.038 1.978 1.541 3.58 3.526 3.582 1.955.003 3.495-1.536 3.504-3.5.01-1.965-1.515-3.521-3.467-3.539z"/><path d="m131.73 306.76c-1.936-.004-3.521 1.561-3.541 3.497-.02 1.97 1.576 3.561 3.562 3.551 1.94-.01 3.504-1.59 3.495-3.528-.009-1.942-1.582-3.515-3.516-3.52z"/><path d="m142.522 306.794c-1.961-.062-3.593 1.473-3.664 3.442-.068 1.894 1.501 3.548 3.411 3.601 2.001.053 3.593-1.452 3.638-3.434.043-1.949-1.457-3.549-3.385-3.609z"/><path d="m163.754 306.857c-1.928 0-3.505 1.556-3.528 3.479-.025 1.969 1.549 3.563 3.518 3.566 1.951.003 3.497-1.524 3.515-3.47.015-1.992-1.534-3.575-3.505-3.575z"/><path d="m249.213 307.115c-1.956-.022-3.588 1.578-3.59 3.521-.002 1.921 1.565 3.505 3.489 3.525 1.991.021 3.56-1.524 3.563-3.512.006-1.946-1.529-3.512-3.462-3.534z"/><path d="m153.49 179.344c-1.954-.014-3.526 1.509-3.564 3.457-.04 1.954 1.568 3.581 3.541 3.581 1.947 0 3.492-1.551 3.498-3.514.007-1.972-1.51-3.51-3.475-3.524z"/><path d="m174.831 179.408c-1.984-.008-3.551 1.556-3.542 3.535.01 1.928 1.574 3.492 3.504 3.502 1.973.01 3.532-1.561 3.529-3.548-.005-1.95-1.537-3.482-3.491-3.489z"/><path d="m270.514 307.179c-1.927.003-3.499 1.561-3.521 3.487-.021 1.969 1.554 3.559 3.527 3.559 1.947 0 3.491-1.532 3.505-3.478.013-1.993-1.54-3.571-3.511-3.568z"/><path d="m147.733 313.887c-1.951-.013-3.587 1.633-3.555 3.577.03 1.943 1.595 3.467 3.558 3.463 1.969-.003 3.478-1.525 3.477-3.509 0-1.967-1.526-3.515-3.48-3.531z"/><path d="m116.021 186.306c-1.938.019-3.466 1.575-3.463 3.527.003 1.946 1.54 3.501 3.478 3.519 1.953.018 3.586-1.599 3.573-3.535-.013-1.961-1.614-3.528-3.588-3.511z"/><path d="m185.333 236.081c-1.967-.006-3.557 1.607-3.533 3.585.022 1.952 1.588 3.479 3.547 3.464 1.95-.015 3.498-1.575 3.493-3.522-.005-1.937-1.581-3.521-3.507-3.527z"/><path d="m137.458 186.373c-1.952-.015-3.524 1.512-3.561 3.458-.037 1.966 1.56 3.588 3.53 3.586 1.942-.002 3.493-1.557 3.5-3.513.01-1.967-1.513-3.516-3.469-3.531z"/><path d="m148.172 186.405c-1.984-.032-3.603 1.541-3.609 3.506-.006 1.922 1.577 3.522 3.503 3.539 1.954.017 3.51-1.513 3.531-3.475.021-1.981-1.473-3.54-3.425-3.57z"/><path d="m169.484 186.468c-1.973-.015-3.565 1.564-3.56 3.529.005 1.924 1.571 3.501 3.492 3.518 1.938.017 3.517-1.52 3.549-3.453.034-1.992-1.504-3.58-3.481-3.594z"/><path d="m163.682 321.012c-1.918.018-3.488 1.598-3.5 3.52-.011 1.974 1.564 3.538 3.551 3.529 1.957-.011 3.478-1.534 3.481-3.493.007-1.981-1.576-3.573-3.532-3.556z"/><path d="m168.998 328.113c-1.927.02-3.506 1.619-3.502 3.542.004 1.942 1.56 3.492 3.512 3.499 1.976.006 3.512-1.501 3.531-3.466.02-1.978-1.58-3.594-3.541-3.575z"/><path d="m238.562 307.083c-1.972-.038-3.601 1.551-3.605 3.515-.004 1.94 1.556 3.514 3.498 3.529 1.954.018 3.523-1.513 3.554-3.463.03-1.937-1.517-3.544-3.447-3.581z"/><path d="m174.578 264.41c-1.959-.013-3.525 1.518-3.545 3.463-.02 1.975 1.587 3.6 3.54 3.583 1.937-.016 3.488-1.589 3.492-3.534.004-1.967-1.517-3.501-3.487-3.512z"/><path d="m121.35 193.404c-1.945.011-3.479 1.574-3.472 3.536.009 1.966 1.544 3.5 3.503 3.503 1.948.001 3.514-1.547 3.528-3.492.014-1.98-1.571-3.561-3.559-3.547z"/><path d="m196.045 221.943c-1.934-.002-3.51 1.569-3.522 3.51-.015 1.964 1.506 3.514 3.465 3.537 1.964.022 3.538-1.49 3.578-3.438.039-1.959-1.568-3.606-3.521-3.609z"/><path d="m185.316 264.443c-1.998-.039-3.582 1.487-3.602 3.468-.021 1.967 1.569 3.583 3.52 3.579 1.921-.006 3.498-1.573 3.52-3.499.022-1.947-1.491-3.509-3.438-3.548z"/><path d="m281.302 264.732c-1.956.008-3.502 1.558-3.501 3.507 0 1.937 1.568 3.523 3.498 3.54 1.955.018 3.547-1.596 3.534-3.58-.013-1.956-1.56-3.475-3.531-3.467z"/><path d="m169.191 271.481c-1.956.001-3.516 1.542-3.526 3.486-.009 1.93 1.559 3.524 3.49 3.549 1.968.025 3.565-1.574 3.555-3.554-.011-1.964-1.545-3.481-3.519-3.481z"/><path d="m116.017 200.463c-1.935.003-3.486 1.55-3.502 3.495-.019 1.988 1.537 3.553 3.523 3.55 1.93-.004 3.503-1.558 3.527-3.486.025-1.936-1.594-3.562-3.548-3.559z"/><path d="m126.664 200.496c-1.938.018-3.48 1.596-3.471 3.546.01 1.963 1.549 3.497 3.508 3.498 1.944.002 3.515-1.552 3.53-3.493.016-1.964-1.595-3.569-3.567-3.551z"/><path d="m275.966 271.804c-1.955-.004-3.518 1.536-3.53 3.479-.016 1.963 1.607 3.581 3.565 3.557 1.939-.026 3.482-1.6 3.477-3.549-.006-1.962-1.539-3.484-3.512-3.487z"/><path d="m148.11 200.56c-1.966-.026-3.599 1.58-3.591 3.536.009 1.932 1.584 3.502 3.522 3.509 1.965.007 3.499-1.514 3.512-3.483.014-1.971-1.498-3.535-3.443-3.562z"/><path d="m158.461 285.61c-1.934.003-3.5 1.553-3.517 3.481-.02 1.949 1.588 3.559 3.546 3.555 1.932-.004 3.483-1.555 3.496-3.499.016-1.992-1.529-3.542-3.525-3.537z"/><path d="m201.121 285.738c-1.94.018-3.453 1.567-3.446 3.529.007 1.947 1.545 3.493 3.485 3.509 1.962.017 3.555-1.576 3.547-3.545-.007-1.971-1.586-3.51-3.586-3.493z"/><path d="m211.932 285.771c-2.006-.026-3.565 1.49-3.579 3.483-.013 1.953 1.503 3.517 3.439 3.553 1.957.037 3.586-1.544 3.604-3.499.019-1.922-1.537-3.51-3.464-3.537z"/><path d="m201.466 200.72c-1.938-.014-3.507 1.523-3.533 3.459-.028 2.001 1.499 3.572 3.483 3.585 1.939.014 3.519-1.521 3.548-3.449.029-1.97-1.537-3.579-3.498-3.595z"/><path d="m297.27 286.029c-1.955 0-3.492 1.521-3.506 3.473-.014 1.986 1.547 3.57 3.515 3.564 1.934-.006 3.498-1.557 3.517-3.488.02-1.978-1.54-3.549-3.526-3.549z"/><path d="m110.634 207.524c-1.945.02-3.466 1.573-3.468 3.546-.001 1.972 1.516 3.49 3.494 3.494 1.952.004 3.522-1.536 3.54-3.477.019-1.952-1.61-3.581-3.566-3.563z"/><path d="m131.779 292.605c-1.95-.007-3.514 1.53-3.544 3.48-.03 1.956 1.589 3.58 3.555 3.568 1.935-.015 3.503-1.601 3.499-3.536-.005-1.946-1.564-3.505-3.51-3.512z"/><path d="m142.47 292.637c-1.968-.012-3.581 1.583-3.572 3.53.011 1.914 1.593 3.501 3.509 3.517 1.972.018 3.553-1.561 3.544-3.541-.006-1.955-1.535-3.494-3.481-3.506z"/><path d="m190.687 229.021c-1.944-.004-3.508 1.551-3.521 3.499-.012 1.974 1.495 3.511 3.461 3.536 1.97.022 3.543-1.488 3.571-3.433.031-1.988-1.539-3.597-3.511-3.602z"/><path d="m153.369 207.654c-1.913 0-3.504 1.573-3.531 3.493-.026 1.954 1.558 3.544 3.537 3.547 1.96.005 3.487-1.507 3.504-3.467.017-1.985-1.544-3.573-3.51-3.573z"/><path d="m164.021 207.686c-1.919.015-3.482 1.586-3.496 3.517-.013 1.967 1.562 3.529 3.553 3.524 1.952-.005 3.475-1.535 3.479-3.494.004-1.977-1.575-3.561-3.536-3.547z"/><path d="m217.144 292.862c-1.95.011-3.471 1.559-3.466 3.532.003 1.955 1.549 3.512 3.492 3.515 1.927.004 3.522-1.571 3.543-3.5.02-1.958-1.589-3.558-3.569-3.547z"/><path d="m185.41 207.75c-1.922-.004-3.504 1.558-3.525 3.482-.023 1.955 1.49 3.527 3.426 3.559 2.001.032 3.591-1.491 3.614-3.458.021-1.969-1.558-3.579-3.515-3.583z"/><path d="m238.556 292.927c-1.949-.012-3.518 1.519-3.555 3.47-.037 1.952 1.583 3.587 3.546 3.577 1.937-.009 3.508-1.587 3.508-3.525 0-1.946-1.556-3.511-3.499-3.522z"/><path d="m206.767 207.815c-1.969-.004-3.528 1.576-3.518 3.566.012 1.956 1.538 3.472 3.498 3.475 1.984.001 3.562-1.576 3.542-3.542-.019-1.917-1.607-3.495-3.522-3.499z"/><path d="m217.44 207.847c-1.947-.004-3.494 1.542-3.507 3.505-.015 1.983 1.485 3.519 3.453 3.536 1.962.018 3.533-1.489 3.581-3.438.048-1.941-1.574-3.599-3.527-3.603z"/><path d="m249.264 292.959c-1.971-.023-3.589 1.551-3.597 3.502-.009 1.913 1.562 3.513 3.48 3.545 1.972.032 3.56-1.533 3.569-3.514.012-1.953-1.512-3.51-3.452-3.533z"/><path d="m259.905 292.991c-1.965-.01-3.575 1.592-3.558 3.539.018 1.923 1.588 3.493 3.512 3.509 1.971.016 3.538-1.561 3.531-3.549-.008-1.955-1.536-3.49-3.485-3.499z"/><path d="m270.634 293.023c-1.981-.031-3.582 1.521-3.597 3.486-.018 1.962 1.574 3.567 3.533 3.561 1.932-.005 3.483-1.556 3.498-3.498.016-1.957-1.497-3.52-3.434-3.549z"/><path d="m180.212 158.176c-1.96.002-3.512 1.542-3.517 3.491-.007 1.942 1.543 3.525 3.478 3.557 1.956.03 3.569-1.584 3.559-3.561-.01-1.956-1.559-3.49-3.52-3.487z"/><path d="m227.83 292.893c-1.951.007-3.484 1.556-3.483 3.521 0 1.955 1.547 3.518 3.488 3.527 1.937.008 3.52-1.551 3.542-3.488.023-1.977-1.561-3.566-3.547-3.56z"/><path d="m179.822 313.985c-1.956-.042-3.58 1.534-3.601 3.495-.02 1.942 1.512 3.517 3.444 3.544 2.006.027 3.577-1.49 3.597-3.474.017-1.932-1.517-3.524-3.44-3.565z"/><path d="m137.42 200.528c-1.94-.021-3.524 1.522-3.565 3.465-.04 1.972 1.544 3.58 3.526 3.58 1.958 0 3.495-1.533 3.504-3.498.011-1.963-1.518-3.526-3.465-3.547z"/><path d="m227.846 307.05c-1.983-.018-3.557 1.562-3.542 3.558.016 1.964 1.556 3.491 3.517 3.488 1.944-.004 3.514-1.568 3.514-3.505-.001-1.946-1.554-3.522-3.489-3.541z"/><path d="m164.236 165.216c-1.975-.021-3.54 1.475-3.584 3.425-.043 1.969 1.546 3.604 3.51 3.609 1.949.004 3.505-1.538 3.522-3.493.019-1.975-1.484-3.519-3.448-3.541z"/><path d="m195.797 292.798c-1.941.009-3.48 1.556-3.488 3.503-.008 1.977 1.575 3.56 3.545 3.544 1.921-.014 3.491-1.59 3.498-3.514.007-1.969-1.578-3.542-3.555-3.533z"/><path d="m153.146 292.669c-1.94-.013-3.528 1.532-3.563 3.466-.033 1.954 1.58 3.584 3.547 3.581 1.942-.003 3.489-1.562 3.494-3.521.003-1.966-1.522-3.513-3.478-3.526z"/><path d="m163.838 278.541c-1.95-.001-3.518 1.549-3.527 3.488-.01 1.968 1.613 3.587 3.566 3.559 1.938-.028 3.467-1.596 3.466-3.555s-1.539-3.492-3.505-3.492z"/><path d="m132.027 207.59c-1.925-.005-3.521 1.576-3.539 3.502-.018 1.976 1.565 3.544 3.566 3.538 1.941-.007 3.507-1.587 3.492-3.522-.015-1.941-1.588-3.514-3.519-3.518z"/><path d="m217.146 307.017c-1.945-.007-3.497 1.539-3.511 3.497-.014 1.976 1.491 3.525 3.448 3.55 1.975.024 3.6-1.572 3.587-3.529-.013-1.933-1.59-3.508-3.524-3.518z"/><path d="m195.806 306.953c-1.933-.013-3.51 1.53-3.538 3.462-.031 1.991 1.51 3.572 3.49 3.585 1.939.011 3.516-1.521 3.551-3.453.036-1.959-1.545-3.58-3.503-3.594z"/><path d="m233.283 299.992c-1.995-.049-3.605 1.489-3.632 3.472-.027 1.946 1.509 3.536 3.449 3.567 1.984.032 3.599-1.543 3.601-3.515.002-1.901-1.527-3.477-3.418-3.524z"/><path d="m254.662 285.9c-2.004-.036-3.608 1.501-3.631 3.476-.021 1.922 1.546 3.527 3.479 3.561 1.947.035 3.524-1.497 3.554-3.451.032-1.991-1.45-3.55-3.402-3.586z"/><path d="m270.622 278.863c-1.954-.008-3.524 1.532-3.544 3.472-.018 1.968 1.592 3.591 3.548 3.575 1.938-.017 3.481-1.586 3.486-3.539.002-1.962-1.528-3.5-3.49-3.508z"/><path d="m222.51 285.803c-1.955.005-3.489 1.554-3.483 3.516.004 1.954 1.555 3.515 3.496 3.52 1.929.007 3.528-1.562 3.556-3.489.026-1.952-1.583-3.552-3.569-3.547z"/><path d="m132.169 179.28c-1.994-.024-3.594 1.54-3.594 3.511 0 1.933 1.577 3.516 3.51 3.526 1.941.008 3.516-1.54 3.545-3.484.03-1.94-1.52-3.53-3.461-3.553z"/><path d="m190.58 285.708c-2.005-.028-3.572 1.492-3.583 3.479-.014 1.982 1.554 3.564 3.521 3.557 1.931-.009 3.493-1.564 3.51-3.497.017-1.945-1.51-3.513-3.448-3.539z"/><path d="m142.812 179.312c-1.982-.013-3.6 1.59-3.571 3.542.027 1.93 1.621 3.498 3.551 3.494 1.94-.005 3.495-1.564 3.502-3.517.005-1.961-1.523-3.507-3.482-3.519z"/><path d="m254.582 300.056c-1.97-.025-3.581 1.545-3.594 3.502-.013 1.955 1.588 3.544 3.56 3.538 1.947-.009 3.466-1.538 3.475-3.502.009-1.966-1.496-3.514-3.441-3.538z"/><path d="m126.764 186.339c-1.956-.01-3.509 1.52-3.529 3.479-.021 1.958 1.507 3.537 3.451 3.566 1.971.03 3.594-1.568 3.59-3.533-.006-1.942-1.567-3.502-3.512-3.512z"/><path d="m147.882 285.578c-1.997-.028-3.607 1.525-3.618 3.492-.012 1.923 1.562 3.519 3.497 3.544 1.947.027 3.514-1.505 3.537-3.465.025-1.989-1.462-3.544-3.416-3.571z"/><path d="m190.409 314.016c-1.967.009-3.514 1.596-3.499 3.588.014 1.94 1.562 3.456 3.524 3.452 1.95-.003 3.495-1.536 3.508-3.48.013-1.964-1.578-3.568-3.533-3.56z"/><path d="m174.335 335.224c-1.939.004-3.505 1.566-3.515 3.507-.012 1.915 1.503 3.518 3.393 3.517 2.505-.001 3.649-1.85 3.639-3.442.02-1.994-1.541-3.586-3.517-3.582z"/><path d="m169.191 299.798c-1.976-.036-3.587 1.519-3.608 3.48-.022 1.959 1.562 3.557 3.53 3.559 1.939.002 3.494-1.539 3.513-3.481.015-1.949-1.503-3.523-3.435-3.558z"/><path d="m195.872 264.475c-1.948.011-3.475 1.547-3.478 3.501-.003 1.937 1.535 3.511 3.465 3.544 1.942.034 3.574-1.577 3.578-3.53.003-1.974-1.571-3.528-3.565-3.515z"/><path d="m233.153 314.146c-1.976-.012-3.568 1.594-3.543 3.572.025 1.962 1.565 3.473 3.536 3.469 1.949-.005 3.511-1.563 3.511-3.505.001-1.932-1.581-3.526-3.504-3.536z"/><path d="m174.879 151.084c-1.965.005-3.503 1.541-3.503 3.499-.001 1.941 1.558 3.517 3.496 3.532 1.976.014 3.546-1.571 3.535-3.568-.011-1.959-1.549-3.468-3.528-3.463z"/><path d="m222.442 314.114c-1.945.007-3.494 1.565-3.503 3.52-.006 1.964 1.519 3.508 3.481 3.521 1.95.01 3.529-1.518 3.57-3.456.042-1.938-1.595-3.593-3.548-3.585z"/><path d="m147.811 299.734c-1.979-.021-3.601 1.575-3.59 3.529.011 1.937 1.583 3.503 3.523 3.509 1.962.006 3.5-1.52 3.512-3.486.011-1.979-1.494-3.532-3.445-3.552z"/><path d="m132.071 193.436c-1.938-.006-3.517 1.552-3.539 3.49-.022 1.933 1.54 3.527 3.478 3.548 1.957.023 3.524-1.488 3.575-3.446.049-1.966-1.533-3.587-3.514-3.592z"/><path d="m302.633 293.12c-1.985-.019-3.556 1.533-3.557 3.519-.002 1.939 1.539 3.505 3.473 3.527 1.959.024 3.573-1.571 3.57-3.529-.002-1.933-1.555-3.499-3.486-3.517z"/><path d="m211.757 314.082c-1.929.009-3.479 1.566-3.489 3.507-.01 2 1.523 3.538 3.526 3.532 1.935-.004 3.502-1.559 3.517-3.483.014-1.944-1.608-3.566-3.554-3.556z"/><path d="m259.907 278.831c-1.938.006-3.517 1.58-3.517 3.508 0 1.919 1.591 3.523 3.51 3.54 1.968.018 3.548-1.581 3.532-3.574-.015-1.964-1.554-3.482-3.525-3.474z"/><path d="m169.454 200.625c-1.928-.021-3.523 1.515-3.571 3.44-.049 1.928 1.479 3.55 3.396 3.603 2 .056 3.603-1.453 3.646-3.428.039-1.984-1.506-3.594-3.471-3.615z"/><path d="m217.181 278.702c-1.958.015-3.469 1.553-3.461 3.532.008 1.951 1.567 3.517 3.5 3.516 1.92 0 3.519-1.589 3.535-3.511.017-1.964-1.588-3.551-3.574-3.537z"/><path d="m201.22 271.579c-1.97-.002-3.497 1.519-3.502 3.488-.004 1.96 1.53 3.527 3.472 3.547 1.968.02 3.573-1.584 3.561-3.558-.013-1.952-1.56-3.475-3.531-3.477z"/><path d="m142.695 207.622c-1.917 0-3.524 1.592-3.54 3.509-.018 1.953 1.594 3.541 3.583 3.531 1.953-.011 3.479-1.563 3.469-3.529-.011-1.951-1.57-3.511-3.512-3.511z"/><path d="m174.725 207.717c-1.918.001-3.496 1.566-3.521 3.492-.024 1.942 1.504 3.52 3.438 3.548 2.013.029 3.577-1.479 3.594-3.466.016-1.984-1.548-3.574-3.511-3.574z"/><path d="m286.705 285.997c-2.006-.039-3.601 1.474-3.63 3.446-.028 1.971 1.539 3.581 3.499 3.59 1.934.01 3.512-1.532 3.54-3.46.029-1.954-1.481-3.538-3.409-3.576z"/><path d="m233.266 285.835c-1.976-.02-3.523 1.473-3.565 3.438-.044 1.981 1.53 3.597 3.505 3.598 1.937.002 3.521-1.562 3.54-3.496.016-1.935-1.542-3.52-3.48-3.54z"/><path d="m153.213 278.509c-1.985-.021-3.598 1.561-3.587 3.522.008 1.921 1.603 3.518 3.521 3.524 1.938.008 3.504-1.551 3.52-3.502.015-1.97-1.498-3.523-3.454-3.544z"/><path d="m179.768 285.674c-1.936.02-3.466 1.581-3.459 3.53.006 1.929 1.57 3.496 3.497 3.507 1.969.011 3.549-1.571 3.542-3.545-.006-1.975-1.582-3.51-3.58-3.492z"/><path d="m212.137 214.92c-1.981-.034-3.569 1.536-3.569 3.53-.002 1.966 1.52 3.495 3.49 3.505 1.949.012 3.528-1.531 3.553-3.468.021-1.92-1.55-3.534-3.474-3.567z"/><path d="m169.592 143.97c-1.953-.004-3.521 1.541-3.541 3.484-.018 1.962 1.608 3.591 3.561 3.564 1.948-.026 3.486-1.59 3.482-3.541-.002-1.957-1.546-3.502-3.502-3.507z"/><path d="m126.496 285.514c-1.978-.019-3.518 1.472-3.557 3.44-.039 1.99 1.525 3.596 3.503 3.596 1.937 0 3.518-1.565 3.536-3.5.015-1.934-1.543-3.518-3.482-3.536z"/><path d="m158.397 328.082c-1.943-.034-3.595 1.602-3.583 3.552.013 1.95 1.562 3.481 3.526 3.487 1.975.006 3.502-1.504 3.516-3.476.016-1.952-1.518-3.529-3.459-3.563z"/><path d="m206.57 278.669c-1.97-.013-3.512 1.499-3.534 3.464-.021 1.958 1.497 3.54 3.438 3.583 1.946.043 3.6-1.577 3.602-3.529.001-1.941-1.558-3.505-3.506-3.518z"/><path d="m163.993 221.847c-1.923.008-3.503 1.596-3.512 3.531-.009 1.94 1.544 3.504 3.496 3.517 1.972.013 3.519-1.5 3.535-3.46.019-1.987-1.559-3.596-3.519-3.588z"/><path d="m153.497 165.183c-1.954 0-3.519 1.547-3.529 3.488-.01 1.926 1.562 3.522 3.492 3.546 1.977.024 3.555-1.557 3.546-3.554-.008-1.971-1.53-3.48-3.509-3.48z"/><path d="m276.058 300.122c-1.983-.079-3.63 1.423-3.707 3.38-.077 1.958 1.476 3.613 3.431 3.657 1.949.042 3.549-1.454 3.61-3.381.06-1.956-1.419-3.58-3.334-3.656z"/><path d="m201.095 314.048c-1.934.002-3.493 1.567-3.504 3.515-.013 1.969 1.51 3.514 3.47 3.524 1.965.011 3.531-1.503 3.561-3.448.03-1.971-1.563-3.593-3.527-3.591z"/><path d="m169.229 257.318c-1.956.002-3.513 1.546-3.521 3.489-.006 1.963 1.63 3.579 3.581 3.54 1.953-.039 3.476-1.604 3.463-3.56-.012-1.959-1.547-3.472-3.523-3.469z"/><path d="m169.474 158.145c-1.942.028-3.478 1.591-3.465 3.53.011 1.921 1.584 3.498 3.506 3.515 1.954.019 3.549-1.586 3.538-3.557-.012-1.989-1.58-3.516-3.579-3.488z"/><path d="m206.73 221.977c-1.933-.009-3.508 1.556-3.523 3.5-.017 1.978 1.485 3.52 3.45 3.544 1.966.024 3.541-1.482 3.588-3.427.047-1.953-1.563-3.609-3.515-3.617z"/><path d="m169.355 228.958c-1.929-.018-3.53 1.543-3.561 3.473-.031 1.979 1.544 3.563 3.54 3.56 1.967-.002 3.497-1.531 3.503-3.496.008-1.948-1.54-3.519-3.482-3.537z"/><path d="m185.342 250.27c-1.953-.038-3.546 1.485-3.585 3.427-.04 1.986 1.52 3.603 3.494 3.622 1.925.018 3.524-1.555 3.545-3.488.023-1.955-1.499-3.523-3.454-3.561z"/><path d="m174.629 250.236c-1.945-.022-3.526 1.521-3.553 3.461-.026 1.976 1.574 3.601 3.532 3.587 1.942-.013 3.493-1.574 3.5-3.522.007-1.962-1.516-3.506-3.479-3.526z"/><path d="m217.389 222.009c-1.937 0-3.484 1.559-3.498 3.519-.014 1.978 1.493 3.51 3.461 3.526 1.961.015 3.531-1.499 3.573-3.447.043-1.941-1.589-3.601-3.536-3.598z"/><path d="m126.413 299.669c-1.952-.006-3.503 1.53-3.52 3.488-.019 1.96 1.508 3.527 3.458 3.551 1.981.027 3.593-1.563 3.58-3.531-.008-1.94-1.574-3.499-3.518-3.508z"/><path d="m158.825 172.276c-1.951-.004-3.521 1.541-3.539 3.484-.02 1.949 1.618 3.584 3.567 3.563 1.94-.023 3.479-1.595 3.475-3.548-.008-1.965-1.541-3.497-3.503-3.499z"/><path d="m148.109 172.242c-1.939.012-3.514 1.595-3.504 3.521.01 1.923 1.607 3.521 3.522 3.527 1.975.006 3.527-1.582 3.513-3.587-.015-1.963-1.555-3.473-3.531-3.461z"/><path d="m158.67 228.927c-1.965-.012-3.581 1.609-3.556 3.566.026 1.941 1.597 3.474 3.551 3.465 1.972-.008 3.49-1.532 3.493-3.502.001-1.953-1.547-3.519-3.488-3.529z"/><path d="m254.612 271.739c-1.956-.001-3.522 1.537-3.538 3.479-.017 1.95 1.619 3.579 3.572 3.555 1.95-.024 3.465-1.575 3.463-3.546-.002-1.976-1.515-3.484-3.497-3.488z"/><path d="m174.688 236.049c-1.945-.039-3.572 1.581-3.568 3.553.003 1.944 1.562 3.494 3.517 3.498 1.963.002 3.503-1.53 3.515-3.49.01-1.952-1.516-3.523-3.464-3.561z"/><path d="m164.369 122.691c-1.963-.039-3.589 1.56-3.589 3.528.002 1.952 1.544 3.495 3.504 3.506 1.979.011 3.514-1.495 3.527-3.461.016-1.968-1.493-3.533-3.442-3.573z"/><path d="m195.967 236.114c-1.944.026-3.489 1.594-3.486 3.542.001 1.954 1.544 3.501 3.5 3.508 1.952.007 3.522-1.537 3.542-3.479.02-1.962-1.609-3.598-3.556-3.571z"/><path d="m227.897 264.571c-1.963.017-3.475 1.557-3.464 3.531.008 1.945 1.579 3.521 3.505 3.516 1.928-.004 3.509-1.581 3.523-3.514.018-1.976-1.572-3.553-3.564-3.533z"/><path d="m195.939 250.3c-1.958.006-3.496 1.549-3.503 3.509-.004 1.944 1.547 3.521 3.485 3.539 1.927.02 3.531-1.551 3.558-3.479.029-1.98-1.555-3.576-3.54-3.569z"/><path d="m147.923 271.418c-2.004-.032-3.605 1.513-3.616 3.485-.01 1.92 1.569 3.522 3.495 3.547 1.943.026 3.514-1.514 3.54-3.469.024-1.992-1.452-3.532-3.419-3.563z"/><path d="m185.606 179.441c-2.004-.044-3.601 1.467-3.637 3.437-.033 1.942 1.479 3.541 3.402 3.599 1.967.058 3.601-1.491 3.638-3.451.039-1.945-1.478-3.543-3.403-3.585z"/><path d="m158.576 271.45c-1.992-.022-3.594 1.544-3.59 3.511.002 1.922 1.592 3.515 3.517 3.523 1.939.01 3.511-1.548 3.526-3.494.017-1.974-1.49-3.517-3.453-3.54z"/><path d="m211.942 271.611c-1.98-.019-3.52 1.476-3.546 3.444-.026 1.954 1.492 3.544 3.427 3.588 1.955.044 3.603-1.557 3.615-3.513.013-1.932-1.545-3.501-3.496-3.519z"/><path d="m243.944 285.868c-1.968-.02-3.533 1.483-3.577 3.435-.046 1.969 1.54 3.597 3.51 3.602 1.953.003 3.504-1.536 3.52-3.494.015-1.973-1.495-3.524-3.453-3.543z"/><path d="m265.292 271.771c-1.946-.004-3.52 1.539-3.539 3.478-.018 1.951 1.618 3.583 3.57 3.557 1.946-.027 3.477-1.59 3.472-3.545-.006-1.971-1.525-3.484-3.503-3.49z"/><path d="m201.239 257.415c-1.972.011-3.482 1.534-3.478 3.51.004 1.955 1.553 3.515 3.495 3.52 1.971.003 3.561-1.607 3.536-3.581-.023-1.95-1.58-3.46-3.553-3.449z"/><path d="m174.995 136.908c-1.997-.026-3.581 1.534-3.577 3.521.003 1.951 1.553 3.496 3.51 3.501 1.967.004 3.509-1.519 3.522-3.478.013-1.971-1.496-3.52-3.455-3.544z"/><path d="m121.182 264.248c-1.968-.005-3.501 1.512-3.517 3.48-.015 1.951 1.518 3.532 3.457 3.567 1.947.037 3.581-1.585 3.574-3.547-.008-1.95-1.558-3.494-3.514-3.5z"/><path d="m142.564 264.313c-1.953-.019-3.529 1.499-3.58 3.449-.05 1.926 1.597 3.599 3.542 3.598 1.935-.002 3.5-1.569 3.51-3.518.011-1.968-1.506-3.51-3.472-3.529z"/><path d="m196.139 193.628c-1.978-.007-3.542 1.565-3.531 3.549.012 1.942 1.561 3.485 3.501 3.491 1.971.004 3.559-1.584 3.542-3.546-.015-1.928-1.582-3.486-3.512-3.494z"/><path d="m137.074 313.856c-1.965-.021-3.574 1.587-3.56 3.559.014 1.946 1.567 3.479 3.53 3.48 1.965.002 3.492-1.521 3.499-3.494.008-1.959-1.525-3.525-3.469-3.545z"/><path d="m190.608 243.206c-1.965.013-3.484 1.546-3.484 3.515-.001 1.959 1.532 3.497 3.494 3.508 1.957.009 3.521-1.526 3.537-3.474.017-1.991-1.551-3.561-3.547-3.549z"/><path d="m243.826 314.177c-1.931-.012-3.516 1.545-3.546 3.487-.03 1.975 1.545 3.556 3.544 3.554 1.961-.002 3.484-1.535 3.486-3.507.003-1.955-1.54-3.521-3.484-3.534z"/><path d="m121.385 207.558c-1.971-.022-3.562 1.571-3.548 3.555.011 1.969 1.536 3.483 3.508 3.485 1.957.001 3.516-1.542 3.521-3.488.005-1.943-1.553-3.532-3.481-3.552z"/><path d="m196.128 207.782c-1.962-.027-3.562 1.558-3.562 3.529-.003 1.955 1.522 3.497 3.469 3.512 1.988.016 3.571-1.535 3.574-3.504.002-1.921-1.561-3.511-3.481-3.537z"/><path d="m153.029 320.982c-1.915.001-3.522 1.601-3.532 3.518-.011 1.971 1.584 3.546 3.579 3.53 1.96-.018 3.471-1.561 3.461-3.535-.01-1.952-1.57-3.515-3.508-3.513z"/><path d="m217.075 321.176c-1.941.011-3.479 1.569-3.483 3.531-.004 1.979 1.503 3.504 3.475 3.515 1.949.011 3.528-1.526 3.559-3.463.031-1.948-1.599-3.594-3.551-3.583z"/><path d="m147.745 328.05c-1.938-.052-3.603 1.574-3.61 3.524-.008 1.94 1.548 3.5 3.502 3.513 1.992.013 3.514-1.472 3.533-3.449.019-1.972-1.474-3.537-3.425-3.588z"/><path d="m206.633 264.505c-1.97-.023-3.524 1.483-3.553 3.443-.029 1.993 1.541 3.607 3.505 3.604 1.919-.001 3.521-1.595 3.533-3.513.012-1.942-1.533-3.51-3.485-3.534z"/><path d="m137.546 158.048c-1.958-.019-3.526 1.501-3.563 3.45-.036 1.959 1.577 3.603 3.529 3.597 1.937-.007 3.49-1.567 3.503-3.521.01-1.97-1.503-3.509-3.469-3.526z"/><path d="m148.094 214.726c-1.959-.044-3.606 1.555-3.616 3.511-.01 1.929 1.559 3.51 3.497 3.524 1.981.016 3.517-1.482 3.537-3.449.02-1.977-1.472-3.541-3.418-3.586z"/><path d="m158.908 158.112c-1.963-.02-3.534 1.49-3.579 3.44-.045 1.943 1.576 3.603 3.525 3.607 1.933.002 3.503-1.566 3.516-3.512.012-1.969-1.501-3.515-3.462-3.535z"/><path d="m190.627 257.382c-1.974-.02-3.524 1.486-3.546 3.446-.022 1.995 1.547 3.593 3.521 3.584 1.941-.009 3.503-1.572 3.512-3.516.008-1.958-1.514-3.494-3.487-3.514z"/><path d="m158.681 214.758c-1.933.009-3.521 1.591-3.524 3.514-.003 1.975 1.591 3.542 3.584 3.522 1.959-.018 3.472-1.564 3.461-3.537-.014-1.946-1.585-3.508-3.521-3.499z"/><path d="m152.995 335.16c-1.929-.005-3.519 1.565-3.541 3.496-.02 1.938 1.534 3.515 3.481 3.537 1.982.021 3.528-1.471 3.56-3.434.03-2.003-1.518-3.595-3.5-3.599z"/><path d="m163.677 335.191c-1.939-.002-3.521 1.558-3.538 3.492-.016 1.986 1.558 3.555 3.557 3.541 1.97-.014 3.48-1.542 3.478-3.515-.006-1.957-1.555-3.514-3.497-3.518z"/><path d="m153.334 221.816c-1.917-.004-3.517 1.584-3.537 3.509-.02 1.964 1.581 3.548 3.57 3.536 1.967-.015 3.475-1.546 3.47-3.524-.005-1.945-1.57-3.518-3.503-3.521z"/><path d="m153.595 151.02c-2.003-.02-3.597 1.543-3.585 3.515.014 1.933 1.587 3.503 3.523 3.515 1.941.011 3.504-1.542 3.517-3.497.013-1.982-1.486-3.514-3.455-3.533z"/><path d="m174.41 306.889c-1.926.008-3.493 1.572-3.505 3.5-.014 1.971 1.563 3.553 3.537 3.546 1.946-.006 3.484-1.541 3.495-3.49.01-1.982-1.557-3.564-3.527-3.556z"/><path d="m153.659 122.659c-1.967-.013-3.584 1.603-3.563 3.561.022 1.946 1.585 3.477 3.544 3.473 1.974-.004 3.49-1.521 3.495-3.496.006-1.958-1.533-3.526-3.476-3.538z"/><path d="m196.185 179.473c-1.963-.009-3.514 1.513-3.533 3.47-.021 1.948 1.515 3.536 3.453 3.566 1.935.03 3.547-1.514 3.588-3.44.042-1.979-1.526-3.588-3.508-3.596z"/><path d="m137.146 285.545c-1.994-.009-3.572 1.573-3.547 3.552.027 1.942 1.605 3.495 3.543 3.485 1.95-.01 3.485-1.562 3.488-3.525.001-1.972-1.519-3.502-3.484-3.512z"/><path d="m206.481 321.145c-1.914-.043-3.531 1.509-3.572 3.428-.044 2.014 1.456 3.588 3.442 3.617 1.948.027 3.53-1.47 3.595-3.403.064-1.941-1.513-3.599-3.465-3.642z"/><path d="m153.179 264.346c-1.95.01-3.513 1.574-3.509 3.511.003 1.924 1.587 3.518 3.511 3.536 1.962.017 3.546-1.59 3.526-3.582-.017-1.964-1.558-3.477-3.528-3.465z"/><path d="m169.644 129.783c-1.922-.014-3.525 1.564-3.55 3.493-.024 1.975 1.565 3.57 3.551 3.557 1.96-.011 3.49-1.552 3.492-3.514.002-1.944-1.556-3.523-3.493-3.536z"/><path d="m169.153 285.643c-1.948-.003-3.517 1.548-3.529 3.488-.013 1.965 1.603 3.57 3.571 3.548 1.938-.021 3.483-1.6 3.472-3.547-.013-1.962-1.547-3.487-3.514-3.489z"/><path d="m116.123 172.146c-1.96-.007-3.505 1.517-3.522 3.479-.017 1.954 1.515 3.535 3.458 3.568 1.943.035 3.609-1.608 3.594-3.544-.016-1.94-1.58-3.494-3.53-3.503z"/><path d="m137.44 172.21c-1.945.01-3.509 1.58-3.5 3.516.008 1.94 1.577 3.521 3.504 3.532 1.969.012 3.546-1.59 3.525-3.581-.02-1.963-1.56-3.475-3.529-3.467z"/><path d="m121.424 179.247c-1.963-.001-3.495 1.525-3.503 3.495-.009 1.96 1.522 3.524 3.468 3.542 1.978.017 3.577-1.577 3.562-3.552-.015-1.95-1.568-3.485-3.527-3.485z"/><path d="m142.488 278.476c-1.939-.004-3.507 1.526-3.545 3.462-.039 1.928 1.588 3.581 3.53 3.585 1.964.005 3.538-1.592 3.519-3.57-.016-1.956-1.546-3.474-3.504-3.477z"/><path d="m121.136 278.411c-1.96-.006-3.501 1.519-3.514 3.485-.014 1.953 1.518 3.532 3.458 3.564 1.953.034 3.579-1.583 3.572-3.551-.006-1.942-1.562-3.491-3.516-3.498z"/><path d="m260.025 264.667c-1.99-.026-3.601 1.552-3.591 3.517.009 1.921 1.601 3.517 3.52 3.53 1.93.014 3.506-1.554 3.521-3.501.015-1.975-1.487-3.52-3.45-3.546z"/><path d="m212.068 229.086c-1.978-.024-3.553 1.558-3.545 3.556.012 1.968 1.539 3.479 3.517 3.477 1.954-.002 3.524-1.557 3.526-3.491.004-1.929-1.564-3.517-3.498-3.542z"/><path d="m249.31 264.636c-1.952-.009-3.526 1.526-3.559 3.469-.03 1.935 1.626 3.595 3.565 3.577 1.938-.019 3.489-1.591 3.487-3.541-.001-1.967-1.527-3.498-3.493-3.505z"/><path d="m132.002 235.92c-1.913-.051-3.526 1.495-3.594 3.444-.069 1.922 1.464 3.539 3.414 3.602 1.952.062 3.546-1.419 3.633-3.379.087-1.952-1.48-3.616-3.453-3.667z"/><path d="m116.038 214.629c-1.975-.03-3.57 1.553-3.565 3.54.004 1.963 1.533 3.491 3.502 3.498 1.948.006 3.522-1.538 3.55-3.479.025-1.906-1.565-3.529-3.487-3.559z"/><path d="m254.728 257.576c-2.013-.027-3.604 1.511-3.611 3.489-.006 1.926 1.568 3.517 3.5 3.54 1.943.023 3.513-1.52 3.534-3.472.023-1.996-1.455-3.529-3.423-3.557z"/><path d="m222.652 271.644c-1.985-.028-3.533 1.444-3.583 3.409-.051 1.984 1.509 3.607 3.481 3.624 1.924.015 3.53-1.55 3.569-3.478.041-1.916-1.531-3.53-3.467-3.555z"/><path d="m222.766 214.951c-1.976-.008-3.551 1.59-3.527 3.579.026 1.964 1.565 3.466 3.542 3.458 1.941-.007 3.517-1.586 3.511-3.517-.006-1.919-1.603-3.512-3.526-3.52z"/><path d="m164.197 151.051c-1.964.01-3.506 1.552-3.503 3.502.003 1.938 1.566 3.512 3.504 3.528 1.974.018 3.542-1.569 3.529-3.572-.012-1.961-1.549-3.468-3.53-3.458z"/><path d="m142.379 335.127c-1.952-.043-3.604 1.571-3.608 3.521-.003 1.931 1.566 3.499 3.514 3.512 1.973.012 3.513-1.495 3.537-3.46.026-1.956-1.493-3.529-3.443-3.573z"/><path d="m275.919 285.963c-1.948-.001-3.515 1.548-3.527 3.49-.013 1.964 1.604 3.57 3.571 3.548 1.938-.021 3.482-1.601 3.472-3.549-.011-1.959-1.551-3.487-3.516-3.489z"/><path d="m148.258 158.08c-1.988-.035-3.606 1.534-3.61 3.498-.005 1.917 1.581 3.523 3.502 3.549 1.924.025 3.512-1.54 3.533-3.483.022-1.986-1.459-3.529-3.425-3.564z"/><path d="m217.389 236.176c-1.964-.028-3.548 1.566-3.54 3.564.007 1.967 1.538 3.49 3.507 3.485 1.948-.004 3.519-1.562 3.527-3.498.009-1.917-1.572-3.523-3.494-3.551z"/><path d="m227.856 278.733c-1.952.014-3.476 1.565-3.466 3.532.007 1.95 1.568 3.516 3.504 3.517 1.924.001 3.506-1.574 3.525-3.511.02-1.97-1.571-3.551-3.563-3.538z"/><path d="m249.312 278.8c-1.982-.027-3.587 1.531-3.603 3.492-.015 1.932 1.627 3.571 3.562 3.555 1.934-.016 3.479-1.573 3.489-3.516.011-1.957-1.503-3.508-3.448-3.531z"/><path d="m201.338 229.054c-1.944.008-3.487 1.564-3.492 3.524-.004 1.968 1.514 3.497 3.483 3.509 1.965.011 3.529-1.512 3.549-3.459.021-1.976-1.569-3.581-3.54-3.574z"/><path d="m211.969 257.448c-1.982-.012-3.51 1.485-3.529 3.458-.02 1.958 1.495 3.529 3.442 3.571 1.952.042 3.599-1.572 3.6-3.528-.001-1.94-1.556-3.491-3.513-3.501z"/><path d="m126.678 271.355c-2.048-.071-3.626 1.375-3.693 3.381-.065 1.992 1.463 3.612 3.448 3.651 1.925.037 3.532-1.51 3.584-3.45.05-1.9-1.457-3.517-3.339-3.582z"/><path d="m131.878 264.28c-1.955-.015-3.521 1.505-3.556 3.459-.037 1.95 1.592 3.601 3.542 3.587 1.927-.011 3.503-1.594 3.512-3.528.006-1.945-1.542-3.503-3.498-3.518z"/><path d="m126.543 257.19c-1.976-.009-3.505 1.498-3.52 3.468-.015 1.958 1.504 3.524 3.456 3.559 1.955.037 3.593-1.581 3.58-3.538-.014-1.956-1.548-3.48-3.516-3.489z"/><path d="m180.023 243.175c-1.962-.031-3.546 1.482-3.585 3.423-.039 1.995 1.51 3.588 3.496 3.599 1.961.01 3.521-1.519 3.54-3.468.02-1.964-1.495-3.523-3.451-3.554z"/><path d="m217.228 264.538c-1.968.014-3.47 1.543-3.466 3.526.005 1.948 1.568 3.521 3.497 3.521 1.918 0 3.518-1.588 3.538-3.509.021-1.962-1.584-3.552-3.569-3.538z"/><path d="m270.685 264.699c-1.956-.018-3.531 1.507-3.563 3.448-.032 1.966 1.568 3.599 3.526 3.599 1.931.001 3.492-1.568 3.506-3.517.011-1.971-1.504-3.511-3.469-3.53z"/><path d="m163.986 236.016c-1.953-.018-3.568 1.612-3.549 3.578.021 1.941 1.595 3.48 3.547 3.472 1.965-.011 3.487-1.545 3.487-3.514 0-1.948-1.548-3.521-3.485-3.536z"/><path d="m147.622 342.216c-1.925.012-3.518 1.597-3.529 3.518-.012 1.934 1.549 3.507 3.496 3.529 1.972.022 3.516-1.485 3.538-3.451.023-2.003-1.538-3.604-3.505-3.596z"/><path d="m132.22 150.955c-1.96-.013-3.521 1.501-3.558 3.451-.037 1.956 1.579 3.589 3.542 3.579 1.941-.012 3.496-1.571 3.507-3.518.01-1.95-1.529-3.498-3.491-3.512z"/><path d="m169.317 243.142c-1.983-.017-3.579 1.566-3.565 3.539.014 1.938 1.586 3.488 3.535 3.483 1.963-.005 3.5-1.538 3.508-3.498.008-1.961-1.517-3.505-3.478-3.524z"/><path d="m233.322 271.676c-1.984-.025-3.527 1.448-3.579 3.416-.051 1.978 1.515 3.601 3.49 3.616 1.926.016 3.527-1.554 3.553-3.483.025-1.939-1.523-3.526-3.464-3.549z"/><path d="m238.614 264.602c-1.952 0-3.511 1.542-3.526 3.491-.017 1.92 1.557 3.526 3.485 3.557 1.948.031 3.581-1.599 3.563-3.559-.015-1.959-1.56-3.488-3.522-3.489z"/><path d="m132.177 165.12c-1.961-.012-3.519 1.5-3.558 3.454-.037 1.953 1.578 3.587 3.542 3.579 1.935-.007 3.503-1.58 3.512-3.521.008-1.945-1.541-3.501-3.496-3.512z"/><path d="m265.395 257.608c-2.01-.024-3.599 1.523-3.598 3.5.002 1.928 1.573 3.511 3.507 3.529 1.938.02 3.516-1.536 3.533-3.483.019-1.98-1.48-3.522-3.442-3.546z"/><path d="m190.81 200.688c-1.934-.025-3.523 1.513-3.557 3.439-.035 2.001 1.487 3.585 3.465 3.606 1.944.019 3.526-1.502 3.564-3.429.041-1.975-1.51-3.591-3.472-3.616z"/><path d="m276.029 257.641c-1.961-.01-3.524 1.511-3.553 3.452-.026 1.962 1.576 3.584 3.536 3.578 1.941-.007 3.431-1.566 3.526-3.509.092-1.856-1.981-3.68-3.509-3.521z"/><path d="m137.364 228.861c-1.963-.045-3.592 1.55-3.594 3.52-.004 1.951 1.536 3.499 3.495 3.513 1.979.014 3.511-1.485 3.535-3.456.023-1.965-1.482-3.531-3.436-3.577z"/><path d="m142.378 320.951c-1.941-.017-3.596 1.645-3.563 3.575.033 1.943 1.604 3.477 3.556 3.471 1.963-.006 3.495-1.542 3.497-3.505-.001-1.95-1.555-3.526-3.49-3.541z"/><path d="m126.675 214.662c-1.975-.012-3.55 1.588-3.523 3.578.028 1.971 1.557 3.466 3.539 3.459 1.941-.006 3.505-1.578 3.499-3.517-.006-1.935-1.578-3.508-3.515-3.52z"/><path d="m132 221.75c-1.951-.014-3.583 1.629-3.551 3.579.031 1.955 1.583 3.473 3.547 3.467 1.951-.004 3.513-1.566 3.506-3.506s-1.574-3.524-3.502-3.54z"/><path d="m158.574 257.286c-1.961-.004-3.523 1.522-3.545 3.465-.022 1.956 1.604 3.583 3.561 3.563 1.946-.018 3.483-1.578 3.481-3.535-.002-1.971-1.523-3.49-3.497-3.493z"/><path d="m163.919 264.378c-1.956-.019-3.533 1.505-3.564 3.446-.034 1.965 1.569 3.6 3.525 3.6 1.931 0 3.494-1.569 3.505-3.518.011-1.97-1.501-3.511-3.466-3.528z"/><path d="m147.943 257.254c-2.008-.021-3.602 1.532-3.595 3.505.009 1.929 1.589 3.513 3.516 3.522 1.95.011 3.503-1.529 3.52-3.488.015-1.993-1.467-3.519-3.441-3.539z"/><path d="m142.637 221.783c-1.914.013-3.52 1.622-3.524 3.531-.003 1.929 1.568 3.501 3.512 3.515 1.973.014 3.514-1.495 3.54-3.46.025-1.983-1.564-3.598-3.528-3.586z"/><path d="m238.551 278.766c-1.947.007-3.505 1.57-3.507 3.515-.002 1.919 1.588 3.522 3.509 3.533 1.959.014 3.572-1.617 3.542-3.579-.032-1.958-1.584-3.477-3.544-3.469z"/><path d="m131.872 278.444c-1.994-.026-3.595 1.537-3.595 3.513.001 1.927 1.583 3.523 3.507 3.536 1.928.012 3.518-1.554 3.549-3.492.032-1.935-1.521-3.531-3.461-3.557z"/><path d="m163.948 250.202c-1.944-.014-3.525 1.528-3.552 3.467-.027 1.967 1.578 3.592 3.54 3.583 1.938-.009 3.487-1.573 3.492-3.525.005-1.964-1.52-3.51-3.48-3.525z"/><path d="m148.029 228.893c-1.954-.038-3.602 1.581-3.594 3.531.006 1.936 1.572 3.496 3.516 3.501 1.982.007 3.503-1.492 3.518-3.467.015-1.97-1.487-3.526-3.44-3.565z"/><path d="m169.095 313.952c-1.955-.015-3.563 1.592-3.557 3.546.01 1.933 1.562 3.481 3.502 3.494 1.961.014 3.509-1.49 3.54-3.44.035-1.975-1.525-3.585-3.485-3.6z"/><path d="m233.333 257.512c-1.974-.017-3.518 1.483-3.548 3.448-.031 1.98 1.555 3.591 3.524 3.58 1.937-.011 3.515-1.588 3.518-3.516.003-1.951-1.534-3.496-3.494-3.512z"/><path d="m222.749 229.119c-1.966-.028-3.564 1.57-3.553 3.552.012 1.965 1.54 3.478 3.517 3.48 1.946.003 3.523-1.553 3.536-3.488.013-1.913-1.57-3.517-3.5-3.544z"/><path d="m174.467 292.733c-1.935-.002-3.501 1.544-3.52 3.477-.018 1.967 1.567 3.574 3.523 3.571 1.936-.003 3.492-1.55 3.509-3.487.017-1.993-1.53-3.56-3.512-3.561z"/><path d="m185.266 292.768c-1.995-.049-3.6 1.468-3.637 3.44-.037 1.974 1.521 3.588 3.483 3.605 1.928.019 3.52-1.527 3.555-3.452.037-1.942-1.48-3.546-3.401-3.593z"/><path d="m174.764 193.563c-1.93 0-3.496 1.553-3.517 3.484-.02 1.937 1.518 3.524 3.44 3.556 1.993.032 3.575-1.499 3.591-3.482.017-1.988-1.533-3.558-3.514-3.558z"/><path d="m281.23 293.055c-1.935 0-3.499 1.549-3.514 3.482-.018 1.968 1.568 3.57 3.524 3.566 1.935-.004 3.492-1.556 3.506-3.492.016-1.991-1.532-3.557-3.516-3.556z"/><path d="m291.967 293.088c-1.984-.024-3.564 1.527-3.572 3.507-.006 1.935 1.539 3.513 3.466 3.54 1.963.026 3.569-1.552 3.577-3.518.005-1.934-1.54-3.507-3.471-3.529z"/><path d="m153.27 235.984c-1.922.012-3.509 1.606-3.514 3.531-.007 1.93 1.563 3.507 3.505 3.52 1.966.012 3.51-1.503 3.531-3.468.023-1.987-1.56-3.597-3.522-3.583z"/><path d="m142.634 235.951c-1.911-.015-3.53 1.569-3.565 3.489-.035 1.951 1.583 3.568 3.558 3.562 1.961-.008 3.493-1.549 3.496-3.511 0-1.949-1.552-3.522-3.489-3.54z"/><path d="m243.956 271.708c-1.967-.01-3.523 1.507-3.547 3.458-.025 1.972 1.576 3.585 3.543 3.575 1.945-.011 3.483-1.565 3.487-3.527.003-1.972-1.511-3.496-3.483-3.506z"/><path d="m115.913 228.796c-1.942.018-3.488 1.585-3.483 3.535.003 1.969 1.524 3.489 3.5 3.498 1.949.01 3.525-1.53 3.552-3.472.026-1.941-1.613-3.579-3.569-3.561z"/><path d="m228.118 222.041c-1.96-.032-3.562 1.565-3.557 3.551.003 1.967 1.529 3.49 3.499 3.494 1.959.004 3.516-1.529 3.53-3.479.014-1.934-1.541-3.534-3.472-3.566z"/><path d="m121.33 221.718c-1.964-.017-3.553 1.589-3.537 3.572.015 1.967 1.547 3.479 3.522 3.475 1.954-.004 3.507-1.555 3.507-3.502.001-1.936-1.567-3.527-3.492-3.545z"/><path d="m238.762 236.241c-1.911-.042-3.529 1.515-3.588 3.453-.059 1.927 1.474 3.536 3.423 3.594 1.956.06 3.544-1.428 3.62-3.387.077-1.965-1.482-3.615-3.455-3.66z"/><path d="m137.042 328.017c-1.919-.034-3.517 1.52-3.57 3.468-.054 1.934 1.488 3.539 3.434 3.57 1.997.032 3.544-1.427 3.595-3.391.05-1.992-1.486-3.613-3.459-3.647z"/><path d="m228.038 236.209c-1.926-.011-3.501 1.553-3.521 3.5-.02 1.969 1.486 3.519 3.451 3.549 1.989.03 3.586-1.541 3.579-3.521-.004-1.932-1.58-3.517-3.509-3.528z"/><path d="m126.82 158.015c-1.966.004-3.492 1.531-3.499 3.5-.005 1.949 1.542 3.526 3.479 3.546 1.945.022 3.589-1.629 3.557-3.57-.031-1.957-1.58-3.48-3.537-3.476z"/><path d="m121.447 165.087c-1.967.007-3.483 1.533-3.483 3.508 0 1.955 1.542 3.512 3.489 3.525 1.935.014 3.514-1.542 3.542-3.486.027-1.982-1.545-3.553-3.548-3.547z"/><path d="m142.867 165.151c-1.957-.017-3.529 1.493-3.583 3.44-.054 1.932 1.58 3.591 3.539 3.594 1.939.002 3.502-1.557 3.513-3.505.012-1.97-1.505-3.511-3.469-3.529z"/><path d="m126.968 172.184c-2.03-.075-3.622 1.391-3.685 3.394-.061 1.99 1.475 3.613 3.456 3.648 1.916.035 3.528-1.525 3.578-3.463.05-1.895-1.46-3.509-3.349-3.579z"/><path d="m137.405 214.694c-1.936-.038-3.532 1.491-3.592 3.437-.059 1.937 1.478 3.557 3.41 3.598 1.993.042 3.555-1.416 3.618-3.375.063-2.001-1.458-3.622-3.436-3.66z"/><path d="m142.611 250.139c-1.972-.026-3.605 1.585-3.583 3.538.021 1.922 1.617 3.507 3.538 3.511 1.938.003 3.501-1.558 3.514-3.509.011-1.963-1.509-3.514-3.469-3.54z"/><path d="m137.217 271.385c-1.971-.019-3.531 1.479-3.576 3.432-.044 1.96 1.552 3.596 3.516 3.602 1.943.006 3.498-1.543 3.515-3.5.016-1.976-1.488-3.514-3.455-3.534z"/><path d="m249.343 250.46c-1.941-.003-3.525 1.55-3.548 3.487-.025 1.943 1.628 3.588 3.573 3.562 1.948-.026 3.485-1.592 3.479-3.544-.008-1.962-1.548-3.502-3.504-3.505z"/><path d="m142.95 136.811c-1.944-.021-3.535 1.51-3.581 3.449-.049 1.946 1.563 3.573 3.541 3.573 1.966 0 3.501-1.527 3.512-3.491.009-1.966-1.508-3.509-3.472-3.531z"/><path d="m185.153 306.921c-1.968-.024-3.563 1.551-3.567 3.52-.007 1.942 1.531 3.503 3.468 3.526 1.947.021 3.529-1.494 3.57-3.424.042-1.974-1.515-3.597-3.471-3.622z"/><path d="m190.751 186.533c-1.935.02-3.459 1.577-3.457 3.53.005 1.939 1.549 3.5 3.481 3.516 1.96.018 3.555-1.572 3.552-3.541-.003-1.967-1.592-3.525-3.576-3.505z"/><path d="m148.328 129.718c-1.932-.05-3.596 1.588-3.594 3.541.001 1.932 1.571 3.5 3.516 3.511 1.965.013 3.503-1.509 3.518-3.477.015-1.967-1.484-3.525-3.44-3.575z"/><path d="m158.986 129.751c-1.937-.033-3.588 1.611-3.572 3.559.014 1.941 1.58 3.49 3.532 3.492 1.957.002 3.5-1.535 3.509-3.497.008-1.954-1.521-3.522-3.469-3.554z"/><path d="m190.44 299.862c-1.94.008-3.479 1.553-3.486 3.502-.009 1.954 1.512 3.514 3.448 3.538 1.983.025 3.572-1.528 3.583-3.502.011-1.969-1.568-3.545-3.545-3.538z"/><path d="m243.999 257.544c-1.966-.013-3.52 1.5-3.548 3.456-.028 1.965 1.579 3.587 3.542 3.573 1.95-.014 3.483-1.564 3.488-3.524.006-1.973-1.503-3.493-3.482-3.505z"/><path d="m137.203 257.221c-1.959-.001-3.517 1.541-3.519 3.485-.002 1.943 1.545 3.518 3.485 3.544 1.975.028 3.555-1.556 3.545-3.553-.009-1.973-1.526-3.475-3.511-3.476z"/><path d="m206.692 236.144c-1.932-.015-3.509 1.546-3.528 3.496-.017 1.972 1.485 3.521 3.447 3.554 1.986.033 3.595-1.541 3.592-3.516-.005-1.926-1.585-3.517-3.511-3.534z"/><path d="m164.301 136.876c-1.958-.019-3.534 1.508-3.562 3.451-.029 1.984 1.539 3.573 3.528 3.57 1.968-.001 3.497-1.526 3.504-3.493.006-1.969-1.509-3.509-3.47-3.528z"/><path d="m297.233 300.185c-1.979-.003-3.524 1.566-3.513 3.562.012 1.941 1.562 3.477 3.51 3.477 1.938.001 3.504-1.542 3.523-3.475.02-1.973-1.548-3.561-3.52-3.564z"/><path d="m180.088 200.656c-1.925-.003-3.502 1.559-3.523 3.483-.02 1.978 1.542 3.561 3.52 3.562 1.943.002 3.5-1.535 3.521-3.474.018-1.977-1.549-3.569-3.518-3.571z"/><path d="m148.259 143.906c-1.941-.019-3.529 1.523-3.567 3.46-.039 1.944 1.592 3.596 3.541 3.589 1.943-.007 3.486-1.562 3.492-3.521.007-1.973-1.503-3.511-3.466-3.528z"/><path d="m126.584 228.828c-1.945.022-3.478 1.583-3.475 3.54.004 1.969 1.525 3.486 3.5 3.493 1.955.006 3.511-1.521 3.535-3.476.026-1.956-1.597-3.578-3.56-3.557z"/><path d="m233.431 229.151c-1.965-.032-3.568 1.562-3.562 3.545.008 1.961 1.54 3.483 3.512 3.487 1.956.005 3.507-1.524 3.53-3.481.027-1.92-1.542-3.519-3.48-3.551z"/><path d="m217.264 250.364c-1.965.026-3.465 1.562-3.458 3.539.006 1.951 1.57 3.52 3.502 3.512 1.929-.008 3.519-1.587 3.533-3.512.013-1.962-1.608-3.567-3.577-3.539z"/><path d="m260.078 250.493c-1.976-.038-3.602 1.549-3.602 3.513 0 1.924 1.581 3.518 3.509 3.539 1.934.019 3.512-1.539 3.533-3.487.022-1.972-1.481-3.529-3.44-3.565z"/><path d="m153.3 250.171c-1.978-.03-3.594 1.558-3.588 3.525.007 1.924 1.595 3.515 3.519 3.524 1.938.01 3.503-1.543 3.521-3.498.018-1.967-1.494-3.522-3.452-3.551z"/><path d="m201.272 243.239c-1.962.017-3.476 1.558-3.469 3.529.006 1.96 1.541 3.493 3.506 3.493 1.954.002 3.516-1.542 3.527-3.489.012-1.983-1.569-3.552-3.564-3.533z"/><path d="m121.283 235.887c-1.961-.019-3.553 1.591-3.533 3.577.02 1.961 1.564 3.484 3.527 3.472 1.954-.011 3.505-1.565 3.504-3.511-.002-1.938-1.567-3.519-3.498-3.538z"/><path d="m180.093 186.5c-1.928.011-3.481 1.575-3.485 3.512-.006 1.929 1.547 3.51 3.472 3.534 1.965.026 3.564-1.552 3.567-3.521.003-1.979-1.568-3.537-3.554-3.525z"/><path d="m228.033 250.396c-1.955-.032-3.522 1.486-3.558 3.446-.034 1.99 1.535 3.606 3.5 3.604 1.935-.002 3.512-1.569 3.53-3.504.018-1.942-1.522-3.515-3.472-3.546z"/><path d="m206.647 250.331c-1.962-.01-3.508 1.517-3.525 3.478-.018 1.957 1.501 3.53 3.446 3.571 1.948.042 3.596-1.579 3.591-3.534-.003-1.941-1.566-3.506-3.512-3.515z"/><path d="m137.548 143.872c-1.945.001-3.512 1.557-3.522 3.498-.013 1.964 1.623 3.592 3.568 3.555 1.95-.037 3.472-1.603 3.463-3.557-.01-1.963-1.55-3.497-3.509-3.496z"/><path d="m222.666 243.303c-1.963-.002-3.501 1.526-3.512 3.49-.012 1.963 1.506 3.508 3.471 3.532 1.976.023 3.604-1.583 3.58-3.534-.021-1.935-1.596-3.486-3.539-3.488z"/><path d="m121.174 250.074c-1.961.025-3.477 1.572-3.466 3.537.01 1.951 1.578 3.521 3.506 3.513 1.937-.007 3.51-1.575 3.522-3.511.016-1.977-1.583-3.565-3.562-3.539z"/><path d="m201.11 328.211c-1.954-.036-3.557 1.556-3.563 3.537-.005 1.858 1.478 3.466 3.222 3.493 2.178.035 3.796-1.439 3.811-3.469.012-1.93-1.541-3.526-3.47-3.561z"/><path d="m158.978 143.938c-1.943-.042-3.546 1.478-3.605 3.42-.061 1.951 1.526 3.597 3.498 3.629 1.891.03 3.482-1.497 3.539-3.393.06-2.016-1.437-3.612-3.432-3.656z"/><path d="m115.911 242.981c-1.961-.011-3.505 1.514-3.525 3.477-.017 1.963 1.495 3.514 3.458 3.544 1.976.03 3.607-1.567 3.594-3.521-.013-1.932-1.582-3.49-3.527-3.5z"/><path d="m142.9 150.987c-1.958-.011-3.534 1.508-3.574 3.447-.041 1.942 1.59 3.59 3.546 3.583 1.945-.006 3.498-1.564 3.505-3.514.008-1.97-1.509-3.503-3.477-3.516z"/><path d="m147.96 243.078c-1.954-.017-3.531 1.512-3.568 3.453-.036 1.959 1.564 3.57 3.544 3.568 1.966-.002 3.486-1.525 3.49-3.5.007-1.98-1.492-3.504-3.466-3.521z"/><path d="m286.556 300.154c-1.934-.005-3.503 1.542-3.522 3.474-.022 1.973 1.542 3.557 3.519 3.564 1.936.007 3.501-1.538 3.52-3.475.02-1.978-1.542-3.561-3.517-3.563z"/><path d="m179.812 299.83c-1.972-.013-3.551 1.562-3.547 3.539.005 1.929 1.559 3.484 3.497 3.502 1.938.015 3.512-1.519 3.543-3.452.031-1.98-1.521-3.576-3.493-3.589z"/><path d="m244.028 243.367c-1.959-.003-3.513 1.525-3.533 3.477-.022 1.978 1.567 3.564 3.555 3.545 1.967-.018 3.479-1.55 3.475-3.521-.004-1.968-1.532-3.497-3.497-3.501z"/><path d="m254.755 243.4c-1.99-.031-3.6 1.542-3.596 3.514.005 1.936 1.567 3.495 3.516 3.509 1.968.01 3.504-1.504 3.519-3.473.016-1.987-1.468-3.518-3.439-3.55z"/><path d="m212.014 243.272c-1.965-.02-3.512 1.498-3.532 3.464-.021 1.972 1.475 3.517 3.442 3.556 1.979.038 3.604-1.545 3.6-3.51-.003-1.938-1.558-3.493-3.51-3.51z"/><path d="m115.807 257.157c-1.962.015-3.478 1.558-3.463 3.529.014 1.947 1.584 3.509 3.52 3.5 1.929-.01 3.522-1.594 3.531-3.512.01-1.961-1.593-3.532-3.588-3.517z"/><path d="m185.419 193.596c-1.929.007-3.484 1.569-3.492 3.505-.008 1.942 1.528 3.511 3.461 3.535 1.979.023 3.573-1.534 3.581-3.503s-1.573-3.545-3.55-3.537z"/><path d="m222.589 257.479c-1.966.01-3.484 1.543-3.479 3.515.007 1.948 1.566 3.513 3.506 3.514 1.928.001 3.524-1.573 3.547-3.497.023-1.955-1.582-3.541-3.574-3.532z"/><path d="m153.59 136.843c-1.947-.002-3.518 1.545-3.536 3.485-.019 1.97 1.584 3.558 3.568 3.537 1.968-.021 3.477-1.555 3.471-3.528-.007-1.967-1.533-3.491-3.503-3.494z"/><path d="m137.286 243.046c-1.958-.018-3.527 1.503-3.56 3.453-.034 1.976 1.547 3.572 3.531 3.568 1.971-.004 3.492-1.526 3.499-3.498.007-1.971-1.505-3.506-3.47-3.523z"/><path d="m158.6 243.109c-1.951.002-3.515 1.551-3.528 3.492-.013 1.967 1.599 3.555 3.578 3.53 1.964-.025 3.476-1.567 3.465-3.536-.012-1.963-1.548-3.486-3.515-3.486z"/><path d="m249.407 236.265c-1.906.015-3.521 1.559-3.57 3.483-.052 1.939 1.562 3.57 3.535 3.575 1.956.005 3.5-1.523 3.517-3.48.201-1.851-2.002-3.589-3.482-3.578z"/><path d="m238.716 250.429c-1.938-.039-3.528 1.486-3.585 3.437-.058 1.949 1.546 3.597 3.512 3.611 1.927.014 3.512-1.552 3.535-3.496.024-1.947-1.502-3.513-3.462-3.552z"/><path d="m226.782 321.361c-1.506.423-2.529 1.805-2.52 3.491.01.113.019.314.047.512.291 1.948 2.132 3.168 4.021 2.666.331-.089.68-.146.986-.289.378-.176.79-.364 1.067-.658 1.072-1.136 1.2-2.894.363-4.22-.834-1.329-2.429-1.933-3.964-1.502z"/><path d="m131.914 250.106c-1.948-.011-3.518 1.527-3.551 3.475-.031 1.955 1.596 3.593 3.551 3.575 1.937-.019 3.501-1.596 3.501-3.533-.003-1.951-1.551-3.506-3.501-3.517z"/><path d="m126.548 243.013c-1.967.015-3.484 1.547-3.481 3.516.002 1.965 1.531 3.5 3.494 3.504 1.982.006 3.579-1.6 3.542-3.559-.037-1.953-1.603-3.477-3.555-3.461z"/><path d="m233.428 243.336c-1.996-.046-3.585 1.494-3.6 3.488-.016 1.957 1.514 3.512 3.473 3.533 1.953.02 3.521-1.495 3.569-3.448.046-1.929-1.497-3.53-3.442-3.573z"/><path d="m110.754 221.688c-1.796-.083-3.794 1.538-3.417 3.081.042.507.121.938.102 1.365-.035.81.383 1.36.962 1.825.967.779 2.072.969 3.247.629 1.615-.469 2.682-2.08 2.494-3.689-.209-1.792-1.621-3.128-3.388-3.211z"/><path d="m254.955 314.239c-1.634-.25-3.332.822-3.832 2.419-.533 1.705.255 3.516 1.852 4.27.513.242 1.014.346 1.575.148.485-.171.992-.292 1.498-.393.643-.126 1.072-.507 1.405-1.041.357-.576.553-1.196.527-1.809.01-1.873-1.234-3.319-3.025-3.594z"/><path d="m126.898 143.781c-.471.11-.96.172-1.409.343-.76.289-2.146 2.544-2.122 3.365.059 1.9 1.631 3.418 3.525 3.404 1.928-.017 3.505-1.599 3.509-3.524.006-1.939-1.544-3.505-3.503-3.588z"/><path d="m133.412 136.969c-1.32-.466-2.481-.158-3.383.898-.262.307-.502.631-.786.915-.418.421-.531.942-.535 1.497-.015 1.903 1.49 3.454 3.404 3.52 1.725.059 3.244-1.124 3.561-2.767.344-1.793-.593-3.476-2.261-4.063z"/><path d="m281.728 307.244c-1.687-.273-3.374.781-3.89 2.427-.52 1.667.233 3.449 1.777 4.224.454.227.904.319 1.407.165.603-.186 1.208-.376 1.826-.485.697-.122 1.15-.528 1.415-1.125.238-.541.374-1.125.555-1.689-.118-1.78-1.366-3.238-3.09-3.517z"/><path d="m306.705 300.417c-1.391.498-2.304 1.811-2.306 3.74.027.993.667 2.039 1.904 2.723.392.217.797.274 1.243.142.742-.222 1.488-.442 2.246-.598.532-.108.86-.413 1.125-.847.77-1.265.67-2.868-.252-4.038-.928-1.177-2.541-1.633-3.96-1.122z"/><path d="m112.697 193.979c-1.269-.864-2.962-.806-4.171.141-.351.274-.582.576-.606 1.066-.05.97-.163 1.938-.277 2.904-.043.372.043.669.271.954.707.881 1.623 1.331 2.409 1.362 1.894.021 3.271-.955 3.74-2.408.483-1.497-.076-3.141-1.366-4.019z"/><path d="m314.689 293.864c-.365-.527-.806-.8-1.35-.713-1.944.007-3.471 1.442-3.572 3.264-.109 1.951 1.232 3.563 3.133 3.769 1.845.199 3.539-1.107 3.855-2.949.059-.344-.021-.611-.223-.877-.622-.826-1.256-1.645-1.843-2.494z"/><path d="m133.036 321.206c-1.568-.657-3.381-.099-4.311 1.316-.271.412-.354.793-.162 1.283.396 1.012.75 2.042 1.074 3.08.165.527.477.825.999.93.333.069.67.126 1.006.189 1.701-.027 3.164-1.189 3.475-2.797.334-1.727-.504-3.34-2.081-4.001z"/><path d="m308.668 286.6c-.427-.54-.911-.615-1.511-.473-1.607.38-2.712 1.777-2.715 3.436-.002 1.825 1.316 3.308 3.128 3.52 1.708.198 3.328-.926 3.783-2.594.11-.4.067-.701-.216-1.017-.838-.942-1.686-1.882-2.469-2.872z"/><path d="m160.011 116.248c-1.261.609-2.539 1.189-3.83 1.735-.571.243-.747.623-.729 1.205.056 1.937 1.61 3.45 3.564 3.442 1.953-.008 3.475-1.536 3.484-3.499.006-1.064-.409-1.936-1.181-2.665-.399-.378-.782-.472-1.308-.218z"/><path d="m138.854 129.927c-.447-.175-.795-.16-1.165.195-1.013.973-2.033 1.936-3.093 2.856-.504.438-.525.883-.319 1.448.591 1.622 2.214 2.548 3.987 2.252 1.611-.269 2.815-1.717 2.833-3.408.017-1.514-.857-2.798-2.243-3.343z"/><path d="m120.825 151.016c-.761 1.479-1.528 2.99-2.318 4.486-.193.368-.092.648.116.953.888 1.289 2.634 1.826 4.136 1.261 1.694-.637 2.608-2.398 2.163-4.191-.401-1.612-2.079-2.921-4.097-2.509z"/><path d="m171.104 116.348c-.103-.401-.312-.562-.695-.637-1.4-.272-2.574.135-3.465 1.221-.919 1.121-1.079 2.403-.459 3.716.619 1.313 1.704 1.976 3.156 2.016.939.023 1.738-.313 2.435-.931.285-.252.373-.499.254-.901-.443-1.486-.844-2.983-1.226-4.484z"/><path d="m180.983 144.107c-.216-.036-.413-.091-.61-.097-.229-.008-.46.013-.687.044-1.496.205-2.721 1.456-2.926 2.983-.215 1.601.672 3.134 2.166 3.742 1.417.579 3.137.143 4.059-1.021.206-.264.324-.498.158-.856-.734-1.589-1.441-3.191-2.16-4.795z"/><path d="m109.026 236.222c-.687.338-.754.425-.674 1.197.149 1.457.325 2.912.486 4.367.083.746.185.882.902 1.03.279.057.57.068.745.089 1.583-.006 2.862-.886 3.379-2.247.522-1.372.169-2.877-.903-3.868-1.056-.973-2.644-1.203-3.935-.568z"/><path d="m299.135 282.858c.151 1.632 1.469 2.937 3.161 3.13 1.573.18 3.083-.794 3.622-2.409-1.416-1.467-2.863-2.966-4.279-4.435-1.713.524-2.665 1.978-2.504 3.714z"/><path d="m240.642 233.556c.357 1.549 1.753 2.646 3.387 2.659 1.619.015 2.939-.957 3.335-2.508-1.57-1.369-3.166-2.757-4.774-4.159-1.626.834-2.329 2.349-1.948 4.008z"/><path d="m113.918 271.899c.481 2.141.954 4.255 1.42 6.332 1.474.297 2.93-.459 3.615-1.811.715-1.414.418-3.091-.74-4.174-1.15-1.078-2.809-1.239-4.295-.347z"/><path d="m268.854 251.068c-1.455.994-2 2.486-1.534 4.022.439 1.45 1.831 2.478 3.36 2.486 1.52.007 2.853-.969 3.284-2.429-.185-.155-.376-.327-.576-.486-1.501-1.191-3.002-2.38-4.534-3.593z"/><path d="m123.193 293.256c-1.148-.886-3.166-.918-4.061.02.576 2.066 1.167 4.185 1.75 6.275 1.592.117 2.944-.758 3.494-2.208.562-1.476.069-3.121-1.183-4.087z"/><path d="m110.393 179.324c-.409 2.13-.825 4.293-1.245 6.471 1.332.832 3.164.416 4.144-.618 1.038-1.096 1.282-2.73.589-4.075-.673-1.305-2.024-2.019-3.488-1.778z"/><path d="m159.551 342.492c-1.388-.521-2.939-.131-3.909.981-.944 1.089-1.119 2.554-.398 3.923 2.146-.564 4.318-1.138 6.519-1.718-.036-1.513-.881-2.687-2.212-3.186z"/><path d="m186.143 335.435c-1.368-.456-2.893-.025-3.816 1.072-.916 1.086-1.082 2.519-.396 3.824 2.14-.571 4.236-1.132 6.334-1.695.078-.021.145-.08.21-.117.088-1.184-.921-2.614-2.332-3.084z"/><path d="m212.561 328.364c-1.488-.357-3.004.255-3.809 1.535-.679 1.081-.718 2.483-.056 3.328 2.136-.566 4.292-1.137 6.499-1.725-.18-1.658-1.158-2.784-2.634-3.138z"/><path d="m239.589 321.437c-1.41-.474-2.954-.029-3.882 1.119-.871 1.078-1.033 2.554-.376 3.609 2.172-.578 4.354-1.158 6.518-1.734-.014-1.345-.95-2.555-2.26-2.994z"/><path d="m266.062 314.38c-1.412-.387-2.63.018-3.57 1.106-.888 1.03-1.104 2.221-.58 3.622 2.253-.596 4.457-1.178 6.76-1.787-.348-1.569-1.17-2.547-2.61-2.941z"/><path d="m293.027 307.444c-1.339-.489-2.809-.076-3.775.955-.756.807-1.267 2.596-.573 3.617 2.188-.582 4.393-1.168 6.668-1.771-.269-1.422-1.044-2.332-2.32-2.801z"/><path d="m294.019 276.585c.489 1.369 1.532 2.141 2.966 2.29 1.203.126 2.225-.292 3.062-1.304-1.721-1.626-3.387-3.198-5.112-4.827-1.103 1.194-1.415 2.449-.916 3.841z"/><path d="m117.252 158.21c-.934 2.1-1.835 4.222-2.571 6.395 1.371.917 3.914.292 4.739-1.787.75-1.896-.185-3.972-2.168-4.608z"/><path d="m182.424 156.2c1.039 2.062 3.537 2.383 4.896 1.419-1.029-2.098-2.046-4.172-3.062-6.245-1.973.9-2.755 3-1.834 4.826z"/><path d="m140.063 128.074c1.002 1.749 3.563 2.06 5.059.866 1.532-1.226 1.81-3.479.498-4.958-1.85 1.363-3.709 2.732-5.557 4.092z"/><path d="m135.521 342.591c.885 2.165 1.748 4.277 2.61 6.386 1.961-.696 2.855-2.799 2.058-4.66-.766-1.789-2.898-2.617-4.668-1.726z"/><path d="m109.949 250.14c.37 2.323.731 4.576 1.104 6.912 1.369-.295 2.279-.988 2.752-2.203.528-1.356.283-2.607-.686-3.675-.818-.904-1.848-1.279-3.17-1.034z"/><path d="m125.319 314.105c.724 2.178 1.449 4.365 2.176 6.556 2.027-.814 2.894-2.827 2.108-4.688-.712-1.692-2.697-2.583-4.284-1.868z"/><path d="m315.617 301.883c-.609.936-.709 1.945-.314 3.068 1.86-.51 3.658-.91 5.484-1.503-.607-1.131-1.162-2.162-1.703-3.17-1.528-.131-2.677.391-3.467 1.605z"/><path d="m236.37 228.218c1.314 1.199 3.299 1.219 4.694-.035-1.711-1.588-3.382-3.139-5.059-4.695-1.162 1.509-.978 3.508.365 4.73z"/><path d="m171.709 127.561c.592 1.492 2.168 2.421 3.542 2.037-.713-2.074-1.423-4.146-2.138-6.227-1.454.801-2.037 2.595-1.404 4.19z"/><path d="m263.3 249.796c1.183.86 2.855.881 3.942.004-1.707-1.347-3.401-2.684-5.121-4.042-.567 1.549-.08 3.122 1.179 4.038z"/><path d="m187.772 163.368c.672 1.271 2.023 1.989 3.535 1.792-1.038-1.94-2.031-3.796-3.04-5.68-.999 1.105-1.169 2.61-.495 3.888z"/><path d="m289.688 270.938c1.047.908 2.498 1.109 3.755.46-1.568-1.384-3.111-2.743-4.73-4.17-.473 1.409-.071 2.799.975 3.71z"/><path d="m231.299 221.32c.882.653 1.847.875 2.881.591-1.404-1.399-2.772-2.761-4.15-4.135-.291 1.445.149 2.712 1.269 3.544z"/><path d="m107.031 215.269c.055 1.891.11 3.771.167 5.691 1.132-.583 1.792-1.941 1.623-3.216-.167-1.246-.897-2.279-1.79-2.475z"/><path d="m107.416 201.164c-.092 1.977-.176 3.793-.261 5.609.078.019.155.039.234.06 1.033-.754 1.553-1.794 1.475-3.075-.061-1.011-.448-1.898-1.448-2.594z"/><path d="m139.365 350.843c-.114.188-.127.438-.231.828 1.9-.501 3.607-.952 5.429-1.433-1.603-1.448-4.156-1.105-5.198.605z"/><path d="m165.775 344.617c1.84-.494 3.583-.96 5.387-1.445-1.739-1.727-4.948-.62-5.387 1.445z"/><path d="m192.534 337.508c1.787-.473 3.509-.928 5.29-1.4-1.631-1.553-4.724-.674-5.29 1.4z"/><path d="m221.137 328.528c-.995.38-1.66 1.08-1.772 1.871 1.671-.444 3.33-.886 4.989-1.326-.992-.838-2.067-.983-3.217-.545z"/><path d="m117.18 285.816c.466 1.798.897 3.467 1.343 5.186 1.448-1.486.687-4.374-1.343-5.186z"/><path d="m132.737 335.354c.663 1.731 1.267 3.307 1.896 4.949 1.094-1.496.333-4.305-1.896-4.949z"/><path d="m246.031 323.319c1.685-.444 3.302-.872 5.082-1.343-1.883-1.275-4.272-.621-5.082 1.343z"/><path d="m167.523 113.168c-1.558.646-3.098 1.284-4.694 1.943 1.739 1.213 4.68-.26 4.694-1.943z"/><path d="m272.765 316.233c1.739-.463 3.312-.882 4.981-1.327-1.838-1.151-3.957-.611-4.981 1.327z"/><path d="m299.586 309.118c1.586-.42 3.113-.824 4.691-1.244-1.494-1.156-3.935-.513-4.691 1.244z"/><path d="m112.353 171.62c1.814-.848 2.54-3.228 1.433-4.59-.478 1.532-.939 3.011-1.433 4.59z"/><path d="m192.781 168.129c-.298 1.943.603 3.46 2.472 4.026-.759-1.632-2.045-3.715-2.472-4.026z"/><path d="m112.51 264.971c.309 1.54.604 3.001.914 4.548 1.051-1.547.636-3.61-.914-4.548z"/><path d="m107.684 229.942c.118 1.425.235 2.818.363 4.349 1.117-1.401.908-3.539-.363-4.349z"/><path d="m151.345 120.503c-1.096.647-2.146 1.269-3.195 1.891 1.572.245 2.981-.634 3.195-1.891z"/><path d="m227.369 214.738c-.954-1.026-1.772-1.904-2.69-2.888.218 1.587 1.181 2.639 2.69 2.888z"/><path d="m123.313 307.71c.363 1.153.695 2.209 1.072 3.413.365-1.438-.023-2.643-1.072-3.413z"/><path d="m108.366 191.34c.496-.68.73-1.419.305-2.235-.102.744-.204 1.49-.305 2.235z"/><path d="m257.435 242.222c.284.226.568.454.854.681.033-.043.065-.085.099-.128-.284-.228-.57-.453-.854-.68-.034.043-.066.084-.099.127z"/><path d="m284.082 263.579c.206.162.412.324.618.485.031-.043.063-.085.095-.128-.203-.164-.408-.327-.611-.49-.035.044-.068.089-.102.133z"/></g><path d="m340.281 77.616c-1.151-.693-12.781 3.395-30.355 10.254-1.404.549-2.842 1.113-4.317 1.693-3.594 1.42-7.398 2.937-11.38 4.534-1.144.456-2.303.923-3.475 1.394-11.177 4.51-23.614 9.614-36.628 15.008l-4.317 1.792c-.878.366-1.756.73-2.638 1.099-1.151.478-2.306.959-3.464 1.445-14.957 6.228-30.411 12.73-45.386 19.066-.515.218-1.025.432-1.537.65-.927.393-1.856.784-2.78 1.174-.23.095-.465.196-.694.293-15.532 6.579-30.422 12.922-43.548 18.532-1.173.5-2.332.996-3.476 1.483-1.162.497-2.425 1.036-3.769 1.606-1.362.583-2.81 1.196-4.316 1.835-7.923 3.353-17.541 7.4-25.838 10.892-5.428 18.077-6.498 38.392-5.042 58.706 6.625-1.981 17.378-5.84 30.704-10.91 1.408-.535 2.851-1.087 4.316-1.651 1.969-.752 3.983-1.53 6.041-2.329 1.302-.507 2.626-1.021 3.965-1.544 12.664-4.939 26.811-10.596 41.475-16.549.54-.217 1.083-.437 1.627-.658.896-.365 1.791-.729 2.69-1.093.429-.175.856-.35 1.284-.524 15.407-6.278 31.249-12.829 46.436-19.178 1.259-.524 2.519-1.049 3.768-1.574.068-.028.132-.058.201-.086 1.378-.578 2.753-1.152 4.116-1.723 14.031-5.894 27.313-11.535 38.942-16.541 1.345-.579 2.664-1.15 3.964-1.709 2.99-1.292 5.854-2.534 8.579-3.723 1.481-.646 2.921-1.277 4.317-1.891 14.696-6.449 24.443-10.943 26.049-12.114 8.103-5.905 13.662-52.115 4.486-57.659z" fill="#453d3a"/><path d="m353.564 163.949c-1.453-.137-28.439 9.15-61.981 20.951-1.651.581-3.32 1.168-4.999 1.76-18.606 6.553-38.882 13.753-57.753 20.478-1.687.598-3.363 1.198-5.025 1.788-36.71 13.092-66.882 23.939-66.882 23.939l2.027 42.769s29.978-9.623 66.676-21.259c1.832-.581 3.677-1.167 5.539-1.759 18.69-5.918 38.775-12.251 57.335-18.038 1.867-.584 3.715-1.16 5.546-1.73 35.379-11.004 63.896-19.597 64.168-18.78 3.97-5.739-.698-49.747-4.651-50.119z" fill="#453d3a"/><path d="m463.68 119.571c-1.896.783-3.842 1.592-5.826 2.416-7.984 3.332-16.531 6.965-24.576 10.512-1.703.749-3.383 1.499-5.031 2.238-16.322 7.321-29.451 13.908-29.595 16.208-.378 6.106-.843 41.239 3.465 42.55 1.703.519 15.868 1.49 33.372 3.363 1.68.182 3.385.369 5.117.569 8.471.96 17.482 2.132 26.099 3.558 1.998.332 3.977.676 5.92 1.033 13.27 2.452 24.993 5.57 31.432 9.539v-.018c-1.666-27.757-6.127-65.286-17.472-101.18-8.987 3.581-18.288 7.304-22.905 9.212z" fill="#453d3a"/><ellipse cx="422.221" cy="259.333" fill="#283031" rx="29.312" ry="21.381" transform="matrix(.003 -1 1 .003 161.6223 680.7747)"/><path d="m424.788 253.444c-2.521-.651-5.504 1.111-5.831 3.693l.092.113c-1.552 1.713-1.493 4.598.021 6.345 1.513 1.747 4.232 2.248 6.338 1.292 2.104-.958 3.495-3.227 3.554-5.537.067-2.601-1.655-5.254-4.174-5.906z" fill="#fff"/><ellipse cx="212.371" cy="326.308" fill="#283031" rx="29.312" ry="21.381" transform="matrix(.003 -1 1 .003 -114.5789 537.6884)"/><g fill="#fff"><path d="m214.938 320.418c-2.52-.652-5.504 1.113-5.83 3.694l.091.114c-1.553 1.715-1.493 4.596.021 6.344 1.514 1.749 4.234 2.249 6.338 1.291 2.106-.958 3.496-3.225 3.556-5.537.066-2.6-1.656-5.253-4.176-5.906z"/><path d="m467.046 226.367c-10.019-2.75-14.909 7.456-11.104 15.561 1.458 3.106 4.376 5.487 7.71 6.293 1.622.392 3.375.417 4.924-.204 1.915-.769 3.333-2.435 4.369-4.218 1.379-2.372 2.226-5.115 2.013-7.85-.341-4.399-3.656-8.414-7.912-9.582z"/><path d="m428.246 134.737 7.242 62.121c1.68.182 3.385.369 5.117.569l-7.328-64.927c-1.703.748-3.382 1.498-5.031 2.237z"/><path d="m457.854 121.987 8.851 78.997 5.92 1.034-8.944-82.446c-1.898.782-3.843 1.592-5.827 2.415z"/><path d="m223.806 208.925 1.821 45.449c1.832-.581 3.677-1.167 5.539-1.759l-2.335-45.478c-1.686.597-3.363 1.197-5.025 1.788z"/><path d="m286.584 186.659 1.917 47.917c1.867-.584 3.715-1.16 5.546-1.73l-2.464-47.947c-1.651.581-3.32 1.169-4.999 1.76z"/><path d="m138.025 218.161c1.408-.535 2.851-1.087 4.316-1.651l.177-58.872c-1.362.583-2.81 1.196-4.316 1.835z"/><path d="m194.004 135.724-.183 60.365c.54-.217 1.083-.437 1.627-.658.896-.365 1.791-.729 2.69-1.093l.183-60.438c-.515.218-1.025.432-1.537.65-.927.392-1.856.783-2.78 1.174z"/><path d="m249.626 173.062 4.317-1.81.183-60.753-4.317 1.791z"/><path d="m305.429 149.279 4.317-1.891.18-59.518c-1.404.549-2.842 1.113-4.317 1.693z"/></g><path d="m279.308 486.19h7.587v183.322h-7.587z" fill="#f2b965" transform="matrix(-.7716 -.6361 .6361 -.7716 133.933 1203.7949)"/><path d="m207.04 660.027c-3.454 4.188-9.836 4.571-13.765.634-3.428-3.433-3.395-9.027-.31-12.769l4.071-4.939c2.283-2.772 1.889-6.871-.882-9.154-2.771-2.285-6.87-1.891-9.154.881l-3.917 4.752c-7.381 8.954-7.209 22.258 1.013 30.445 9.434 9.395 24.707 8.456 32.978-1.578l23.438-28.436-10.035-8.273z" fill="#f3765c"/><path d="m274.599 548.368c3.898-1.063 8.142-1.473 12.166-1.234 5.548.329 10.568 3.298 14.751 6.768 4.192 3.478 8.429 7.596 9.979 12.974 1.19 4.137 1.653 8.703 1.334 13.006 34.262-8.578 46.279 23.702 46.279 23.702l157.566-309.956-274.176 213.835s33.981 5.636 32.101 40.905z" fill="#2b342f"/><ellipse cx="399.727" cy="463.465" fill="#fff" rx="3.005" ry="89.224" transform="matrix(-.8126 -.5828 .5828 -.8126 454.4741 1073.0424)"/><path d="m407.207 403.908c-8.165 8.79-19.393 20.971-32.283 33.912-12.863 12.96-25.024 24.142-34.343 31.576-9.292 7.465-15.67 11.207-15.334 11.867.197.454 7.263-2.379 17.231-9.34 9.977-6.913 22.65-17.883 35.618-30.949 12.996-13.049 23.915-25.639 31.498-34.994 7.589-9.359 11.839-15.506 11.358-15.892-.479-.39-5.579 5.026-13.745 13.82z" fill="#fff"/><path d="m618.3 437.561c-4.678-28.477-9.692-57.852-25.307-82.119-4.814-7.484-10.914-14.612-19.141-17.999-8.232-3.387-18.936-1.996-24.247 5.144-8.545 11.48.895 29.085-5.827 41.72-5.182 9.74-17.978 12.836-24.691 21.59-9.839 12.824-3.02 30.993-2.132 47.131 1.111 20.188-7.753 41.501.356 60.021 6.949 15.869 23.34 23.146 38.642 28.67 16.385 5.913 28.45 15.426 46.957 7.768 11.488-4.754 20.587-14.955 23.998-26.915 3.338-11.704 1.387-24.185-.587-36.194-2.675-16.276-5.347-32.546-8.021-48.817z" fill="#4fa795"/><path d="m736.209 313.069c-.105-18.586-13.996-35.172-31.028-42.616-9.544-4.169-19.865-5.886-30.31-5.974-8.196-.074-16.469.857-24.494 2.392-9.475 1.806-19.062 4.542-26.692 10.438-7.637 5.896-12.984 15.541-11.479 25.066 1.938 12.254 14.422 23.125 10.309 34.829-2.137 6.076-8.264 9.914-11.066 15.71-5.497 11.39 3.269 22.237 8.836 31.465-12.362 11.276-21.571 23.702-16.89 41.831 4.068 15.768 17.334 28.093 32.507 34.014 15.171 5.921 32.03 6.139 48.166 3.943 10.677-1.453 21.429-4.012 30.589-9.686 9.16-5.678 16.593-14.875 18.075-25.547.105-.75.179-1.504.231-2.257.408-5.672-.42-11.458.75-17.025 2.634-12.517 14.844-21.88 15.653-34.646.877-13.891-12.026-25.032-14.172-38.786-1.191-7.65 1.063-15.406 1.015-23.151z" fill="#4fa795"/><path d="m680.796 357.279c-8.538-18.362-12.82-38.518-10.163-58.74 1.512-11.491 5.279-22.943 4.238-34.06-8.196-.074-16.469.857-24.494 2.392-9.475 1.806-19.062 4.542-26.692 10.438-7.637 5.896-12.984 15.541-11.479 25.066 1.938 12.254 14.422 23.125 10.309 34.829-2.137 6.076-8.264 9.914-11.066 15.71-5.497 11.39 3.269 22.237 8.836 31.465-12.362 11.276-21.571 23.702-16.89 41.831 4.068 15.768 17.334 28.093 32.507 34.014 15.171 5.921 32.03 6.139 48.166 3.943 10.677-1.453 21.429-4.012 30.589-9.686 9.16-5.678 16.593-14.875 18.075-25.547.105-.75.179-1.504.231-2.257-3.521-4.816-7.814-9.306-11.882-13.528-15.928-16.535-30.554-34.944-40.285-55.87z" fill="#55a89b" opacity=".3"/><path d="m710.764 379.291-31.865 46.69c-2.674-61.078-4.812-110.033-4.812-110.033l-1.788 75.678-29.661-63.41 27.121 76.313 1.273 44.912-23.251-43.458 19.751 54.728-3.175 219.914c8.397-.709 16.097-1.535 24.504-2.632-1.317-28.911-5.15-142.119-8.581-220.452z" fill="#2b342f"/><path d="m610.958 461.671-33.414 63.176-4.669-86.546-1.604-8.654v90.096l-29.554-75.729 29.554 101.609v128.6c3.076.292 6.157.553 9.243.788l-2.383-124.474z" fill="#2b342f"/></svg>