<svg enable-background="new -0.821 -0.597 228 394" height="394" viewBox="-.821 -.597 228 394" width="228" xmlns="http://www.w3.org/2000/svg"><g fill="#af9269"><path d="m86.956 298.208c-24.477 24.438-48.93 48.896-73.385 73.354-.332.333-.648.682-.968 1.019.894.848 1.351.127 1.861-.385 24.673-24.672 49.346-49.345 74.017-74.019.235-.235.439-.501.658-.752-.09-.128-.179-.257-.269-.386-.643.384-1.4.655-1.914 1.169z"/><path d="m120.643 300.82c-23.843 23.846-47.687 47.689-71.53 71.534-.268.27-.52.557-.823.882 1.06.654 1.571-.103 2.14-.671 23.812-23.812 47.625-47.624 71.436-71.438.27-.27.52-.558.789-.849-.973-.722-1.463-.008-2.012.542z"/><path d="m104.364 298.967c-24.864 24.83-49.711 49.68-74.555 74.528-.3.3-.578.62-.865.932.094.13.186.261.279.391.713-.452 1.539-.79 2.123-1.372 24.709-24.674 49.398-49.371 74.1-74.057.332-.332.775-.555 1.166-.828-.15-.229-.302-.457-.453-.687-.603.36-1.312.612-1.795 1.093z"/><path d="m164.251 311.723c-24.109 24.105-48.217 48.213-72.322 72.322-.305.305-.597.623-.957 1.003.977.7 1.396.016 1.867-.457 24.172-24.167 48.342-48.336 72.51-72.506.242-.243.469-.501.717-.767-.876-.847-1.322-.089-1.815.405z"/><path d="m150.454 307.351c-24.027 24.021-48.051 48.044-72.073 72.069-.323.322-.633.659-.943.984 1.014.846 1.419-.021 1.897-.5 24.029-24.018 48.053-48.042 72.081-72.06.306-.306.688-.537 1.087-.846-1.123-.957-1.552-.144-2.049.353z"/><path d="m136.042 303.594c-23.83 23.831-47.661 47.662-71.49 71.495-.287.286-.549.6-.822.9.1.143.201.284.303.427.514-.299 1.125-.502 1.531-.909 23.877-23.845 47.737-47.706 71.598-71.567.244-.244.473-.503.719-.765-.862-.787-1.325-.092-1.839.419z"/><path d="m177.202 316.868c-23.476 23.469-46.947 46.942-70.423 70.411-.491.491-1.022.941-1.604 1.474.967.767 1.46.208 2.01-.344 23.714-23.725 47.434-47.441 71.15-71.162.26-.261.489-.552.745-.844-.969-.832-1.393-.018-1.878.465z"/><path d="m189.755 322.493c-22.703 22.703-45.406 45.406-68.109 68.111-.273.273-.529.566-.81.868.929.541 1.453.019 2.034-.562 22.635-22.649 45.277-45.288 67.92-67.931.242-.241.471-.496.725-.766-.791-.945-1.26-.22-1.76.28z"/><path d="m67.275 299.781c-21.233 21.196-42.444 42.413-63.659 63.628-.215.216-.521.397-.621.657-.131.337-.094.738-.131 1.12 22.326-22.325 44.479-44.479 66.631-66.631-.03-.065-.061-.131-.091-.197-.716.469-1.536.831-2.129 1.423z"/><path d="m201.606 328.8c-20.953 20.944-41.898 41.893-62.854 62.833-.305.305-.703.517-1.271.926 1.44.596 1.967-.085 2.551-.668 20.791-20.797 41.586-41.59 62.377-62.385.321-.321.617-.668.914-.99-.848-.975-1.261-.173-1.717.284z"/><path d="m212.885 335.706c-18.448 18.438-36.892 36.882-55.333 55.327-.303.302-.584.624-.875.937.082.115.164.231.245.348.692-.428 1.5-.741 2.061-1.301 18.248-18.207 36.474-36.438 54.699-54.668.302-.302.583-.625.874-.938-.815-.976-1.231-.147-1.671.295z"/><path d="m178.843 388.111c.052.098.104.195.157.293.73-.467 1.576-.819 2.177-1.419 14.117-14.073 28.209-28.174 42.305-42.27.186-.185.472-.344.527-.562.09-.346.023-.731.023-1.233-15.226 15.227-30.208 30.209-45.189 45.191z"/><path d="m1.157 347.75c-.477.479-.706 1.201-1.157 1.997 14.765-14.764 29.323-29.322 43.701-43.701-.59.363-1.569.741-2.251 1.421-13.457 13.402-26.885 26.833-40.293 40.283z"/><path d="m207.51 377.494c.026.071.052.144.077.216 1.037-.68 2.217-1.213 3.086-2.064 4.91-4.811 9.764-9.679 14.584-14.58.623-.635.936-1.574 1.391-2.373-.077-.035-.154-.07-.232-.105-6.302 6.301-12.604 12.603-18.906 18.906z"/></g><path d="m68.809 59.202h121.045v230.084h-121.045z" fill="#f3765a" transform="matrix(-.9956 -.0939 .0939 -.9956 241.7331 359.8599)"/><path d="m178.538 292.774c.025-.211-.006-.411-.119-.534-1.238-1.337-2.516-2.639-3.73-3.996-1.787-1.994-3.607-3.964-5.277-6.054-3.23-4.041-6.365-8.158-9.548-12.238-.124-.159-.345-.244-.513-.358-.254-.477-.455-1.034-.811-1.462-.355-.426-.865-.722-1.318-1.083.113-.047.258-.106.449-.185-1.039-1.527-2.043-3.004-3.084-4.535-.228.383-.4.674-.643 1.083-.147-1.448-.961-2.23-2.148-2.735.51-.191.914-.343 1.378-.516-1.069-1.705-2.084-3.32-3.19-5.084-.496.641-.918 1.186-1.367 1.765-.152-1.307-.969-2.084-1.979-2.534.582-.347 1.155-.664 1.701-1.023.293-.193.332-.446.117-.793-.658-1.061-1.271-2.15-1.896-3.231-.596-1.026-.963-1.132-1.935-.401-.396.297-.677.751-.999 1.143-.098.119-.161.269-.312.525-.193-1.423-.973-2.217-2.297-2.753 1.463-.209 2.299-.942 2.771-2.162.789 1.832 1.092 2.189 2.059 2.413-.695-1.238-1.368-2.439-2.043-3.639-.525-.935-.804-2.073-2.15-2.416.303-.124.475-.195.698-.287-.874-1.684-1.73-3.333-2.666-5.133-.416.58-.757 1.055-1.138 1.586-.201-1.296-.934-2.139-2.066-2.566.574-.305 1.108-.563 1.617-.866.38-.226.432-.528.219-.956-.902-1.817-1.772-3.651-2.644-5.484-.474-.996-.929-2.002-1.422-3.07-.168.262-.282.44-.462.719-.207-1.383-.962-2.209-2.155-2.68.525-.211.987-.397 1.472-.592-.688-1.594-1.332-3.086-1.974-4.578-.327-.761-.473-.861-1.155-.354-.586.434-1.041 1.043-1.535 1.556-.173-1.151-.928-1.976-2.246-2.514 1.432-.238 2.277-.949 2.764-2.24.288.999.596 1.844 1.582 2.324-.033-.168-.035-.251-.068-.32-.494-1.035-1.122-2.027-1.451-3.112-.357-1.174-.967-2.004-2.194-2.47.465-.175.808-.304 1.194-.449-.705-1.823-1.387-3.584-2.078-5.371-1.145.252-1.734 1.043-2.225 2.14-.229-1.429-.938-2.276-2.116-2.711.526-.269 1.095-.453 1.524-.807.442-.366.75-.896 1.131-1.371.192.819.504 1.606 1.402 2.114-.035-.173-.033-.262-.068-.332-.5-.994-.787-2.07-1.299-3.079-.531-1.052-1.01-1.969-2.209-2.433.496-.195.895-.352 1.307-.513-.594-1.737-1.161-3.379-1.715-5.025-.11-.328-.277-.385-.604-.288-1.04.307-1.659 1.04-2.11 2.178-.225-1.45-.942-2.305-2.154-2.824 1.293-.229 2.123-.979 2.648-2.306.268 1.283.78 2.127 1.994 2.607-.496-1.505-.945-2.866-1.428-4.329-.194.325-.33.553-.52.871-.234-1.344-.916-2.21-2.25-2.68.426-.14.721-.217.999-.331.851-.35.923-.524.657-1.399-.883-2.898-1.762-5.797-2.641-8.695-.08-.267-.16-.534-.303-1.007-.477.665-.847 1.18-1.244 1.735-.209-1.269-.912-2.117-2.199-2.61.463-.164.807-.243 1.112-.401.739-.383 1.597-1.022 1.396-1.774-.352-1.317-.09-3.044-2.079-3.765 1.056-.059 1.058-.508.8-1.091-.07-.161-.088-.345-.135-.517-.377-1.39-.756-2.779-1.145-4.208-1.271.212-1.972.997-2.494 2.206-.229-1.414-.937-2.277-2.131-2.782 1.328-.251 2.113-1.035 2.648-2.319.206 1.271.754 2.094 1.908 2.608-.408-1.564-.787-3.022-1.209-4.643-.262.479-.434.794-.671 1.231-.208-1.383-.929-2.246-2.175-2.698.555-.24 1-.388 1.398-.616.543-.311.832-.71.584-1.43-.316-.923-.471-1.901-.741-2.842-.112-.391-.347-.746-.491-1.044.039-.185.139-.381.103-.545-.272-1.216-.575-2.426-.864-3.638-.127-.528-.247-1.059-.372-1.596-1.144.294-1.729 1.056-2.2 2.154-.211-1.453-.975-2.285-2.309-2.833 1.48-.211 2.283-.979 2.81-2.258.223 1.062.589 1.858 1.567 2.385-.334-1.428-.642-2.745-.983-4.209-.211.383-.339.614-.538.974-.229-1.386-.959-2.225-2.19-2.699.489-.19.89-.308 1.255-.496.578-.298.91-.677.668-1.443-.314-.994-.457-2.041-.715-3.055-.085-.334-.299-.636-.448-.94.034-.138.146-.337.114-.508-.168-.875-.373-1.741-.564-2.611-.193-.882-.385-1.764-.581-2.667-1.182.263-1.798 1.025-2.291 2.16-.244-1.451-1.005-2.284-2.378-2.822 1.521-.165 2.334-.951 2.844-2.17.502 1.523.852 1.992 1.716 2.297-.312-1.442-.618-2.855-.961-4.445-.267.48-.438.786-.672 1.207-.247-1.386-.983-2.235-2.14-2.66.529-.255 1.047-.457 1.512-.743.531-.327.793-.763.547-1.458-.221-.623-.264-1.308-.425-1.956-.171-.689-.06-1.554-1.192-1.715.365-.164.557-.25.764-.343-.396-1.892-.781-3.734-1.172-5.605-1.322.185-2.119.923-2.654 2.257-.245-1.449-.963-2.292-2.326-2.81 1.465-.234 2.305-.979 2.809-2.252.419 1.588 1.006 2.276 2.127 2.547-.34-1.631-.674-3.236-1.008-4.841-.062-.009-.124-.018-.186-.027-.275.433-.549.865-.803 1.267-.254-.497-.437-1.069-.792-1.497-.36-.432-.89-.722-1.367-1.09.142-.044.266-.086.392-.124 1.605-.473 2.17-1.411 1.835-3.049-.027-.131-.069-.261-.079-.393-.078-1.091-.496-1.93-1.794-2.221.245-.098.342-.164.444-.172.73-.063.807-.429.656-1.092-.514-2.279-.962-4.573-1.434-6.862-.223-1.081-.443-2.162-.664-3.242-.064-.026-.13-.051-.195-.077-.424.543-.85 1.087-1.301 1.665-.227-1.18-.898-2.074-2.139-2.526 1.438-.65 1.438-.65 2.677-2.194.121.354.244.714.367 1.074.058-.026.114-.053.173-.079-.521-1.754-.367-3.87-2.746-4.69.453-.164.805-.285 1.15-.419.33-.126.443-.308.371-.713-.582-3.215-1.124-6.437-1.684-9.655-.051-.292-.139-.579-.217-.904-1.096.309-1.678 1.044-2.148 2.166-.229-1.473-.951-2.317-2.155-2.819 1.323-.226 2.15-.99 2.632-2.277.424 1.479.758 1.955 1.631 2.328-.308-1.412-.604-2.773-.94-4.315-.237.445-.386.724-.624 1.168-.188-1.404-.922-2.247-2.101-2.707.569-.283 1.05-.5 1.509-.757.319-.179.457-.43.285-.831-.282-.654-.471-1.35-.773-1.992-.108-.229-.422-.461-.672-.502-.813-.132-1.641-.212-2.464-.237-.364-.011-.737.157-1.03.227-.289-.141-.564-.367-.865-.407-1.039-.139-2.09-.189-3.131-.32-.55-.069-.848.032-.828.662.013.42-.022.855-.119 1.264-.24 1.013-.072 1.791 1.043 2.124.012.004.005.076.007.139-.128.022-.259.04-.387.067-.634.133-1.004.436-1.001 1.171.004.777-.066 1.568-.217 2.33-.209 1.036-.076 1.834 1.062 2.181.008.003.008.042.02.098-.141.035-.281.077-.426.105-.645.126-.998.44-.992 1.17.004.733-.072 1.476-.205 2.198-.188 1.042-.168 1.937 1.049 2.32.012.003.012.041.025.097-.129.023-.256.041-.381.069-.641.145-1.067.41-1.049 1.202.02.798-.07 1.611-.221 2.397-.191.994-.059 1.751 1.034 2.072.022.007.028.072.048.128-.132.03-.258.062-.388.087-.665.132-1.038.447-1.027 1.213.011.777-.061 1.57-.218 2.33-.213 1.028-.047 1.789 1.053 2.132.016.005.014.068.021.119-.109.021-.218.042-.324.062-.68.134-1.103.429-1.088 1.236.016.776-.062 1.569-.217 2.33-.207 1.025-.057 1.795 1.062 2.125.015.005.012.068.018.111-.132.031-.259.064-.39.089-.666.128-1.033.447-1.025 1.21.01.799-.063 1.614-.225 2.396-.209 1.018-.012 1.741 1.061 2.06.016.004.014.067.02.108-.131.037-.256.083-.385.107-.668.126-1.031.444-1.025 1.207.008.822-.135 1.645-.213 2.467-.125 1.333-.125 1.333 1.053 1.977.021.012.021.066.032.109-.13.038-.255.087-.384.109-.674.119-1.045.43-1.041 1.201.005.844-.141 1.689-.219 2.533-.123 1.304-.123 1.304 1.053 1.913.023.013.025.064.043.111-.152.045-.297.106-.448.131-.669.111-.972.461-.979 1.177-.008.845-.143 1.689-.223 2.534-.122 1.307-.122 1.307 1.046 1.915.024.012.026.065.045.113-.13.043-.251.104-.38.124-.687.105-1.036.433-1.043 1.193-.01.912-.154 1.823-.24 2.734-.109 1.165-.109 1.165.939 1.652.066.031.128.072.268.15-.236.069-.38.126-.529.153-.654.119-.979.448-.99 1.168-.012.89-.15 1.778-.234 2.667-.117 1.25-.117 1.25 1.047 1.772.03.014.044.062.09.128-.16.049-.303.108-.452.135-.653.115-.996.438-1.001 1.162-.006.8-.084 1.609-.223 2.397-.182 1.023-.129 1.863 1.335 2.095-.368.125-.509.192-.655.219-.65.118-1 .427-1.012 1.158-.016.913-.154 1.823-.24 2.734-.115 1.217-.115 1.217 1.041 1.711.028.012.041.062.082.129-.154.05-.295.111-.441.141-.645.128-.989.444-.997 1.172-.011.89-.15 1.778-.234 2.667-.118 1.258-.118 1.258 1.052 1.769.023.011.027.066.057.138-.152.045-.294.099-.44.127-.653.128-.978.466-.987 1.185-.014.891-.152 1.778-.236 2.667-.117 1.257-.117 1.257 1.061 1.763.02.008.017.07.03.138-.12.038-.241.09-.367.114-.664.132-1.046.436-1.046 1.207.002.867-.145 1.733-.227 2.601-.121 1.293-.121 1.292 1.063 1.828.019.008.009.074.017.145-.1.027-.202.066-.308.083-.698.113-1.097.432-1.098 1.227-.001.823-.075 1.657-.233 2.464-.188.962-.001 1.648 1.004 1.962.014.004.008.079.013.149-.142.04-.287.09-.437.122-.604.128-.885.456-.894 1.113-.013.845-.076 1.703-.241 2.53-.191.968.018 1.641 1.004 1.967.016.005.008.079.016.153-.124.031-.25.065-.377.092-.614.129-.961.431-.955 1.134.005.711-.105 1.424-.189 2.133-.119 1.017-.443 2.107 1.144 2.421-.221.103-.339.132-.456.155-.656.129-1.062.422-1.057 1.194.004.777-.082 1.564-.215 2.332-.176 1.011-.179 1.883 1.174 2.134-.033.052-.066.103-.1.154-.127.024-.256.047-.383.073-.66.133-1.049.437-1.035 1.211.014.776-.064 1.568-.217 2.33-.203 1.016-.073 1.795 1.043 2.133.02.006.021.071.037.139-.113.015-.223.023-.328.045-.672.139-1.107.426-1.09 1.238.016.775-.06 1.569-.218 2.329-.213 1.027-.048 1.788 1.054 2.13.017.005.014.069.024.121-.133.026-.261.052-.392.077-.67.128-1.031.458-1.022 1.217.009.777-.06 1.57-.218 2.33-.215 1.03-.041 1.788 1.057 2.131.014.004.008.069.012.106-.153.041-.301.092-.451.117-.645.104-.935.445-.944 1.129-.013.823-.067 1.66-.235 2.463-.216 1.029.015 1.732 1.072 2.055.014.004.01.067.016.108-.132.034-.258.073-.388.1-.66.132-1.036.438-1.028 1.206.01.821-.064 1.66-.23 2.463-.213 1.014.051 1.678 1.068 1.985.019.006.02.067.031.11-.131.035-.256.079-.385.104-.666.123-1.044.424-1.037 1.197.008.844-.14 1.689-.219 2.533-.122 1.294-.122 1.294 1.045 1.918.025.015.034.063.059.113-.153.046-.299.105-.449.131-.666.109-.975.458-.984 1.17-.013.846-.144 1.689-.224 2.533-.124 1.317-.124 1.317 1.038 1.919.025.014.035.063.063.122-.155.045-.3.1-.45.127-.658.117-.982.448-.984 1.174-.002.844-.142 1.688-.221 2.533-.125 1.322-.125 1.322 1.043 1.914.027.014.037.062.07.124-.156.045-.301.101-.453.127-.655.115-.979.447-.99 1.166-.015.89-.151 1.778-.235 2.667-.118 1.25-.118 1.249 1.042 1.775.031.014.047.061.098.125-.162.05-.304.111-.453.138-.652.114-.989.433-1.005 1.159-.021.957-.163 1.911-.254 2.867-.098 1.035-.077 1.072.862 1.513.092.043.186.08.373.162-.245.08-.387.145-.535.171-.658.115-.987.447-1 1.168-.018.891-.152 1.778-.235 2.668-.119 1.257-.119 1.256 1.044 1.772.025.012.035.062.068.124-.154.05-.295.113-.443.143-.65.128-.98.458-.99 1.18-.012.89-.15 1.777-.234 2.667-.117 1.242-.117 1.242 1.057 1.768.021.009.02.067.033.128-.126.043-.247.103-.373.124-.682.117-1.037.448-1.039 1.206 0 .822-.137 1.645-.215 2.467-.131 1.383-.131 1.383 1.151 2.052-.216.065-.376.125-.54.162-.616.139-.934.459-.945 1.149-.018.913-.154 1.823-.24 2.734-.115 1.216-.115 1.215 1.042 1.711.028.012.04.066.083.146-.154.043-.293.092-.436.121-.635.135-.996.439-1.004 1.171-.01.89-.15 1.778-.234 2.667-.12 1.271-.119 1.271 1.043 1.776.023.01.023.073.047.15-.121.036-.238.083-.363.104-.672.119-1.043.437-1.049 1.2-.006.867-.146 1.733-.228 2.601-.118 1.246-.118 1.245.989 1.824.024.013.023.076.045.158-.121.033-.24.07-.362.097-.634.138-.994.445-.997 1.178-.003.845-.141 1.689-.221 2.534-.125 1.316-.125 1.316 1.029 1.926.027.015.029.078.056.156-.133.025-.259.047-.383.073-.653.14-1.051.432-1.04 1.21.013.821-.063 1.659-.23 2.463-.209 1.009.03 1.686 1.061 1.991.02.006.02.075.028.116-1.341.336-1.471.485-1.302 1.49 1.407.133 2.816.266 4.293.405-.33-.966-1.033-1.451-2.066-1.867 1.441-.229 2.307-.939 2.825-2.122.259 1.304 1.023 2.104 2.351 2.627-1.11.198-1.877.564-2.362 1.418 1.739.164 3.407.321 5.14.484-.356-.945-1.039-1.434-1.904-1.84 1.307-.228 2.16-.984 2.666-2.193.205 1.35.994 2.149 2.312 2.682-1.094.221-1.869.56-2.336 1.439 1.74.164 3.397.32 5.131.484-.334-.963-1.036-1.449-1.891-1.854 1.307-.231 2.138-1.011 2.689-2.354.196 1.492.944 2.304 2.174 2.779-1.6.599-1.846.771-2.174 1.491 1.672.158 3.34.315 5.056.478-.311-.97-1.046-1.426-2.05-1.874 1.494-.205 2.326-.969 2.832-2.164.211 1.336 1.01 2.133 2.239 2.661-1.413.386-1.976.785-2.15 1.46 1.65.156 3.304.312 5.007.473-.314-.973-1.039-1.438-1.887-1.852 1.317-.205 2.123-1 2.649-2.215.416 1.363.416 1.363 2.167 2.746-.922.172-1.686.528-2.176 1.397 1.75.165 3.403.321 5.117.482-.303-.981-1.037-1.436-2.031-1.873 1.45-.228 2.318-.96 2.814-2.169.227 1.32.977 2.148 2.146 2.662-.944.234-1.691.588-2.164 1.434 1.748.165 3.416.322 5.119.482-.329-.957-1.053-1.427-2.071-1.86 1.507-.22 2.343-.975 2.861-2.356.198 1.497.951 2.332 2.288 2.862-1.075.226-1.834.576-2.338 1.438 1.74.164 3.408.322 5.133.484-.324-.969-1.037-1.443-2.065-1.861 1.472-.229 2.341-.961 2.831-2.174.236 1.312.991 2.138 2.332 2.676-1.122.212-1.859.584-2.355 1.42 1.755.165 3.424.322 5.14.484-.333-.94-1.034-1.412-2.032-1.862 1.445-.231 2.28-.961 2.801-2.333.229 1.47.979 2.307 2.281 2.838-1.066.242-1.838.564-2.293 1.429 1.727.163 3.396.32 5.123.483-.346-.939-1.035-1.422-2.025-1.852 1.432-.254 2.277-.986 2.799-2.332.217 1.445.94 2.303 2.318 2.826-1.121.23-1.881.574-2.335 1.423 1.727.163 3.394.319 5.103.481-.318-.954-1.047-1.398-1.979-1.85 1.4-.26 2.265-.964 2.736-2.174.259 1.305.979 2.172 2.394 2.676-1.129.203-1.905.553-2.397 1.43 1.729.162 3.396.32 5.087.479-.292-.842-.466-1.017-1.772-1.804 2.144-.826 2.004-1.318 2.595-2.275.227 1.33.925 2.236 2.187 2.701-.969.225-1.735.589-2.219 1.438 1.738.164 3.408.321 5.117.482-.33-.947-1.044-1.403-2.044-1.864 1.487-.205 2.306-.96 2.806-2.142.248 1.312 1.014 2.141 2.344 2.667-1.076.2-1.861.538-2.34 1.417 1.725.163 3.391.32 5.106.482-.329-.95-1.032-1.416-2.04-1.854 1.457-.23 2.301-.96 2.817-2.324.257 1.449.958 2.33 2.274 2.783-1.491.464-1.888.734-2.232 1.471 1.668.157 3.334.314 5.069.479-.356-.946-1.035-1.434-2.046-1.837 1.422-.275 2.319-.946 2.725-2.166.283.56.473 1.15.84 1.596.359.438.898.73 1.385 1.106-.92.152-1.67.528-2.179 1.395 1.766.166 3.423.322 5.14.484-.305-.966-1.029-1.434-2.045-1.887 1.457-.227 2.316-.937 2.797-2.154.265 1.289.968 2.166 2.381 2.648-1.105.244-1.908.557-2.37 1.452 1.724.163 3.392.32 5.112.482-.313-.966-1.049-1.422-2.03-1.877 1.452-.22 2.295-.951 2.81-2.345.238 1.492.961 2.35 2.35 2.85-1.109.221-1.896.561-2.374 1.441 1.733.164 3.401.32 5.265.496-.369-.471-.598-.854-.912-1.143-.311-.283-.71-.469-1.158-.753 1.316-.213 2.166-.913 2.689-2.103.23 1.32 1.053 2.09 2.271 2.62-1.346.311-1.955.731-2.197 1.429 1.662.157 3.328.314 5.045.476-.361-.938-1.029-1.445-2.096-1.835 1.453-.24 2.336-.93 2.84-2.131.294 1.272.994 2.123 2.26 2.562-1.586.581-1.874.779-2.21 1.497 1.675.157 3.343.314 5.086.479-.345-.961-1.056-1.439-1.896-1.862 1.318-.208 2.128-.989 2.617-2.206.469 1.168.199 1.506 2.203 2.732-.922.189-1.709.527-2.182 1.394 1.264.119 2.469.232 3.722.351-.106-.62.51-1.346-.391-1.729zm-19.314-22.002c.266 1.285.957 2.163 2.398 2.652-1.448.271-2.348.941-2.846 2.163-.244-1.274-.969-2.101-2.337-2.626 1.416-.282 2.324-.929 2.785-2.189zm-5.34-6.433c.704 2.01 1.066 1.979 2.281 2.694-1.338.213-2.213.914-2.704 2.146-.253-1.291-.985-2.15-2.278-2.626 1.628-.484 2.065-.849 2.701-2.214zm1.676 8.51c-1.271.28-2.175.971-2.654 2.209-.256-1.294-.979-2.146-2.176-2.646 1.273-.271 2.134-.948 2.627-2.377.276 1.436.922 2.354 2.203 2.814zm-6.97-15.104c.281 1.419.919 2.347 2.399 2.806-1.443.282-2.357.962-2.852 2.187-.264-1.287-.978-2.123-2.353-2.637 1.451-.269 2.327-.951 2.806-2.356zm-76.789-2.186c-.29-1.272-.983-2.175-2.226-2.65 1.302-.246 2.145-.978 2.656-2.154.264 1.281.965 2.099 2.336 2.601-1.379.303-2.328.906-2.766 2.203zm2.241 3.688c-1.447.262-2.334.94-2.823 2.182-.249-1.291-.978-2.146-2.167-2.656 1.301-.227 2.107-.979 2.641-2.338.249 1.449.943 2.315 2.349 2.812zm14.251-178.892c.259 1.296.962 2.166 2.168 2.591-.556.278-1.114.454-1.538.799-.432.351-.729.868-1.137 1.376-.213-1.19-.901-2.068-2.301-2.565 1.444-.279 2.328-.978 2.808-2.201zm-2.252-3.66c1.403-.302 2.343-.955 2.769-2.304.547 1.6.547 1.6 2.23 2.791-1.265.218-2.139.876-2.631 2.102-.31-1.218-.955-2.116-2.368-2.589zm1.704 9.521c.227 1.334.984 2.159 2.346 2.69-1.438.232-2.299.928-2.812 2.321-.285-1.446-.958-2.341-2.404-2.796 1.484-.261 2.388-.963 2.87-2.215zm49.653 164.541c.271 1.426.923 2.338 2.183 2.817-1.28.254-2.13.997-2.656 2.328-.25-1.436-.968-2.298-2.184-2.776 1.289-.262 2.155-.938 2.657-2.369zm-2.276-3.518c1.463-.245 2.334-.932 2.834-2.353.268 1.43.924 2.342 2.173 2.804-1.266.294-2.146 1.002-2.665 2.383-.219-1.477-.942-2.312-2.342-2.834zm-2.969-3.574c-.217-1.47-.94-2.323-2.338-2.858 1.461-.241 2.322-.945 2.818-2.318.277 1.39.916 2.294 2.172 2.782-1.283.272-2.156 1.001-2.652 2.394zm-53.382.687c-.26-1.294-1.01-2.134-2.368-2.666 1.465-.223 2.286-.957 2.817-2.304.273 1.426.941 2.315 2.359 2.775-1.406.305-2.356.916-2.808 2.195zm2.278 3.694c-1.452.272-2.38.92-2.833 2.209-.273-1.257-.951-2.161-2.362-2.682 1.452-.259 2.303-.952 2.808-2.34.275 1.443.944 2.334 2.387 2.813zm-1.732-9.526c-.238-1.338-1.006-2.191-2.395-2.712 1.477-.201 2.326-.936 2.857-2.311.254 1.436.933 2.294 2.332 2.794-1.41.295-2.348.934-2.794 2.229zm.564-5.943c-.298-1.271-1.003-2.123-2.384-2.619 1.457-.243 2.33-.963 2.827-2.174.26 1.289.952 2.14 2.377 2.644-1.448.261-2.349.922-2.82 2.149zm10.97-116.407c.251 1.304.975 2.138 2.338 2.642-1.388.267-2.295.899-2.734 2.197-.919-1.889-.919-1.889-2.338-2.698 1.371-.198 2.233-.936 2.734-2.141zm-2.305-3.705c1.469-.246 2.359-.928 2.848-2.162.266 1.309 1.004 2.144 2.352 2.646-1.4.247-2.289.899-2.794 2.324-.299-1.43-.994-2.329-2.406-2.808zm33.541 112.266c-.254-1.277-.961-2.143-2.168-2.63 1.262-.272 2.123-.961 2.633-2.368.256 1.445.948 2.322 2.367 2.83-1.457.245-2.328.943-2.832 2.168zm5.217 7.336c.299 1.388.936 2.312 2.193 2.775-1.264.27-2.152.961-2.642 2.202-.247-1.304-.992-2.145-2.332-2.669 1.427-.243 2.288-.931 2.781-2.308zm-40.451-10.683c-.264-1.27-.994-2.099-2.338-2.631 1.437-.239 2.287-.973 2.814-2.32.234 1.451.946 2.29 2.334 2.81-1.437.242-2.318.92-2.81 2.141zm2.266 3.726c-1.438.25-2.325.925-2.822 2.341-.279-1.409-.96-2.303-2.175-2.804 1.279-.254 2.122-.994 2.646-2.338.247 1.438.937 2.292 2.351 2.801zm4.72-14.742c-.298-1.412-.976-2.328-2.26-2.751 1.615-.632 1.58-.398 2.749-2.234.214 1.31.943 2.159 2.311 2.666-1.437.249-2.306.926-2.8 2.319zm2.248 3.548c-1.434.263-2.329.927-2.802 2.352-.29-1.419-.956-2.33-2.2-2.813 1.296-.247 2.146-.991 2.67-2.355.234 1.448.932 2.304 2.332 2.816zm-1.699-9.4c-.286-1.416-.939-2.338-2.219-2.799 1.287-.256 2.164-.985 2.655-2.25.521 1.612.581 1.688 2.213 2.725-1.28.256-2.181.914-2.649 2.324zm3.795-40.445c.242 1.471.915 2.338 2.145 2.823-1.243.31-2.162.948-2.598 2.218-.299-1.233-.926-2.165-2.182-2.645 1.297-.28 2.138-1.021 2.635-2.396zm-2.079-3.489c1.299-.256 2.119-1.02 2.637-2.359.23 1.442.911 2.3 2.332 2.812-1.432.28-2.334.939-2.799 2.173-.289-1.231-.945-2.12-2.17-2.626zm5.237 32.666c-.258-1.373-.932-2.248-2.166-2.73 1.275-.265 2.146-.982 2.664-2.352.245 1.457.969 2.317 2.275 2.787-1.619.458-2.062.823-2.773 2.295zm2.213 3.583c-1.601.45-2.068.835-2.774 2.309-.241-1.398-.933-2.258-2.321-2.758 1.437-.259 2.303-.98 2.831-2.329.241 1.451.968 2.307 2.264 2.778zm-1.628-9.412c-.301-1.349-.903-2.282-2.165-2.758 1.258-.307 2.148-1.014 2.631-2.434.224 1.486.938 2.343 2.146 2.862-1.272.271-2.134.968-2.612 2.33zm-4.298-17.449c.234 1.447.928 2.313 2.123 2.813-1.283.275-2.108.997-2.604 2.353-.265-1.386-.901-2.291-2.155-2.797 1.278-.261 2.116-1.006 2.636-2.369zm-.547 5.908c.238 1.443.957 2.283 2.342 2.803-1.469.249-2.324.935-2.812 2.141-.3-1.23-.948-2.126-2.213-2.599 1.271-.27 2.151-.994 2.683-2.345zm-.537 6.036c.223 1.293.959 2.137 2.236 2.618-1.623.463-2.107.866-2.68 2.151-.262-.52-.447-1.099-.805-1.539-.35-.431-.874-.719-1.327-1.074 1.581-.668 1.36-.354 2.576-2.156zm-.604 5.877c.262 1.292 1.007 2.127 2.354 2.644-1.449.238-2.312.94-2.805 2.309-.279-1.377-.912-2.289-2.172-2.771 1.245-.286 2.134-.968 2.623-2.182zm-.519 5.694c.223 1.46.953 2.287 2.261 2.795-1.601.438-2.04.803-2.761 2.277-.256-1.332-.919-2.24-2.338-2.725 1.426-.269 2.305-.979 2.838-2.347zm4.205 18.177c.238 1.448.954 2.291 2.322 2.815-1.434.246-2.305.941-2.75 2.171-.885-1.887-.885-1.887-2.304-2.681 1.359-.21 2.207-.949 2.732-2.305zm.082-.732c-.288-1.413-.953-2.318-2.398-2.796 1.445-.261 2.358-.937 2.775-2.16.297.575.49 1.154.852 1.593.355.427.885.709 1.356 1.07-1.222.221-2.093.898-2.585 2.293zm.555-5.882c-.297-1.386-.924-2.32-2.213-2.774 1.268-.271 2.17-.961 2.656-2.191.268 1.29.992 2.143 2.387 2.651-1.486.243-2.338.938-2.83 2.314zm5.267 7.242c.184 1.371.914 2.2 2.271 2.735-1.403.265-2.295.933-2.772 2.376-.273-1.443-.955-2.352-2.219-2.804 2.08-.766 1.937-1.002 2.72-2.307zm.029-.813c-.241-1.402-.921-2.298-2.353-2.787 1.439-.274 2.346-.963 2.842-2.387.227 1.469.949 2.341 2.238 2.815-1.726.588-2.067.877-2.727 2.359zm.584-6.058c-.292-1.252-.982-2.136-2.402-2.618 1.481-.246 2.371-.967 2.854-2.212.22 1.326.973 2.162 2.336 2.701-1.431.238-2.291.918-2.788 2.129zm.539-5.667c-.263-1.438-.946-2.322-2.376-2.821 1.465-.255 2.342-.962 2.838-2.196.234 1.305.978 2.162 2.342 2.681-1.436.243-2.299.924-2.804 2.336zm5.239 7.137c.254 1.442.943 2.325 2.148 2.807-1.297.265-2.121.995-2.632 2.329-.263-1.432-.96-2.314-2.384-2.801 1.467-.223 2.341-.933 2.868-2.335zm.067-.711c-.248-1.428-.919-2.311-2.157-2.803 1.264-.279 2.141-.985 2.65-2.364.232 1.452.949 2.3 2.125 2.812-1.283.261-2.107.996-2.618 2.355zm-4.751-12.504c-.279-1.271-.982-2.114-2.325-2.61 1.405-.296 2.317-.963 2.778-2.211.244 1.301.975 2.149 2.351 2.688-1.458.236-2.304.959-2.804 2.133zm-4.761-12.11c-.289-1.398-.914-2.338-2.193-2.789 1.308-.264 2.15-1.01 2.666-2.375.236 1.428.908 2.316 2.146 2.802-1.275.287-2.141.984-2.619 2.362zm.535-5.924c-.252-1.342-.904-2.25-2.142-2.744 1.277-.282 2.131-1.018 2.642-2.385.209 1.469.938 2.318 2.192 2.796-1.725.651-2.032.912-2.692 2.333zm-3.141-19.726c-.43.354-.72.878-1.098 1.364-.242-1.192-.917-2.096-2.15-2.569 1.311-.25 2.146-.992 2.59-2.158.272.541.449 1.101.794 1.525.351.431.866.727 1.296 1.071-.429.22-.998.41-1.432.767zm-5.825-10.703c-.276-1.432-.947-2.31-2.165-2.808 1.291-.25 2.119-.991 2.63-2.158.255 1.285.973 2.112 2.36 2.625-1.435.24-2.316.928-2.825 2.341zm-.085.706c.254 1.451.947 2.316 2.354 2.819-1.429.278-2.349.924-2.81 2.172-.285-1.273-.988-2.15-2.215-2.634 1.314-.237 2.149-.975 2.671-2.357zm-.547 5.889c.251 1.421.91 2.313 2.148 2.784-1.24.311-2.14.953-2.604 2.373-.305-1.412-.962-2.347-2.216-2.813 1.313-.248 2.15-.991 2.672-2.344zm-1.617 7.465c.428-.356.717-.881 1.113-1.393.178 1.26.902 2.088 2.277 2.618-1.432.263-2.307.931-2.791 2.338-.291-1.389-.927-2.314-2.182-2.731.597-.302 1.161-.481 1.583-.832zm.496 4.28c.271 1.431.932 2.322 2.164 2.792-1.247.298-2.131.949-2.566 2.249-.824-2.018-.742-1.741-2.246-2.736 1.296-.229 2.146-.929 2.648-2.305zm-.555 6.032c.246 1.285.951 2.128 2.34 2.663-1.447.263-2.33.942-2.79 2.37-.29-1.422-.927-2.354-2.19-2.833 1.301-.245 2.14-.995 2.64-2.2zm-.56 5.885c.243 1.293.988 2.138 2.371 2.662-1.471.255-2.332.931-2.775 2.212-.816-1.914-.834-1.935-2.326-2.727 1.357-.209 2.223-.924 2.73-2.147zm-.549 5.759c.354 1.408.379 1.439 2.172 2.808-1.262.215-2.127.884-2.611 2.112-.3-1.225-.944-2.125-2.379-2.608 1.455-.287 2.343-1.005 2.818-2.312zm-.559 5.991c.259 1.303.982 2.134 2.354 2.647-1.428.269-2.319.927-2.805 2.371-.269-1.443-.939-2.34-2.176-2.823 1.258-.284 2.155-.968 2.627-2.195zm-.56 5.731c.395 1.476.395 1.476 2.184 2.835-1.267.211-2.125.895-2.624 2.286-.297-1.378-.918-2.315-2.188-2.777 1.258-.281 2.143-.971 2.628-2.344zm-.57 5.966c.491 1.428.491 1.428 2.192 2.742-1.26.218-2.135.887-2.607 2.111-.306-1.244-.969-2.129-2.221-2.606 1.284-.251 2.155-.983 2.636-2.247zm-.501 5.742c.226 1.48.944 2.315 2.289 2.822-1.378.295-2.304.924-2.757 2.196-.295-1.261-.955-2.177-2.204-2.641 1.286-.262 2.139-1 2.672-2.377zm-.579 6.058c.249 1.313.999 2.146 2.327 2.655-1.398.25-2.281.912-2.784 2.343-.272-1.434-.954-2.327-2.372-2.824 1.465-.252 2.333-.97 2.829-2.174zm4.234 18.022c.232 1.445.951 2.295 2.305 2.801-1.395.272-2.289.924-2.77 2.324-.32-1.4-.98-2.336-2.236-2.788 1.318-.241 2.162-.986 2.701-2.337zm.086-.921c-.284-1.255-.982-2.136-2.203-2.617 1.316-.247 2.146-1.011 2.68-2.36.212 1.484.952 2.32 2.303 2.826-1.403.261-2.289.918-2.78 2.151zm.554-5.653c-.298-1.427-.932-2.356-2.17-2.825 1.283-.274 2.11-1.009 2.631-2.364.245 1.465.959 2.32 2.326 2.812-1.402.271-2.319.914-2.787 2.377zm5.232 7.125c.241 1.425.92 2.287 2.301 2.788-1.378.302-2.304.934-2.767 2.163-.287-1.289-1.02-2.143-2.232-2.619 1.32-.226 2.164-.971 2.698-2.332zm.08-.901c-.259-1.277-.986-2.133-2.218-2.604 1.369-.528 1.602-.374 2.722-2.258.202 1.369.951 2.18 2.275 2.697-1.393.26-2.282.922-2.779 2.165zm.539-5.674c-.253-1.461-.945-2.324-2.159-2.83 1.268-.265 2.129-.978 2.637-2.353.252 1.462.971 2.319 2.338 2.819-1.428.245-2.313.931-2.816 2.364zm5.259 7.083c.213 1.464.916 2.333 2.307 2.839-1.409.284-2.317.949-2.78 2.195-.267-1.284-.979-2.158-2.409-2.675 1.507-.21 2.363-.957 2.882-2.359zm.076-.811c-.238-1.295-.965-2.172-2.357-2.699 1.479-.238 2.323-.984 2.84-2.362.205 1.478.927 2.334 2.311 2.851-1.426.264-2.324.935-2.794 2.21zm.556-5.914c-.269-1.271-.973-2.124-2.322-2.641 1.396-.28 2.286-.959 2.778-2.361.256 1.453.96 2.344 2.342 2.826-1.426.263-2.325.939-2.798 2.176zm5.22 7.333c.269 1.417.947 2.304 2.367 2.79-1.451.268-2.347.946-2.819 2.184-.274-1.297-.999-2.159-2.388-2.661 1.458-.226 2.327-.933 2.84-2.313zm.068-.823c-.24-1.344-.938-2.214-2.234-2.698 1.619-.53 1.619-.53 2.754-2.21.228 1.293.939 2.153 2.169 2.609-1.842.756-1.89.797-2.689 2.299zm.562-5.772c-.24-1.463-.959-2.328-2.334-2.835 1.447-.239 2.309-.964 2.832-2.352.226 1.485.963 2.33 2.35 2.84-1.459.233-2.332.938-2.848 2.347zm.565-5.897c-.265-1.427-.955-2.31-2.349-2.806 1.438-.264 2.323-.96 2.827-2.366.246 1.472.947 2.323 2.141 2.827-1.257.264-2.107.965-2.619 2.345zm5.212 7.32c.283 1.249.95 2.139 2.192 2.631-1.256.269-2.13.956-2.625 2.17-.271-1.243-.959-2.107-2.344-2.62 1.412-.279 2.311-.939 2.777-2.181zm.112-.853c-.261-1.465-.957-2.346-2.164-2.836 1.283-.268 2.124-.987 2.645-2.371.229 1.465.94 2.334 2.354 2.836-1.459.251-2.349.937-2.835 2.371zm-1.606-8.711c1.297-.278 2.132-1.003 2.628-2.342.253 1.43.955 2.31 2.37 2.814-1.484.244-2.357.954-2.855 2.389-.225-1.5-.947-2.362-2.143-2.861zm6.846 15.836c.252 1.429.939 2.319 2.373 2.801-1.445.24-2.331.933-2.842 2.148-.273-1.281-1-2.141-2.223-2.616 1.322-.238 2.174-.97 2.692-2.333zm.084-.902c-.262-1.268-.965-2.132-2.359-2.643 1.456-.249 2.314-.963 2.825-2.341.248 1.437.942 2.319 2.363 2.811-1.449.273-2.331.946-2.829 2.173zm-4.234-18.024c-.25-1.4-.918-2.282-2.324-2.782 1.416-.284 2.314-.957 2.811-2.371.254 1.459.953 2.338 2.174 2.822-1.302.253-2.14.995-2.661 2.331zm-4.748-12.29c-.279-1.402-.934-2.316-2.204-2.737 1.946-.878 1.427-.402 2.712-2.234.213 1.28.93 2.122 2.3 2.655-1.459.236-2.315.947-2.808 2.316zm-4.773-12.27c-.257-1.422-.905-2.318-2.158-2.81 1.272-.291 2.153-1.01 2.644-2.405.223 1.46.923 2.333 2.15 2.835-1.28.272-2.143.976-2.636 2.38zm.556-5.916c-.273-1.409-.931-2.319-2.211-2.782 1.318-.244 2.193-.984 2.679-2.195.26 1.331.997 2.15 2.376 2.668-1.481.22-2.34.946-2.844 2.309zm-4.787-12.363c-.236-1.308-.873-2.216-2.127-2.711 1.258-.286 2.123-.996 2.627-2.377.235 1.446.94 2.306 2.277 2.806-1.627.464-2.021.793-2.777 2.282zm-4.176-18.273c-.277-1.266-.972-2.15-2.209-2.63 1.309-.246 2.154-.997 2.678-2.343.242 1.421.913 2.287 2.328 2.784-1.401.301-2.32.941-2.797 2.189zm-4.773-12.12c-.264-1.441-.975-2.314-2.225-2.793 1.667-.582 1.682-.594 2.713-2.235.237 1.3.915 2.177 2.349 2.67-1.447.257-2.342.93-2.837 2.358zm.57-6.065c-.284-1.244-.972-2.127-2.168-2.626 1.281-.254 2.093-1.007 2.625-2.332.246 1.436.946 2.299 2.346 2.795-1.411.262-2.316.901-2.803 2.163zm-4.828-11.238c.207 1.294.92 2.146 2.29 2.649-1.403.261-2.296.912-2.782 2.161-.283-1.276-1.016-2.15-2.287-2.617 1.457-.434 1.457-.434 2.779-2.193zm-.571 5.872c.238 1.289.926 2.16 2.299 2.634-1.387.3-2.322.928-2.777 2.221-.264-1.282-.968-2.181-2.281-2.646 1.597-.518 1.597-.518 2.759-2.209zm-.589 5.91c.27 1.271.965 2.097 2.335 2.601-1.385.29-2.315.917-2.776 2.208-.277-1.272-.975-2.174-2.208-2.664 1.291-.242 2.135-.973 2.649-2.145zm-.543 5.675c.267 1.438.932 2.309 2.312 2.787-1.353.326-2.323.909-2.745 2.21-.309-1.247-1.006-2.147-2.387-2.679 1.475-.233 2.308-.958 2.82-2.318zm-.514 6.052c.219 1.258.885 2.125 2.129 2.611-1.27.28-2.16.971-2.631 2.222-.259-1.295-.977-2.185-2.329-2.652 1.42-.374 1.42-.374 2.831-2.181zm-.613 5.87c.27 1.259.939 2.123 2.35 2.618-1.393.312-2.33.931-2.781 2.192-.283-1.269-.977-2.153-2.219-2.63 1.29-.253 2.156-.96 2.65-2.18zm-.524 5.666c.231 1.486.931 2.33 2.121 2.832-1.256.29-2.117.972-2.604 2.396-.25-1.44-.932-2.329-2.146-2.837 1.285-.273 2.117-1.021 2.629-2.391zm-.571 6.063c.241 1.293.944 2.135 2.328 2.654-1.407.289-2.317.931-2.771 2.354-.324-1.369-.914-2.33-2.174-2.798 1.292-.282 2.132-1.022 2.617-2.21zm-.525 5.679c.206 1.495.927 2.327 2.306 2.859-1.425.273-2.324.928-2.781 2.181-.287-1.268-.963-2.167-2.227-2.645 1.314-.236 2.174-.989 2.702-2.395zm-.597 6.075c.264 1.286.965 2.167 2.275 2.621-1.695.56-2.051.856-2.746 2.337-.247-1.369-.894-2.281-2.18-2.747 1.27-.275 2.174-.958 2.651-2.211zm-.555 5.876c.256 1.291.975 2.142 2.158 2.65-1.256.268-2.088.954-2.588 2.297-.329-1.331-.922-2.288-2.217-2.732 1.254-.295 2.179-.958 2.647-2.215zm-.551 5.872c.24 1.314 1.01 2.149 2.363 2.68-1.461.229-2.311.932-2.812 2.12-.276-1.243-.954-2.088-2.308-2.595 1.383-.299 2.279-.978 2.757-2.205zm-.542 5.852c.227 1.339.989 2.161 2.321 2.69-1.412.251-2.295.924-2.775 2.154-.295-1.27-.979-2.153-2.371-2.627 1.436-.273 2.356-.958 2.825-2.217zm-.557 5.888c.231 1.319.986 2.164 2.357 2.678-1.45.243-2.314.922-2.809 2.323-.3-1.401-.941-2.324-2.215-2.788 1.288-.259 2.176-.97 2.667-2.213zm-.565 5.754c.416 1.576.604 1.806 2.238 2.828-1.319.199-2.186.9-2.684 2.128-.271-1.283-.98-2.155-2.385-2.642 1.443-.243 2.333-.932 2.831-2.314zm-.533 5.834c.26 1.481.959 2.333 2.338 2.817-1.416.272-2.311.938-2.812 2.37-.262-1.441-.944-2.312-2.137-2.816 1.241-.287 2.101-.988 2.611-2.371zm-.568 6.064c.262 1.296.986 2.125 2.328 2.635-1.388.264-2.29.922-2.783 2.353-.283-1.419-.947-2.308-2.322-2.813 1.408-.287 2.296-.97 2.777-2.175zm-.559 5.879c.275 1.267.965 2.118 2.332 2.621-1.387.279-2.291.934-2.773 2.143-.288-1.242-.986-2.076-2.168-2.595 1.258-.264 2.123-.968 2.609-2.169zm4.23 17.978c.255 1.46.943 2.329 2.146 2.813-1.256.284-2.118.968-2.619 2.359-.259-1.448-.993-2.305-2.317-2.836 1.429-.235 2.275-.944 2.79-2.336zm.067-.78c-.249-1.351-.939-2.239-2.162-2.668.553-.274 1.129-.451 1.56-.805.446-.366.749-.904 1.134-1.39.209 1.216.879 2.082 2.153 2.539-1.931.863-1.956.883-2.685 2.324zm.586-5.803c-.313-1.413-.969-2.355-2.238-2.795 1.312-.244 2.17-.971 2.695-2.363.252 1.465.952 2.329 2.352 2.814-1.426.281-2.327.925-2.809 2.344zm5.235 7.146c.231 1.447.915 2.306 2.132 2.798-1.229.289-2.112.954-2.604 2.187-.273-1.26-.996-2.12-2.35-2.656 1.474-.23 2.306-.983 2.822-2.329zm.091-.881c-.291-1.276-1.005-2.151-2.379-2.656 1.443-.232 2.312-.935 2.828-2.345.248 1.46.951 2.317 2.332 2.819-1.402.28-2.323.927-2.781 2.182zm5.207 7.301c.271 1.459.945 2.343 2.361 2.81-1.418.288-2.331.95-2.825 2.365-.261-1.44-.976-2.315-2.354-2.831 1.457-.246 2.318-.936 2.818-2.344zm.108-.698c-.307-1.423-.969-2.34-2.201-2.811 1.299-.255 2.135-.975 2.646-2.333.276 1.416.944 2.305 2.356 2.783-1.407.286-2.333.927-2.801 2.361zm.539-5.892c-.266-1.424-.988-2.29-2.336-2.824 1.457-.221 2.279-.959 2.809-2.312.256 1.434.938 2.311 2.373 2.805-1.464.252-2.348.942-2.846 2.331zm5.222 7.19c.299 1.385.928 2.309 2.195 2.755-1.252.302-2.172.953-2.645 2.389-.279-1.431-.957-2.348-2.197-2.823 1.302-.26 2.136-.98 2.647-2.321zm.096-.712c-.257-1.438-.942-2.333-2.168-2.847 1.281-.252 2.128-.977 2.639-2.328.262 1.41.926 2.283 2.324 2.774-1.406.306-2.328.972-2.795 2.401zm.566-6.052c-.264-1.279-.959-2.184-2.199-2.666 1.295-.254 2.133-.975 2.635-2.27.477 1.616.738 1.933 2.255 2.746-1.315.261-2.223.923-2.691 2.19zm5.227 7.296c.252 1.415.918 2.293 2.168 2.787-1.256.272-2.148.953-2.629 2.163-.281-1.272-1.011-2.106-2.373-2.637 1.486-.225 2.327-.961 2.834-2.313zm.092-.929c-.275-1.271-1.006-2.105-2.365-2.625 1.473-.235 2.315-.973 2.785-2.203.67 1.756.904 2.037 2.3 2.684-1.33.278-2.239.931-2.72 2.144zm.539-5.684c-.268-1.419-.947-2.293-2.166-2.794 1.281-.25 2.123-.976 2.64-2.346.259 1.426.937 2.311 2.328 2.799-1.41.278-2.301.962-2.802 2.341zm5.245 7.139c.236 1.447.931 2.325 2.333 2.828-1.41.269-2.297.935-2.767 2.231-.587-1.484-.335-1.521-2.228-2.741 1.317-.207 2.16-.942 2.662-2.318zm.097-.884c-.617-1.583-.617-1.583-2.211-2.668 1.311-.213 2.168-.932 2.665-2.318.245 1.447.938 2.328 2.179 2.766-1.936.964-1.936.964-2.633 2.22zm.539-5.856c-.248-1.29-.987-2.14-2.232-2.624 1.664-.55 1.87-.72 2.682-2.205.573 1.651.777 1.899 2.256 2.665-1.335.25-2.214.947-2.706 2.164zm.557-5.703c-.283-1.437-.968-2.328-2.195-2.814 1.31-.227 2.136-.988 2.657-2.314.268 1.4.938 2.297 2.363 2.769-1.419.275-2.346.939-2.825 2.359zm5.212 7.332c.281 1.267.974 2.124 2.373 2.619-1.439.256-2.322.957-2.787 2.203-.695-1.706-.695-1.706-2.249-2.707 1.322-.216 2.179-.923 2.663-2.115zm.098-.911c-.258-1.44-.967-2.3-2.328-2.82 1.447-.258 2.318-.957 2.791-2.347.273 1.421.93 2.334 2.18 2.805-1.251.29-2.133.959-2.643 2.362zm5.243 7.132c.248 1.439.925 2.332 2.342 2.823-1.45.273-2.325.986-2.831 2.373-.227-1.45-.935-2.316-2.343-2.844 1.47-.25 2.327-.96 2.832-2.352zm.07-.674c-.237-1.441-.929-2.318-2.329-2.839 1.426-.278 2.322-.938 2.785-2.153.299 1.26.982 2.126 2.391 2.632-1.483.238-2.348.964-2.847 2.36zm.564-6.045c-.232-1.303-.975-2.161-2.34-2.685 1.44-.243 2.299-.935 2.801-2.329.27 1.428.942 2.326 2.189 2.797-1.273.279-2.163.971-2.65 2.217zm5.225 7.289c.271 1.412.94 2.314 2.378 2.814-1.477.262-2.353.977-2.844 2.178-.236-1.301-.98-2.119-2.331-2.662 1.447-.24 2.306-.946 2.797-2.33zm.067-.662c-.204-1.5-.939-2.352-2.319-2.881 1.455-.24 2.307-.955 2.815-2.322.264 1.413.929 2.299 2.335 2.791-1.44.286-2.334 1-2.831 2.412zm-4.202-18.239c-.241-1.438-.944-2.292-2.295-2.8 1.4-.277 2.281-.961 2.727-2.193.851 1.885.851 1.885 2.299 2.684-1.353.223-2.21.948-2.731 2.309zm-4.758-12.297c-.25-1.443-.953-2.313-2.345-2.812 1.448-.254 2.325-.961 2.825-2.352.25 1.443.949 2.328 2.176 2.815-1.286.26-2.135.971-2.656 2.349zm-4.745-12.325c-.287-1.376-.937-2.282-2.183-2.77 1.266-.268 2.131-.979 2.586-2.209.719 1.644.299 1.412 2.227 2.703-1.278.215-2.137.905-2.63 2.276zm-4.767-12.428c-.26-1.276-.951-2.156-2.371-2.666 1.438-.254 2.309-.944 2.819-2.141.257 1.268.989 2.099 2.343 2.621-1.439.26-2.32.945-2.791 2.186zm.539-5.738c-.266-1.396-.916-2.293-2.364-2.785 1.451-.282 2.345-.973 2.829-2.187.25 1.275.959 2.123 2.347 2.646-1.46.262-2.318.975-2.812 2.326zm-4.762-12.265c-.257-1.424-.912-2.328-2.155-2.813 1.262-.3 2.152-.987 2.619-2.2.243 1.305.986 2.12 2.326 2.657-1.43.263-2.293.941-2.79 2.356zm-4.712-12.391c-.535-1.42-.391-1.667-2.254-2.796 1.348-.209 2.188-.953 2.675-2.332.249 1.462.927 2.33 2.314 2.833-1.383.314-2.331.927-2.735 2.295zm.517-5.959c-.26-1.257-.947-2.138-2.165-2.656 1.284-.268 2.132-.999 2.622-2.394.25 1.46.912 2.336 2.153 2.826-1.238.304-2.147.958-2.61 2.224zm-4.758-12.332c-.3-1.259-.988-2.152-2.209-2.629 1.324-.259 2.162-1.007 2.666-2.381.238 1.467.916 2.331 2.302 2.819-1.362.314-2.307.928-2.759 2.191zm.549-5.884c-.285-1.24-.963-2.127-2.17-2.616 1.291-.253 2.098-1.01 2.63-2.338.243 1.431.938 2.295 2.339 2.795-1.406.262-2.305.907-2.799 2.159zm-4.771-12.286c-.276-1.294-1.008-2.155-2.373-2.657 1.434-.239 2.32-.927 2.81-2.159.274 1.281.97 2.15 2.339 2.626-1.372.301-2.311.923-2.776 2.19zm.545-5.711c-.293-1.42-.964-2.332-2.192-2.8 1.302-.244 2.126-.982 2.663-2.347.247 1.457.959 2.312 2.354 2.82-1.451.237-2.332.928-2.825 2.327zm-4.776-12.279c-.262-1.456-.966-2.328-2.328-2.835 1.422-.252 2.268-.963 2.811-2.332.245 1.467.965 2.315 2.332 2.806-1.414.262-2.309.929-2.815 2.361zm.619-6.116c-.266-.52-.451-1.102-.814-1.534-.369-.438-.913-.729-1.4-1.1 1.222-.192 2.099-.897 2.609-2.106.266 1.292 1.002 2.129 2.244 2.592-1.682.581-2.031.871-2.639 2.148zm-4.921-11.181c.238 1.307 1.005 2.129 2.337 2.649-1.423.233-2.278.926-2.793 2.306-.294-1.419-.968-2.32-2.386-2.785 1.441-.258 2.345-.931 2.842-2.17zm-.618 5.889c.283.559.471 1.138.829 1.575.353.428.882.711 1.37 1.087-1.201.219-2.095.88-2.588 2.089-.291-1.264-.998-2.107-2.393-2.611 1.476-.227 2.353-.95 2.782-2.14zm-.467 5.657c.229 1.47.938 2.334 2.331 2.839-1.418.254-2.314.919-2.795 2.151-.299-1.25-.988-2.115-2.158-2.615 1.279-.28 2.107-1.014 2.622-2.375zm-.589 6.095c.283 1.268.99 2.125 2.287 2.588-1.701.553-2.133.917-2.67 2.194-.263-.53-.441-1.107-.795-1.538-.367-.446-.904-.751-1.387-1.133 1.171-.227 2.061-.898 2.565-2.111zm-.492 5.87c.219 1.267.914 2.112 2.312 2.615-1.438.278-2.35.928-2.805 2.206-.269-1.305-.989-2.19-2.306-2.643 1.435-.445 1.435-.445 2.799-2.178zm-1.654 7.276c.429-.349.714-.873 1.101-1.367.225 1.221.904 2.08 2.105 2.565-1.229.296-2.13.937-2.598 2.217-.277-1.268-.951-2.185-2.203-2.587.578-.288 1.157-.472 1.595-.828zm.506 4.273c.267 1.451.941 2.315 2.313 2.797-1.355.323-2.327.906-2.756 2.201-.295-1.264-.982-2.157-2.221-2.64 1.28-.252 2.145-.956 2.664-2.358zm-.546 5.888c.264 1.44.932 2.311 2.325 2.785-1.384.304-2.321.929-2.792 2.225-.238-1.309-.997-2.16-2.367-2.697 1.468-.216 2.303-.96 2.834-2.313zm-.57 6.037c.256 1.292.963 2.131 2.148 2.625-1.248.3-2.131.961-2.599 2.215-.259-1.264-.939-2.159-2.167-2.651 1.28-.278 2.124-1.008 2.618-2.189zm-.572 5.873c.279 1.274.967 2.144 2.203 2.579-2.311.902-2.041 1.336-2.688 2.297-.211-1.334-.912-2.212-2.146-2.689 1.274-.271 2.159-.948 2.631-2.187zm-.539 5.868c.263 1.293.959 2.143 2.154 2.638-1.26.289-2.127.965-2.615 2.394-.262-1.448-.932-2.352-2.186-2.837 1.279-.264 2.169-.964 2.647-2.195zm-.559 5.878c.266 1.282.969 2.14 2.359 2.651-1.449.266-2.328.952-2.816 2.368-.263-1.423-.916-2.312-2.109-2.823 1.244-.299 2.091-.998 2.566-2.196zm-.56 5.877c.278 1.233.927 2.133 2.298 2.611-1.65.515-2.025.834-2.695 2.167-.261-.519-.449-1.099-.807-1.543-.344-.426-.861-.71-1.357-1.1 1.219-.246 2.084-.923 2.561-2.135zm-.546 5.872c.246 1.296.979 2.134 2.367 2.66-1.447.253-2.317.917-2.809 2.141-.274-1.259-.979-2.126-2.401-2.626 1.476-.251 2.354-.95 2.843-2.175zm-.556 5.89c.274 1.304.986 2.142 2.188 2.62-1.26.276-2.131.938-2.623 2.341-.326-1.366-.908-2.334-2.217-2.767 1.277-.275 2.184-.959 2.652-2.194zm-.541 5.86c.234 1.302.973 2.141 2.356 2.657-1.442.259-2.321.913-2.81 2.343-.305-1.404-.928-2.339-2.191-2.799 1.276-.269 2.139-.99 2.645-2.201zm-.572 5.871c.279 1.281.975 2.176 2.211 2.646-1.3.255-2.145.959-2.648 2.143-.298-1.255-.979-2.121-2.374-2.597 1.418-.275 2.334-.937 2.811-2.192zm-.549 5.868c.261 1.294.969 2.177 2.209 2.645-1.268.274-2.146.928-2.599 2.216-.901-1.927-1.04-2.086-2.356-2.666 1.349-.279 2.269-.946 2.746-2.195zm-.546 5.886c.229 1.3.972 2.118 2.355 2.654-1.438.248-2.313.931-2.804 2.147-.289-1.271-.989-2.146-2.393-2.626 1.457-.247 2.348-.941 2.842-2.175zm-.562 5.864c.25 1.293.971 2.142 2.275 2.632-1.646.514-1.896.717-2.756 2.244-.256-1.318-.934-2.215-2.375-2.689 1.476-.249 2.374-.932 2.856-2.187zm-.54 5.888c.224 1.309.981 2.113 2.304 2.643-1.371.268-2.273.922-2.764 2.332-.301-1.426-.982-2.324-2.377-2.808 1.448-.245 2.337-.94 2.837-2.167zm-.593 5.856c.659 1.732.736 1.823 2.256 2.669-1.279.271-2.203.904-2.662 2.189-.275-1.279-.983-2.172-2.389-2.67 1.44-.241 2.305-.955 2.795-2.188zm-.511 5.718c.255 1.471.971 2.328 2.318 2.807-1.369.295-2.303.897-2.759 2.193-.298-1.253-.974-2.165-2.208-2.643 1.263-.253 2.112-.96 2.649-2.357zm-.571 6.086c.277 1.282.998 2.111 2.346 2.6-1.395.279-2.328.907-2.78 2.206-.265-1.299-.991-2.179-2.394-2.685 1.451-.225 2.317-.929 2.828-2.121zm-.539 5.69c.27 1.435.962 2.302 2.339 2.781-1.407.284-2.335.921-2.792 2.214-.268-1.285-.977-2.182-2.406-2.695 1.476-.211 2.322-.931 2.859-2.3zm-1.614 7.439c.43-.348.718-.869 1.104-1.36.224 1.229.918 2.097 2.3 2.576-1.403.276-2.329.917-2.79 2.206-.285-1.269-.975-2.175-2.185-2.602.556-.279 1.133-.465 1.571-.82zm.499 4.489c.279 1.261.953 2.102 2.315 2.583-1.339.331-2.312.909-2.753 2.222-.266-1.289-.994-2.16-2.408-2.68 1.486-.227 2.327-.958 2.846-2.125zm4.26 18.149c.217 1.26.883 2.126 2.299 2.614-1.391.318-2.327.937-2.791 2.215-.268-1.243-.925-2.145-2.295-2.609 1.508-.526 1.508-.526 2.787-2.22zm.051-1.026c-.24-1.312-.967-2.191-2.291-2.651 1.561-.483 1.561-.483 2.805-2.23.207 1.334.914 2.166 2.302 2.676-1.451.264-2.347.935-2.816 2.205zm.556-5.886c-.258-1.282-.961-2.165-2.192-2.67 1.313-.218 2.14-.983 2.634-2.259.479 1.617.764 1.961 2.264 2.746-1.329.253-2.239.914-2.706 2.183zm5.237 7.28c.238 1.452.935 2.316 2.348 2.826-1.463.261-2.333.957-2.818 2.182-.266-1.248-.928-2.134-2.132-2.637 1.262-.28 2.084-1.017 2.602-2.371zm.092-.866c-.286-1.257-.96-2.175-2.196-2.65 1.332-.236 2.119-1.017 2.662-2.329.227 1.429.939 2.279 2.311 2.792-1.4.289-2.303.926-2.777 2.187zm.558-5.683c-.289-1.445-.977-2.356-2.201-2.844 1.316-.236 2.127-.988 2.657-2.351.247 1.431.913 2.298 2.337 2.81-1.422.282-2.332.933-2.793 2.385zm.557-6.086c-.285-1.269-1.016-2.127-2.266-2.624 1.518-.45 1.551-.478 2.672-2.089.255.498.441 1.074.801 1.508.354.426.881.707 1.369 1.08-1.191.221-2.113.864-2.576 2.125zm5.207 7.516c.262 1.254.938 2.094 2.16 2.6-1.238.289-2.129.963-2.617 2.371-.277-1.439-.979-2.322-2.196-2.814 1.297-.248 2.139-.982 2.653-2.157zm1.144-2.494c-.428.354-.718.874-1.05 1.299-.924-1.705-.924-1.705-2.226-2.569 1.342-.193 2.186-.95 2.672-2.23.442 1.583.855 2.084 2.127 2.674-.513.268-1.086.465-1.523.826zm-.515-4.37c-.265-1.353-.938-2.231-2.152-2.728 1.304-.244 2.121-1.006 2.643-2.325.258 1.414.926 2.301 2.182 2.717-2.016 1.03-2.016 1.03-2.673 2.336zm4.794 12.449c-.278-1.478-.951-2.402-2.2-2.876 1.332-.238 2.134-.994 2.66-2.338.249 1.422.932 2.293 2.316 2.793-1.412.306-2.335.95-2.776 2.421zm2.229 3.457c-1.422.296-2.331.955-2.787 2.373-.281-1.402-.924-2.328-2.162-2.818 1.285-.28 2.114-1.003 2.621-2.36.253 1.423.935 2.296 2.328 2.805zm-1.663-9.542c-.288-1.25-.94-2.18-2.177-2.652 1.296-.277 2.092-1.016 2.621-2.328.263 1.402.931 2.287 2.346 2.767-1.402.299-2.34.926-2.79 2.213zm5.209 7.291c.255 1.418.925 2.303 2.247 2.767-1.76.64-1.957.808-2.686 2.202-.719-1.559-.719-1.559-2.184-2.671 1.282-.216 2.114-.937 2.623-2.298zm.093-.686c-.271-1.446-.949-2.359-2.203-2.84 1.312-.241 2.168-.98 2.656-2.172.276 1.293.965 2.121 2.332 2.625-1.402.294-2.318.944-2.785 2.387zm.562-6.043c-.26-1.281-.961-2.178-2.277-2.645 1.67-.546 1.762-.621 2.754-2.243.23 1.304.916 2.178 2.32 2.672-1.416.29-2.346.931-2.797 2.216zm5.224 7.273c.243 1.431.925 2.307 2.311 2.812-1.411.309-2.324.966-2.78 2.22-.24-1.282-.943-2.155-2.154-2.661 1.27-.291 2.113-.998 2.623-2.371zm.091-.714c-.293-1.398-.939-2.34-2.193-2.805 1.334-.236 2.127-1.002 2.656-2.317.267 1.389.901 2.308 2.197 2.756-1.274.282-2.181.965-2.66 2.366zm.55-6.03c-.25-1.281-.982-2.137-2.375-2.673 1.487-.226 2.312-.951 2.828-2.28.279 1.374.937 2.273 2.18 2.754-1.264.28-2.156.963-2.633 2.199zm5.229 7.29c.252 1.44.926 2.312 2.152 2.814-1.262.28-2.131.986-2.637 2.391-.234-1.448-.92-2.33-2.137-2.823 1.283-.287 2.134-1.008 2.622-2.382zm.118-.893c-.343-1.237-.992-2.17-2.249-2.619 1.342-.225 2.16-.988 2.682-2.3.271 1.373.924 2.28 2.345 2.739-1.362.319-2.322.915-2.778 2.18zm.519-5.702c-.276-1.385-.926-2.259-2.137-2.771 1.262-.29 2.127-1.005 2.601-2.371.269 1.408.913 2.309 2.163 2.794-1.248.285-2.129.982-2.627 2.348zm5.195 7.272c.654 1.759.808 1.947 2.291 2.733-1.367.234-2.236.942-2.721 2.343-.259-1.44-.947-2.321-2.151-2.831 1.29-.266 2.134-.997 2.581-2.245zm.112-.791c-.226-1.49-.989-2.338-2.36-2.875 1.49-.21 2.336-.941 2.835-2.29.288 1.37.9 2.313 2.182 2.764-1.279.281-2.15.993-2.657 2.401zm.576-6.043c-.252-1.302-.977-2.162-2.242-2.647 1.68-.564 1.928-.772 2.648-2.156.256.515.436 1.093.791 1.528.35.43.875.716 1.367 1.101-1.181.258-2.115.916-2.564 2.174zm.533-5.722c-.255-1.457-.937-2.328-2.154-2.812 1.287-.273 2.138-.992 2.629-2.343.27 1.401.939 2.296 2.348 2.79-1.432.269-2.317.965-2.823 2.365zm5.226 7.158c.307 1.381.93 2.331 2.234 2.766-1.32.255-2.201.986-2.703 2.425-.212-1.495-.933-2.354-2.137-2.864 1.276-.275 2.121-.974 2.606-2.327zm.09-.715c-.226-1.463-.936-2.331-2.151-2.833 1.29-.268 2.139-.989 2.634-2.352.26 1.401.91 2.294 2.141 2.789-1.272.29-2.132 1.016-2.624 2.396zm5.24 7.144c.278 1.356.905 2.271 2.168 2.77-1.279.268-2.135.993-2.626 2.207-.228-1.295-.976-2.141-2.351-2.686 1.494-.242 2.323-.964 2.809-2.291zm.079-.722c-.226-1.462-.944-2.317-2.325-2.846 1.444-.261 2.305-.939 2.788-2.3.317 1.354.909 2.316 2.204 2.755-1.292.264-2.149.996-2.667 2.391zm1.619-7.484c-.439.37-.736.909-1.107 1.387-.176-1.256-.916-2.101-2.291-2.628 1.443-.251 2.307-.923 2.812-2.343.268 1.421.922 2.325 2.163 2.735-.564.293-1.142.485-1.577.849zm4.177 8.72c.27 1.4.907 2.309 2.154 2.797-1.221.326-2.148.961-2.6 2.217-.262-1.271-.955-2.135-2.336-2.651 1.417-.289 2.306-.962 2.782-2.363zm.073-.699c-.225-1.446-.931-2.315-2.145-2.812 1.289-.268 2.129-.975 2.635-2.365.262 1.433.916 2.348 2.176 2.804-1.299.275-2.151 1.014-2.666 2.373zm.582-6.065c-.266-1.278-.984-2.131-2.166-2.625 1.299-.268 2.129-.982 2.613-2.341.293 1.369.9 2.3 2.176 2.78-1.248.287-2.135.971-2.623 2.186zm5.207 7.507c.294 1.24.938 2.114 2.172 2.619-1.263.271-2.119.987-2.608 2.194-.262-1.265-.956-2.131-2.354-2.645 1.438-.282 2.339-.944 2.79-2.168zm.099-1.081c-.232-1.305-.998-2.101-2.315-2.642 1.419-.263 2.292-.927 2.765-2.304.323 1.351.916 2.313 2.225 2.76-1.29.267-2.165.995-2.675 2.186zm.545-5.657c-.225-1.476-.944-2.324-2.318-2.849 1.427-.267 2.293-.935 2.778-2.148.309 1.229.945 2.153 2.224 2.604-1.295.26-2.162.977-2.684 2.393zm5.241 7.101c.272 1.405.92 2.305 2.163 2.818-1.279.257-2.133.98-2.619 2.18-.244-1.289-.971-2.113-2.354-2.65 1.456-.247 2.324-.942 2.81-2.348zm.102-.902c-.257-1.286-1.005-2.11-2.256-2.587 1.665-.543 2.028-.846 2.735-2.318.26 1.394.928 2.271 2.182 2.748-1.279.234-2.141.954-2.661 2.157zm-4.298-17.287c.252 1.438.909 2.324 2.317 2.816-1.396.297-2.298.961-2.778 2.179-.271-1.289-1.012-2.125-2.355-2.645 1.449-.235 2.308-.94 2.816-2.35zm-4.787-12.254c.301 1.384.928 2.322 2.217 2.762-1.282.271-2.162.995-2.652 2.261-.557-1.669-.562-1.677-2.225-2.731 1.297-.239 2.174-.922 2.66-2.292zm-4.754-12.341c.259 1.443.951 2.328 2.345 2.828-1.443.264-2.323.969-2.807 2.316-.403-1.582-.661-1.901-2.243-2.817 1.34-.219 2.204-.919 2.705-2.327zm-.55 5.898c.272 1.439.958 2.331 2.356 2.796-1.433.27-2.357.948-2.82 2.221-.238-1.316-.977-2.162-2.344-2.694 1.441-.243 2.303-.947 2.808-2.323zm-4.77-12.3c.266 1.408.938 2.291 2.31 2.787-1.372.303-2.288.949-2.759 2.184-.271-1.289-.998-2.139-2.369-2.642 1.433-.251 2.318-.94 2.818-2.329zm-4.781-12.138c.27 1.257.969 2.127 2.154 2.632-1.273.27-2.113.987-2.609 2.363-.252-1.452-.957-2.32-2.325-2.825 1.397-.27 2.291-.924 2.78-2.17zm-4.76-12.27c.27 1.275 1.008 2.102 2.36 2.623-1.473.242-2.339.952-2.776 2.229-.674-1.798-.85-2.011-2.32-2.724 1.348-.259 2.248-.926 2.736-2.128zm-4.192-18.408c.229 1.476.964 2.343 2.188 2.841-1.312.235-2.158.961-2.666 2.334-.273-1.41-.92-2.326-2.184-2.787 1.282-.269 2.151-.983 2.662-2.388zm-4.787-12.132c.252 1.289.977 2.139 2.338 2.68-1.439.254-2.292.945-2.785 2.312-.29-1.372-.914-2.303-2.168-2.769 1.266-.307 2.15-.998 2.615-2.223zm-4.193-18.354c.252 1.453.917 2.323 2.32 2.825-1.414.301-2.334.965-2.793 2.414-.258-1.471-.943-2.363-2.191-2.867 1.303-.237 2.162-.971 2.664-2.372zm-4.211-18.14c.256 1.434.93 2.317 2.357 2.795-1.43.281-2.332.924-2.816 2.148-.293-1.245-.986-2.11-2.189-2.598 1.293-.257 2.132-.997 2.648-2.345zm-4.215-18.19c.256 1.461.954 2.326 2.34 2.808-1.42.28-2.324.94-2.805 2.197-.253-1.281-.975-2.147-2.353-2.67 1.437-.239 2.291-.939 2.818-2.335zm-4.668-13.026c-.316-1.404-.951-2.355-2.238-2.783 1.285-.258 2.174-.952 2.679-2.18.261 1.297.997 2.14 2.354 2.641-1.43.244-2.303.914-2.795 2.322zm1-10.874c.232 1.312.973 2.147 2.325 2.67-1.408.269-2.304.927-2.771 2.171-.297-1.271-.973-2.168-2.207-2.628 1.3-.269 2.164-.989 2.653-2.213zm-4.219-18.136c.262 1.264.952 2.123 2.176 2.606-1.25.297-2.159.94-2.615 2.206-.285-1.272-.957-2.174-2.233-2.639 1.282-.254 2.172-.944 2.672-2.173zm-4.781-12.33c.275 1.266.951 2.149 2.168 2.64-1.264.27-2.105.97-2.602 2.187-.276-1.26-.953-2.151-2.37-2.63 1.413-.293 2.346-.922 2.804-2.197zm-.545 5.923c.279 1.266.986 2.104 2.371 2.61-1.447.254-2.322.934-2.818 2.341-.295-1.423-.938-2.341-2.207-2.799 1.254-.26 2.143-.938 2.654-2.152zm-.554 5.874c.289 1.26.988 2.109 2.345 2.594-1.587.399-1.927.675-2.818 2.227-.263-1.293-.919-2.201-2.177-2.667 1.263-.254 2.14-.952 2.65-2.154zm-.565 5.881c.291 1.275 1.015 2.108 2.389 2.605-1.445.262-2.326.911-2.807 2.336-.32-1.392-.934-2.33-2.209-2.783 1.229-.292 2.152-.924 2.627-2.158zm-.545 5.849c.262 1.304 1.025 2.127 2.361 2.644-1.439.234-2.301.917-2.801 2.117-.287-1.261-.98-2.115-2.365-2.593 1.391-.277 2.315-.917 2.805-2.168zm-.51 5.828c.24 1.316.937 2.195 2.141 2.598-.562.282-1.125.46-1.551.806-.432.35-.727.866-1.126 1.364-.245-1.178-.895-2.092-2.226-2.513 1.79-.684 1.79-.684 2.762-2.255zm-.595 5.949c.272 1.285 1.021 2.099 2.34 2.604-1.385.25-2.27.898-2.774 2.146-.288-1.25-.975-2.128-2.212-2.605 1.251-.264 2.139-.94 2.646-2.145zm-.559 5.854c.283 1.279 1.006 2.109 2.384 2.632-1.455.224-2.319.922-2.835 2.334-.273-1.456-.973-2.332-2.396-2.835 1.47-.218 2.346-.916 2.847-2.131zm-.557 5.873c.294 1.254.978 2.137 2.187 2.6-1.253.289-2.137.944-2.623 2.18-.262-1.301-1.004-2.138-2.367-2.64 1.419-.248 2.303-.91 2.803-2.14zm-.552 5.872c.297 1.258.976 2.146 2.193 2.603-1.268.272-2.125.961-2.635 2.162-.279-1.256-.965-2.12-2.35-2.601 1.395-.292 2.303-.937 2.792-2.164zm-.545 5.86c.262 1.271.967 2.133 2.365 2.628-1.416.259-2.307.928-2.814 2.151-.271-1.288-1.014-2.13-2.355-2.626 1.418-.244 2.286-.922 2.804-2.153zm-.549 5.912c.271 1.274.998 2.098 2.313 2.584-1.341.29-2.278.891-2.754 2.167-.284-1.27-.997-2.132-2.394-2.635 1.453-.228 2.31-.935 2.835-2.116zm-.533 5.787c.271 1.301.927 2.205 2.336 2.665-1.391.296-2.336.912-2.799 2.175-.299-1.286-1.006-2.16-2.318-2.602 1.66-.495 1.896-.687 2.781-2.238zm-.588 5.921c.292 1.261.953 2.137 2.177 2.615-1.229.285-2.126.933-2.608 2.179-.27-1.289-1.014-2.128-2.381-2.642 1.453-.241 2.331-.925 2.812-2.152zm-1.58 7.275c.426-.349.713-.87 1.095-1.361.214 1.231.899 2.105 2.292 2.58-1.389.297-2.305.923-2.759 2.248-.538-1.272-.241-1.534-2.13-2.667.486-.25 1.062-.441 1.502-.8zm.5 4.295c.262 1.456.939 2.32 2.179 2.797-1.24.263-2.126.925-2.63 2.151-.312-1.232-.988-2.127-2.211-2.595 1.297-.248 2.138-.981 2.662-2.353zm-.563 5.879c.271 1.438.949 2.315 2.184 2.806-1.268.237-2.117.934-2.637 2.312-.321-1.379-.949-2.31-2.2-2.757 1.283-.263 2.136-.976 2.653-2.361zm-.574 6.038c.264 1.269.964 2.107 2.311 2.643-1.395.304-2.285.953-2.714 2.28-.647-1.773-.761-1.913-2.267-2.765 1.324-.263 2.219-.928 2.67-2.158zm-.56 5.875c.279 1.234.923 2.118 2.125 2.612-1.205.346-2.105.978-2.552 2.219-.26-1.266-.945-2.124-2.146-2.631 1.229-.311 2.117-.963 2.573-2.2zm-.551 5.918c.307 1.237.97 2.136 2.203 2.585-1.256.287-2.132.941-2.582 2.223-.929-1.954-1.043-2.086-2.369-2.673 1.343-.268 2.254-.91 2.748-2.135zm-.551 5.868c.285 1.279 1.008 2.133 2.209 2.611-1.312.238-2.146.97-2.668 2.347-.272-1.457-.937-2.31-2.168-2.79 1.22-.293 2.139-.93 2.627-2.168zm-.551 5.872c.277 1.281 1.016 2.122 2.288 2.593-1.646.498-2.009.797-2.714 2.206-.657-1.715-.93-2.036-2.32-2.658 1.34-.254 2.248-.909 2.746-2.141zm-.549 5.873c.283 1.263.974 2.118 2.375 2.611-1.444.273-2.339.928-2.808 2.174-.307-1.249-.95-2.171-2.194-2.622 1.276-.274 2.122-.979 2.627-2.163zm-.564 5.873c.297 1.256.985 2.141 2.188 2.546-.56.277-1.123.452-1.548.796-.432.349-.725.867-1.133 1.38-.226-1.189-.889-2.086-2.12-2.554 1.235-.286 2.119-.948 2.613-2.168zm-.539 5.888c.245 1.306 1.031 2.088 2.316 2.621-1.381.236-2.254.9-2.762 2.326-.303-1.425-.955-2.334-2.359-2.789 1.374-.304 2.302-.933 2.805-2.158zm-.518 5.79c.234 1.341.951 2.199 2.305 2.687-1.414.256-2.297.937-2.787 2.152-.305-1.267-.987-2.15-2.264-2.572 1.815-.701 1.838-.722 2.746-2.267zm-.552 5.916c.244 1.302.958 2.162 2.326 2.653-1.426.246-2.308.91-2.809 2.314-.308-1.397-.959-2.312-2.29-2.754 1.696-.592 1.696-.592 2.773-2.213zm-.598 5.896c.268 1.295 1.008 2.131 2.363 2.635-1.426.236-2.297.912-2.77 2.216-.709-1.809-.732-1.836-2.301-2.728 1.321-.217 2.208-.897 2.708-2.123zm-.549 5.868c.258 1.286.979 2.139 2.217 2.573-1.889.826-1.979.9-2.704 2.331-.251-1.405-.956-2.254-2.312-2.741 1.395-.263 2.291-.927 2.799-2.163zm-.6 5.942c.264.512.455 1.082.812 1.514.355.426.879.711 1.289 1.028-.437.221-1.014.41-1.456.767-.427.346-.712.863-1.118 1.377-.209-1.268-.943-2.114-2.213-2.568 1.659-.528 1.883-.708 2.686-2.118zm-.566 5.835c.281.551.465 1.11.814 1.532.355.429.875.721 1.375 1.113-1.192.21-2.078.875-2.58 2.308-.303-1.437-.962-2.349-2.205-2.814 1.291-.238 2.131-.972 2.596-2.139zm-.508 5.847c.292 1.27.982 2.143 2.216 2.566-1.985.98-1.985.98-2.694 2.335-.219-1.393-.949-2.236-2.129-2.739 1.26-.26 2.119-.945 2.607-2.162zm-.549 5.861c.283 1.275.957 2.139 2.366 2.622-1.396.286-2.312.928-2.814 2.141-.267-1.276-1.005-2.099-2.382-2.603 1.477-.248 2.35-.94 2.83-2.16zm-.552 5.891c.275 1.283.978 2.126 2.395 2.623-1.43.256-2.321.91-2.829 2.143-.304-1.237-.968-2.141-2.202-2.592 1.265-.287 2.156-.952 2.636-2.174zm-.582 5.823c.676 1.747.895 2.004 2.232 2.644-1.762.699-1.931.838-2.688 2.301-.233-1.39-.949-2.246-2.152-2.728 1.289-.254 2.133-.981 2.608-2.217zm-2.077 22.449c-.275-1.235-.939-2.087-2.329-2.597 1.388-.326 2.322-.944 2.763-2.208.266 1.281.969 2.14 2.362 2.652-1.421.279-2.314.937-2.796 2.153zm1.586-7.272c-.423.357-.704.883-1.102 1.406-.197-1.244-.875-2.089-2.076-2.612 1.256-.279 2.109-.991 2.538-2.177.276.565.446 1.131.79 1.556.348.429.865.719 1.293 1.056-.462.238-1.025.419-1.443.771zm-.473-4.434c-.256-1.287-.979-2.162-2.243-2.625 1.154-.481 1.502-.19 2.739-2.207.22 1.273.905 2.128 2.314 2.639-1.43.269-2.341.924-2.81 2.193zm4.765 12.293c-.261-1.248-.937-2.131-2.154-2.633 1.267-.289 2.12-1.009 2.605-2.206.231 1.304.976 2.135 2.139 2.657-1.268.275-2.098.96-2.59 2.182zm.553-5.686c-.292-1.403-.9-2.33-2.157-2.814 1.26-.296 2.129-.997 2.604-2.21.246 1.27.953 2.107 2.092 2.647-1.239.308-2.075.993-2.539 2.377zm.566-6.066c-.293-1.253-.967-2.167-2.215-2.638 1.289-.259 2.148-.968 2.656-2.16.244 1.283.979 2.098 2.325 2.618-1.399.284-2.304.915-2.766 2.18zm4.746 12.502c-.266-1.417-.906-2.316-2.145-2.825 1.236-.299 2.126-.972 2.602-2.187.248 1.276.966 2.105 2.357 2.644-1.451.251-2.33.933-2.814 2.368zm.564-5.888c-.277-1.409-.936-2.312-2.122-2.824 1.267-.278 2.058-1.024 2.585-2.348.237 1.41.915 2.267 2.289 2.797-1.391.304-2.283.953-2.752 2.375zm5.375 6.246c-1.09-2.037-1.09-2.037-2.369-2.684 1.417-.209 2.262-.936 2.771-2.332.252 1.458.945 2.322 2.346 2.836-1.447.269-2.33.947-2.748 2.18zm.511-5.714c-.305-1.384-.934-2.308-2.147-2.796 1.273-.289 2.107-1.015 2.584-2.206.252 1.278.937 2.136 2.127 2.636-1.223.322-2.094.962-2.564 2.366zm5.307 6.435c-.294-1.388-.906-2.332-2.176-2.807 1.32-.253 2.13-1.035 2.66-2.362.205 1.446.911 2.289 2.31 2.82-1.432.276-2.325.942-2.794 2.349zm.549-5.864c-.273-1.395-.9-2.311-2.131-2.809 1.252-.287 2.089-1.005 2.588-2.199.243 1.277.949 2.131 2.164 2.637-1.263.277-2.145.964-2.621 2.371zm.602-5.985c-.793-2.12-.979-1.94-2.281-2.759 1.354-.208 2.191-.949 2.633-2.117.27.555.439 1.123.785 1.549.35.43.874.719 1.38 1.115-1.183.238-2.089.893-2.517 2.212zm4.72 12.21c-.271-1.244-.957-2.104-2.157-2.617 1.289-.265 2.121-1.017 2.641-2.364.203 1.461.946 2.297 2.297 2.84-1.443.256-2.286.956-2.781 2.141zm.594-5.827c-.861-1.899-.861-1.899-2.21-2.655 1.601-.595 1.601-.595 2.661-2.229.21 1.3.913 2.16 2.315 2.685-1.462.264-2.332.962-2.766 2.199zm5.289 6.542c-.307-1.353-.914-2.297-2.186-2.766 1.293-.267 2.133-1.01 2.635-2.183.251 1.277.969 2.112 2.334 2.638-1.431.271-2.302.94-2.783 2.311zm.543-5.85c-.276-1.396-.936-2.305-2.16-2.795 1.268-.283 2.112-.989 2.611-2.329.295 1.371.916 2.299 2.183 2.756-1.263.298-2.154.976-2.634 2.368zm5.315 6.417c-.275-1.377-.91-2.283-2.157-2.781 1.263-.286 2.14-.985 2.615-2.355.277 1.393.917 2.309 2.167 2.794-1.299.267-2.14.999-2.625 2.342zm.556-5.858c-.271-1.396-.908-2.314-2.143-2.795 1.277-.291 2.11-1.014 2.614-2.373.237 1.431.927 2.304 2.331 2.817-1.432.28-2.322.958-2.802 2.351zm5.304 6.318c-.257-1.293-.909-2.194-2.143-2.688 1.265-.29 2.149-.982 2.61-2.219.252 1.28.948 2.157 2.222 2.619-1.822.741-1.893.803-2.689 2.288zm.571-5.942c-.256-1.268-.96-2.113-2.168-2.628 1.271-.271 2.137-.981 2.639-2.378.24 1.44.909 2.332 2.162 2.82-1.291.268-2.146.986-2.633 2.186zm5.284 6.518c-.219-1.329-.896-2.211-2.133-2.709 1.271-.277 2.135-.993 2.642-2.38.233 1.441.927 2.321 2.217 2.779-1.79.693-1.871.762-2.726 2.31zm.611-5.886c-.586-1.718-.727-1.89-2.137-2.668.518-.263 1.098-.45 1.534-.812.429-.355.711-.888 1.093-1.389.186 1.24.898 2.104 2.105 2.612-1.287.271-2.137.998-2.595 2.257zm6.342 4.944c-.428.357-.717.882-1.09 1.364-.215-1.201-.891-2.084-2.297-2.585 1.436-.302 2.339-.97 2.774-2.314.533 1.697.752 1.966 2.127 2.714-.513.268-1.084.461-1.514.821zm-.489-4.472c-.26-1.261-.955-2.111-2.34-2.627 1.406-.288 2.309-.943 2.778-2.32.313 1.34.919 2.283 2.184 2.764-1.276.271-2.131.99-2.622 2.183zm.593-5.927c-.255-.501-.443-1.071-.796-1.508-.348-.431-.863-.728-1.279-1.063.454-.233 1.03-.42 1.463-.781.426-.354.705-.885 1.07-1.365.227 1.176.863 2.076 2.157 2.537-1.858.854-1.858.854-2.615 2.18zm4.713 12.523c-.249-1.412-.936-2.283-2.244-2.768 1.706-.58 1.978-.811 2.728-2.277.251 1.289.918 2.194 2.141 2.705-1.278.264-2.109.99-2.625 2.34zm.556-5.895c-.269-1.371-.91-2.283-2.15-2.758 1.268-.303 2.147-.99 2.568-2.259.775 1.868.836 1.94 2.317 2.733-1.402.234-2.226.97-2.735 2.284zm5.306 6.446c-.235-1.413-.911-2.278-2.322-2.787 1.424-.29 2.332-.95 2.791-2.187.27 1.256.96 2.118 2.174 2.644-1.307.236-2.119 1.013-2.643 2.33zm.549-5.852c-.218-1.438-.911-2.292-2.329-2.822 1.443-.272 2.338-.941 2.813-2.375.266 1.423.914 2.337 2.154 2.822-1.288.286-2.125 1.035-2.638 2.375zm5.338 6.434c-.25-1.45-.938-2.319-2.348-2.823 1.446-.284 2.35-.945 2.802-2.201.28 1.245.921 2.147 2.145 2.65-1.261.279-2.095 1-2.599 2.374zm.539-5.867c-.217-1.45-.92-2.289-2.099-2.824 1.242-.292 2.099-.977 2.581-2.376.266 1.417.92 2.323 2.129 2.825-1.296.266-2.093 1.032-2.611 2.375zm5.318 6.396c-.23-1.424-.907-2.284-2.311-2.781 1.389-.32 2.337-.925 2.776-2.217.269 1.254.947 2.142 2.146 2.654-1.276.268-2.075 1.032-2.611 2.344zm.588-6.03c-.262-1.246-.932-2.109-2.102-2.629 1.229-.318 2.08-.986 2.535-2.209.266 1.253.959 2.132 2.153 2.648-1.254.293-2.109.989-2.586 2.19zm5.311 6.442c-.25-1.309-.962-2.143-2.334-2.654 1.415-.284 2.32-.941 2.78-2.206.278 1.242.924 2.162 2.165 2.654-1.282.288-2.138 1.005-2.611 2.206zm.557-5.873c-.236-1.289-.959-2.115-2.275-2.66 1.387-.305 2.264-.965 2.734-2.382.27 1.425.914 2.325 2.131 2.825-1.245.309-2.122 1.006-2.59 2.217zm5.289 6.451c-.242-1.293-.904-2.182-2.141-2.662 1.246-.294 2.152-.95 2.623-2.209.255 1.258.95 2.13 2.189 2.602-1.881.738-1.8.832-2.671 2.269zm.529-5.852c-.183-1.351-.907-2.152-2.203-2.693 1.35-.322 2.25-.961 2.701-2.203.276 1.241.932 2.147 2.217 2.583-1.938.823-1.777.798-2.715 2.313zm5.421 6.27c-.255-.505-.432-1.061-.776-1.476-.354-.427-.871-.716-1.396-1.127 1.199-.203 2.078-.862 2.575-2.079.28 1.245.989 2.08 2.175 2.549-1.802.821-1.802.821-2.578 2.133zm.522-5.825c-.279-1.237-.966-2.067-2.213-2.544 1.66-.673 1.629-.547 2.711-2.225.23 1.273.894 2.127 2.097 2.625-1.231.274-2.095.949-2.595 2.144zm5.28 6.53c-.246-1.319-.909-2.189-2.113-2.68 1.228-.284 2.09-.961 2.593-2.145.304 1.233.958 2.115 2.346 2.557-1.664.5-1.98.754-2.826 2.268z" fill="#f3765a"/><path d="m94.038 100.154h83.163v14.784h-83.163z" fill="#fff" transform="matrix(-.9956 -.0939 .0939 -.9956 260.5442 227.3489)"/><path d="m95.265 101.51h79.797v12.181h-79.797z" fill="#453d3a" transform="matrix(-.9956 -.0939 .0939 -.9956 259.6288 227.4154)"/><path d="m93.712 136.731h67.454v115.134h-67.454z" fill="#fff" transform="matrix(-.9956 -.0939 .0939 -.9956 236.0762 399.6997)"/><path d="m96.638 141.725h61.602v105.145h-61.602z" fill="#f6917b" transform="matrix(-.9956 -.0939 .0939 -.9956 236.0787 399.6994)"/><path d="m118.53 288.777-60.258-5.682-20.816 20.621 78.963 7.447 78.963 7.445-16.596-24.149z" fill="#c05841"/><path d="m34.879 311.057h158.626v47.434h-158.626z" fill="#f2b965" transform="matrix(-.9956 -.0939 .0939 -.9956 196.4523 678.7905)"/><path d="m46.891 318.463h134.601v32.624h-134.601z" fill="#f3765a" transform="matrix(-.9956 -.0939 .0939 -.9956 196.45 678.7908)"/><path d="m70.425 36.12 9.448 17.906 60.257 5.682 60.258 5.683 12.629-15.825-71.295-6.724z" fill="#f6917b"/><path d="m70.947 25.017h143.224v17.865h-143.224z" fill="#f3765a" transform="matrix(-.9956 -.0939 .0939 -.9956 281.3022 81.1334)"/><path d="m84.399 22.742-.365-.034c-.66-.062-1.248.423-1.311 1.084l-.844 8.951c-.062.662.424 1.248 1.085 1.311l.364.034c.662.062 1.248-.423 1.311-1.084l.845-8.951c.062-.662-.422-1.249-1.085-1.311z" fill="#fcc9b1"/><path d="m89.46 23.219-.365-.035c-.662-.062-1.248.423-1.311 1.084l-.844 8.952c-.063.661.423 1.248 1.084 1.311l.365.034c.66.062 1.248-.423 1.311-1.084l.844-8.951c.062-.662-.424-1.248-1.084-1.311z" fill="#fcc9b1"/><path d="m105.864 24.766-.364-.034c-.661-.062-1.248.423-1.31 1.084l-.844 8.951c-.062.662.422 1.248 1.084 1.311l.365.034c.66.062 1.248-.423 1.309-1.084l.846-8.951c.063-.662-.424-1.248-1.086-1.311z" fill="#fcc9b1"/><path d="m110.925 25.243-.365-.035c-.661-.062-1.248.424-1.311 1.085l-.844 8.951c-.062.661.424 1.248 1.084 1.31l.365.035c.662.062 1.248-.423 1.311-1.085l.845-8.951c.061-.661-.423-1.247-1.085-1.31z" fill="#fcc9b1"/><path d="m127.331 26.791-.365-.035c-.66-.062-1.248.423-1.311 1.084l-.844 8.951c-.062.661.423 1.248 1.084 1.311l.365.034c.662.062 1.248-.423 1.311-1.084l.844-8.951c.063-.662-.423-1.248-1.084-1.31z" fill="#fcc9b1"/><path d="m132.391 27.267-.364-.034c-.662-.062-1.25.423-1.311 1.084l-.845 8.951c-.063.662.423 1.248 1.085 1.31l.365.035c.66.062 1.248-.423 1.309-1.084l.845-8.951c.063-.661-.423-1.248-1.084-1.311z" fill="#fcc9b1"/><path d="m148.796 28.814-.365-.035c-.662-.062-1.248.423-1.31 1.085l-.845 8.951c-.062.662.424 1.248 1.086 1.311l.364.035c.661.062 1.248-.424 1.311-1.085l.844-8.951c.062-.662-.424-1.249-1.085-1.311z" fill="#fcc9b1"/><path d="m153.856 29.292-.365-.034c-.662-.062-1.248.423-1.311 1.084l-.844 8.951c-.062.662.424 1.248 1.084 1.311l.365.034c.662.062 1.248-.423 1.311-1.084l.844-8.951c.063-.663-.422-1.249-1.084-1.311z" fill="#fcc9b1"/><path d="m170.263 30.838-.365-.034c-.662-.062-1.248.423-1.311 1.084l-.844 8.952c-.062.661.422 1.247 1.084 1.31l.365.035c.661.062 1.248-.423 1.311-1.084l.844-8.951c.062-.662-.424-1.249-1.084-1.312z" fill="#fcc9b1"/><path d="m175.321 31.316-.364-.035c-.661-.062-1.248.423-1.311 1.084l-.845 8.951c-.062.661.424 1.248 1.086 1.311l.364.034c.661.062 1.248-.423 1.311-1.084l.843-8.951c.064-.662-.423-1.248-1.084-1.31z" fill="#fcc9b1"/><path d="m191.728 32.863-.365-.035c-.661-.062-1.247.423-1.311 1.084l-.844 8.951c-.062.661.424 1.248 1.085 1.311l.364.034c.66.062 1.248-.423 1.311-1.084l.844-8.951c.062-.661-.423-1.248-1.084-1.31z" fill="#fcc9b1"/><path d="m196.786 33.34-.363-.035c-.662-.062-1.249.423-1.311 1.085l-.844 8.951c-.062.661.423 1.248 1.084 1.31l.365.035c.66.062 1.247-.424 1.31-1.085l.845-8.951c.063-.661-.424-1.248-1.086-1.31z" fill="#fcc9b1"/><path d="m145.682.832c-36.994-3.489-68.413 4.308-73.244 17.624l141.888 13.291c-2.368-13.953-31.729-27.435-68.644-30.915z" fill="#f2b965"/><path d="m127.234 177.936c-1.106-.143-1.976.47-2.57 1.88-2.27 5.229-4.548 9.336-6.489 12.318-.447.652-2.956 5.163-4.252 4.578-2.289-1.104.973-13.996 3.237-18.376 1.745-3.348-1.843-5.423-4.466-3.393-3.936 3.257-6.129 14.244-5.412 20.564.72 6.282 6.158 9.188 10.148 2.887 1.629-2.548 3.43-6.083 4.998-8.792-.252 2.678-1.276 10.262-.268 13.06.982 2.679 4.553 2.475 5.252-.432.753-3.056 4.101-23.814-.178-24.294z" fill="#453d3a"/><path d="m149.046 198.75c-1.844 1.949-4.934 5.248-6.809 1.403-.57-1.327-.934-2.789-1.378-4.221-.413-1.351-.856-2.783-2.28-3.65.342-.354.531-.722.793-1.045 2.283-2.524 4.603-5.008 6.887-7.533.293-.243.593-.562.852-.846.705-.937-.232-2.454-1.414-1.793-.491.301-.986.641-1.371 1.028-2.318 2.483-4.365 4.954-6.864 7.304-.102-1.785.906-7.557.917-9.717-.012-.696-.215-1.41-.508-1.978-.882-1.704-2.91-1.895-4.094-.386-.479.573-.818 1.312-1.078 2.021-2.602 6.702-2.492 14.548-2.676 21.825-.008.888.139 1.789.408 2.624.285 1.07 1.111 1.727 2.262 1.797 1.152.069 2.048-.425 2.492-1.463.344-.779.578-1.605.693-2.444.316-1.707.486-3.505.686-5.224.069-.727.43-1.271 1.131-1.746 1.117 1.65 1.486 3.884 2.308 5.814.31.802.739 1.575 1.298 2.207 1.098 1.454 2.847 1.735 4.404.763 1.639-1.003 3.055-2.104 4.361-3.68 1.07-1.518.01-2.159-1.02-1.06z" fill="#453d3a"/></svg>