<svg enable-background="new 0 0 400 400.318" height="400.318" viewBox="0 0 400 400.318" width="400" xmlns="http://www.w3.org/2000/svg"><path clip-rule="evenodd" d="m369.318 335.142c-58.762 81.426-182.206 86.928-275.717 12.292-93.512-74.636-121.682-201.149-62.92-282.575 58.762-81.425 182.205-86.929 275.718-12.292 93.511 74.636 121.681 201.148 62.919 282.575z" fill="#dde9de" fill-rule="evenodd"/><path d="m89.755 356.707-1.015 23.727s12.609-1.67 14.235 3.008c.204.668-9.765-2.006-11.392 0s8.136 5.349 8.136 8.356c0 3.004-12.503-4.932-13.467-4.346-3.286 1.99 1.265-29.073 1.265-29.073z" fill="#f79871"/><path d="m67.168 364.549-1.016 23.728s12.611-1.674 14.238 3.004c.202.67-9.761-2.002-11.39 0-1.629 2.006 8.136 5.348 8.136 8.355 0 3.006-12.501-4.93-13.469-4.346-3.283 1.99 1.266-29.073 1.266-29.073z" fill="#f79871"/><path d="m88.857 362.639c-3.362.111-12.716-11.075-12.716-11.075l24.812-7.729c0-.001-8.731 18.69-12.096 18.804z" fill="#453d3a"/><path d="m66.205 372.926c-4.677-.133-15.062-12.334-15.062-12.334l26.45-5.445c-.001-.001-6.711 17.912-11.388 17.779z" fill="#453d3a"/><path d="m181.421 192.524c-4.062 6.123-21.313 8.137-21.313 8.137l1.293-8.896z" fill="#f2b965"/><path d="m71.107 247.437c27.056-6.319 27.189-14.461 37.408-34.611 12.559-33.795 43.721-37.078 54.882-22.24 8.85 11.77-8.716 19.58-15.475 27.48-7.233 8.451-8.265 15.199-6.857 22.41 4.211 21.523 11.994 35.958 2.736 58.167-7.663 18.385-22.402 33.621-39.253 43.914-16.396 10.014-26.368 18.062-44.832 23.048-5.294 1.429-53.432 9.114-53.99 11.962 0-.004 3.619-17.289 4.441-23.193 4.782-42.37 33.885-100.615 60.94-106.937z" fill="#7e8283"/><path d="m71.847 243.649c31.625-6.9 27.102 26.17 19.623 40.462-7.48 14.295-38.545 51.297-82.983 70.262l-3.258.411s15.294-94.783 66.618-111.135z" fill="#453d3a"/><path d="m139.69 198.235c.689-.328 1.991-.73 2.69-.197.568.431.694 1.478.09 1.967-.209.172-.474.26-.709.396-.367.215-.658.547-1.026.762-.504.297-1.157.345-1.68.078-.521-.266-.868-.859-.796-1.439.093-.733.763-1.248 1.431-1.567z" fill="#010101"/><path d="m122.64 306.328c.259-.006.557-.007.885-.002.167.012.342-.02.523-.033.185-.016.377-.034.577-.051.198-.004.401-.064.618-.1.212-.041.432-.076.662-.125.899-.241 1.907-.57 2.932-1.129 1.017-.564 2.058-1.312 2.991-2.289.93-.975 1.752-2.186 2.262-3.583.059-.173.122-.351.185-.527.059-.179.085-.366.131-.548.045-.186.085-.371.128-.557.027-.193.057-.389.081-.582.088-.789.108-1.621.103-2.488.005-1.729-.127-3.618.269-5.627.201-.996.563-1.996 1.1-2.859.524-.869 1.163-1.592 1.786-2.254 1.26-1.316 2.489-2.398 3.276-3.668.83-1.25 1.341-2.623 1.641-3.961.304-1.339.421-2.639.452-3.836.057-2.393-.134-4.363-.229-5.728-.104-1.365-.127-2.135.002-2.154.122-.021.376.703.701 2.046.308 1.345.704 3.318.816 5.832.052 1.254.007 2.651-.259 4.143-.262 1.484-.782 3.076-1.703 4.559-.238.365-.469.742-.747 1.092-.271.346-.56.686-.857 1.008-.59.654-1.207 1.264-1.789 1.891-.577.627-1.122 1.269-1.535 1.969-.421.688-.698 1.453-.868 2.291-.338 1.674-.248 3.473-.265 5.264-.011.896-.045 1.802-.167 2.697-.034.225-.068.447-.106.67-.057.223-.11.443-.164.662-.062.219-.103.44-.181.648-.076.209-.155.416-.235.62-.648 1.636-1.653 2.991-2.757 4.05-1.109 1.062-2.321 1.832-3.488 2.378-1.177.539-2.318.814-3.321.976-.255.029-.501.041-.737.061-.236.012-.461.049-.678.028-.219-.009-.426-.019-.623-.026-.2-.012-.386-.01-.562-.048-.352-.062-.663-.118-.929-.171-.264-.07-.478-.155-.654-.221-.347-.133-.518-.232-.5-.293.016-.062.219-.082.576-.066.181.003.398.029.657.041z" fill="#faf9f4"/><path d="m91.169 304.602c1.122-.393 2.758-.898 4.674-1.711.954-.408 1.974-.906 2.994-1.538 1.017-.645 2.033-1.405 2.916-2.396.893-.977 1.673-2.145 2.188-3.462.266-.655.433-1.351.525-2.06.088-.707.09-1.437-.048-2.146-.116-.717-.373-1.455-.6-2.229-.222-.773-.448-1.59-.459-2.49-.027-.891.259-1.867.813-2.57.544-.707 1.201-1.161 1.781-1.57.594-.402 1.095-.766 1.562-1.186.117-.104.23-.21.342-.312.117-.104.214-.221.321-.328.103-.113.21-.217.31-.33.095-.116.189-.23.282-.344.745-.916 1.3-1.883 1.701-2.814.405-.931.653-1.822.815-2.617.036-.201.07-.395.103-.581.03-.188.046-.368.066-.542.052-.35.052-.668.075-.957.013-.578.017-1.035.008-1.344 0-.312.024-.486.078-.497s.134.14.238.442c.11.304.209.768.288 1.373.027.303.073.643.064 1.016 0 .186.009.381 0 .586-.017.201-.03.411-.045.629-.088.869-.278 1.856-.649 2.903-.37 1.044-.924 2.146-1.705 3.204-.097.131-.202.264-.301.397-.103.13-.22.255-.331.386-.114.127-.221.261-.345.383-.122.122-.248.244-.374.369-.506.488-1.1.947-1.656 1.346-.553.408-1.078.816-1.418 1.291-.34.465-.496 1.01-.477 1.643.013.631.198 1.332.419 2.066.215.738.5 1.516.648 2.4.167.879.166 1.771.053 2.622-.116.854-.33 1.677-.648 2.433-.621 1.521-1.536 2.822-2.563 3.885-1.018 1.078-2.19 1.891-3.31 2.529-1.131.629-2.235 1.092-3.256 1.453-2.05.707-3.749 1.051-4.923 1.264-1.176.205-1.836.256-1.864.153-.026-.109.588-.363 1.708-.749z" fill="#faf9f4"/><path d="m57.345 277.325c.531.397 1.325.944 2.388 1.444 1.058.5 2.405.934 3.937 1.098.764.074 1.572.08 2.399-.011.823-.073 1.731-.337 2.779-.21.516.068 1.052.279 1.456.609.412.322.709.716.961 1.09.257.378.468.748.687 1.088.109.172.219.332.337.475l.173.223c.06.074.127.139.191.205 1.022 1.09 2.343 1.639 3.46 1.861.568.105 1.091.131 1.555.122.23-.017.442-.028.641-.056.193-.035.376-.053.536-.09.161-.037.302-.067.428-.098.122-.033.226-.062.313-.086.169-.045.269-.055.281-.027.014.027-.057.092-.209.191-.076.049-.174.111-.291.172-.122.055-.266.115-.423.184-.163.066-.352.113-.554.176-.206.053-.433.092-.68.133-.494.061-1.064.08-1.69.006-1.241-.16-2.745-.695-3.961-1.912-.073-.076-.154-.148-.226-.23-.067-.084-.138-.168-.207-.25-.145-.17-.271-.348-.39-.527-.24-.357-.458-.723-.694-1.062-.236-.338-.488-.653-.787-.88-.297-.238-.64-.369-1.03-.426-.795-.107-1.663.113-2.563.193-.899.088-1.771.062-2.589-.041-1.638-.223-3.048-.752-4.127-1.355-1.086-.602-1.853-1.254-2.333-1.745-.245-.241-.407-.451-.516-.599-.104-.146-.148-.234-.126-.256.022-.02.107.025.254.128.147.105.345.269.62.463z" fill="#faf9f4"/><path d="m46.913 291.262c.984.402 2.211.763 3.606.908.693.079 1.43.094 2.187.037.382-.026.755-.074 1.157-.135.405-.059.84-.124 1.315-.092.478.027.971.203 1.353.486.385.281.671.639.899.99.448.707.732 1.411 1.093 1.99.689 1.146 1.842 1.762 2.832 2.012 1.006.256 1.872.156 2.444.028.286-.073.509-.136.658-.19.153-.049.243-.062.257-.039.013.023-.051.086-.18.184-.131.105-.347.219-.639.347-.581.232-1.522.442-2.663.233-.564-.104-1.173-.311-1.763-.662-.591-.342-1.155-.859-1.581-1.512-.416-.639-.721-1.343-1.126-1.955-.398-.613-.93-1.07-1.643-1.102-.355-.025-.74.023-1.137.082-.399.059-.82.105-1.223.128-.81.048-1.594.017-2.33-.088-1.474-.196-2.749-.636-3.754-1.13-1.005-.488-1.738-1.02-2.208-1.424-.469-.406-.68-.678-.649-.713.041-.048.323.141.838.457.513.316 1.265.759 2.257 1.16z" fill="#faf9f4"/><g fill="#af9269"><path d="m281.103 225.562c-18.268 18.598-36.517 37.211-54.768 55.822-.248.254-.484.52-.722.775.679.632 1.019.086 1.399-.304 18.413-18.776 36.827-37.552 55.24-56.328.175-.179.327-.38.49-.571-.068-.096-.137-.193-.206-.289-.481.295-1.05.504-1.433.895z"/><path d="m306.51 227.282c-17.794 18.147-35.588 36.292-53.383 54.439-.2.203-.389.422-.615.669.804.485 1.184-.089 1.608-.521 17.771-18.121 35.543-36.242 53.312-54.365.202-.205.388-.424.589-.646-.737-.535-1.1.006-1.511.424z"/><path d="m294.229 226.007c-18.557 18.895-37.101 37.805-55.642 56.715-.224.229-.432.473-.646.709.072.098.143.195.214.293.534-.346 1.154-.607 1.59-1.051 18.44-18.776 36.866-37.57 55.302-56.356.248-.253.58-.423.873-.633-.115-.171-.231-.343-.347-.515-.453.275-.985.471-1.344.838z"/><path d="m339.456 235.18c-17.993 18.345-35.985 36.69-53.976 55.038-.228.23-.445.475-.714.762.741.521 1.052.002 1.404-.357 18.039-18.392 36.078-36.784 54.115-55.178.18-.184.35-.381.534-.582-.664-.634-.996-.059-1.363.317z"/><path d="m329.025 231.986c-17.932 18.278-35.86 36.562-53.789 54.845-.241.246-.472.502-.704.748.771.631 1.069-.025 1.427-.391 17.934-18.277 35.862-36.56 53.795-54.837.229-.233.515-.409.813-.646-.853-.714-1.171-.097-1.542.281z"/><path d="m318.136 229.261c-17.784 18.136-35.569 36.271-53.354 54.408-.214.217-.409.455-.613.684.077.107.154.213.231.32.385-.229.844-.387 1.147-.697 17.819-18.146 35.627-36.305 53.435-54.463.182-.186.353-.383.536-.581-.655-.587-.998-.06-1.382.329z"/><path d="m349.255 238.962c-17.521 17.859-35.038 35.723-52.558 53.584-.367.373-.765.717-1.199 1.121.734.57 1.102.146 1.513-.273 17.697-18.055 35.399-36.104 53.1-54.154.194-.198.365-.42.556-.641-.737-.621-1.051-.004-1.412.363z"/><path d="m358.756 243.108c-16.943 17.277-33.887 34.555-50.831 51.834-.203.207-.395.43-.604.66.704.4 1.096.002 1.529-.439 16.893-17.236 33.791-34.465 50.689-51.695.181-.184.351-.377.54-.582-.601-.707-.95-.157-1.323.222z"/><path d="m266.282 226.892c-15.848 16.131-31.677 32.277-47.51 48.422-.16.164-.39.303-.464.499-.096.255-.064.558-.091.845 16.663-16.989 33.195-33.848 49.728-50.705-.022-.05-.046-.099-.069-.148-.536.357-1.151.636-1.594 1.087z"/><path d="m367.734 247.776c-15.638 15.938-31.27 31.88-46.908 47.816-.228.23-.526.395-.952.707 1.091.438 1.482-.078 1.918-.523 15.517-15.826 31.036-31.649 46.553-47.475.239-.244.46-.508.682-.753-.648-.729-.953-.119-1.293.228z"/><path d="m376.285 252.897c-13.769 14.031-27.532 28.066-41.296 42.104-.226.23-.436.475-.652.713.062.086.125.174.188.26.519-.326 1.125-.57 1.543-.996 13.619-13.855 27.221-27.729 40.822-41.602.226-.23.436-.476.652-.715-.621-.727-.928-.099-1.257.236z"/><path d="m351.015 292.644c.039.072.079.146.119.219.548-.357 1.183-.629 1.631-1.084 10.536-10.711 21.053-21.441 31.572-32.168.139-.141.354-.264.394-.428.065-.261.013-.552.009-.93-11.364 11.588-22.546 22.988-33.725 34.391z"/><path d="m216.804 263.53c-.355.363-.523.91-.857 1.514 11.019-11.236 21.884-22.314 32.614-33.258-.441.279-1.177.57-1.685 1.088-10.044 10.199-20.065 20.42-30.072 30.656z"/><path d="m372.541 284.431c.021.055.04.107.06.162.776-.52 1.662-.93 2.311-1.578 3.665-3.662 7.287-7.367 10.884-11.096.466-.483.694-1.193 1.031-1.799-.059-.025-.117-.052-.177-.078-4.702 4.797-9.406 9.592-14.109 14.389z"/></g><path d="m266.514 45.119h91.23v173.411h-91.23z" fill="#f3765a" transform="matrix(-.9965 -.0842 .0842 -.9965 612.0541 289.4554)"/><path d="m350.084 220.794c.018-.158-.008-.31-.094-.402-.942-.998-1.915-1.97-2.841-2.984-1.361-1.489-2.748-2.961-4.021-4.522-2.465-3.022-4.857-6.103-7.285-9.153-.095-.119-.262-.182-.39-.268-.195-.356-.351-.775-.621-1.096-.271-.318-.658-.537-1.002-.807.085-.035.193-.082.337-.143-.794-1.143-1.562-2.248-2.357-3.395-.168.291-.297.511-.476.82-.122-1.09-.741-1.674-1.64-2.045.383-.148.687-.266 1.034-.398-.818-1.277-1.595-2.488-2.441-3.809-.369.486-.683.9-1.018 1.34-.125-.983-.745-1.562-1.51-1.895.437-.266.865-.51 1.274-.785.22-.146.247-.338.083-.598-.504-.795-.974-1.611-1.453-2.422-.456-.77-.733-.846-1.461-.288-.296.228-.505.571-.745.868-.072.092-.119.203-.23.398-.157-1.07-.75-1.663-1.752-2.059 1.101-.167 1.726-.727 2.073-1.648.608 1.375.838 1.643 1.569 1.803-.534-.928-1.05-1.828-1.567-2.728-.402-.7-.62-1.556-1.638-1.805.227-.096.355-.149.523-.222-.67-1.262-1.328-2.498-2.047-3.849-.309.44-.562.8-.846 1.204-.161-.976-.719-1.605-1.576-1.92.431-.232.831-.432 1.213-.664.284-.173.321-.4.158-.723-.694-1.363-1.363-2.738-2.033-4.113-.364-.748-.715-1.502-1.095-2.304-.124.198-.209.334-.342.545-.166-1.04-.742-1.657-1.645-2.003.395-.164.741-.308 1.104-.457-.529-1.197-1.026-2.316-1.521-3.437-.252-.57-.362-.646-.873-.259-.438.332-.777.794-1.146 1.184-.138-.865-.713-1.481-1.711-1.877 1.077-.189 1.71-.732 2.066-1.709.225.75.463 1.385 1.21 1.74-.027-.127-.028-.189-.054-.24-.38-.777-.86-1.521-1.117-2.336-.278-.883-.743-1.504-1.672-1.846.35-.135.606-.234.897-.347-.545-1.368-1.072-2.69-1.606-4.032-.86.197-1.299.799-1.66 1.629-.183-1.076-.724-1.709-1.615-2.028.395-.206.821-.35 1.144-.618.33-.279.559-.682.842-1.043.15.617.392 1.208 1.072 1.584-.028-.131-.027-.197-.054-.25-.385-.746-.608-1.555-1.002-2.312-.407-.788-.775-1.476-1.683-1.817.373-.15.672-.271.981-.396-.461-1.305-.9-2.538-1.329-3.774-.086-.246-.212-.288-.458-.213-.782.238-1.243.795-1.574 1.658-.181-1.092-.728-1.73-1.645-2.113.973-.182 1.593-.754 1.979-1.757.211.966.604 1.597 1.522 1.95-.386-1.131-.733-2.153-1.108-3.252-.144.246-.244.418-.385.66-.187-1.012-.706-1.66-1.716-2.004.32-.108.542-.169.751-.258.638-.27.691-.401.485-1.059-.688-2.178-1.371-4.355-2.055-6.533-.062-.201-.124-.402-.235-.758-.354.506-.63.896-.925 1.317-.167-.954-.703-1.589-1.677-1.951.348-.126.606-.188.836-.311.554-.294 1.195-.782 1.038-1.348-.274-.989-.09-2.294-1.595-2.822.796-.052.794-.392.596-.829-.055-.12-.069-.258-.106-.388-.293-1.044-.589-2.089-.893-3.163-.956.17-1.479.766-1.863 1.682-.183-1.064-.723-1.71-1.627-2.082.999-.199 1.585-.795 1.979-1.767.164.956.583 1.573 1.457 1.952-.319-1.176-.616-2.271-.946-3.49-.193.362-.32.602-.496.933-.167-1.042-.717-1.687-1.658-2.018.416-.185.75-.3 1.049-.475.406-.238.622-.542.43-1.082-.245-.693-.369-1.429-.579-2.136-.088-.294-.267-.561-.378-.783.028-.141.102-.289.073-.412-.215-.915-.451-1.824-.679-2.736-.099-.396-.193-.795-.292-1.199-.859.23-1.295.809-1.642 1.639-.17-1.094-.752-1.715-1.761-2.117 1.113-.171 1.714-.756 2.101-1.723.175.799.457 1.396 1.199 1.785-.263-1.074-.504-2.064-.772-3.164-.156.289-.251.465-.398.737-.183-1.043-.739-1.67-1.67-2.018.367-.147.667-.239.941-.383.434-.229.681-.517.493-1.092-.245-.747-.359-1.536-.562-2.298-.066-.251-.23-.477-.345-.705.024-.104.107-.255.082-.384-.133-.657-.294-1.31-.444-1.964-.152-.662-.303-1.326-.457-2.005-.89.206-1.348.786-1.712 1.645-.193-1.093-.773-1.714-1.812-2.109 1.146-.136 1.753-.733 2.128-1.657.39 1.145.656 1.495 1.31 1.719-.245-1.084-.486-2.146-.757-3.343-.197.364-.323.595-.497.915-.197-1.043-.758-1.678-1.632-1.99.396-.195.785-.352 1.133-.57.398-.25.593-.581.402-1.104-.172-.467-.208-.983-.335-1.471-.134-.518-.056-1.17-.911-1.283.273-.127.418-.193.573-.265-.312-1.423-.617-2.809-.925-4.216-.995.149-1.59.711-1.984 1.721-.194-1.09-.741-1.721-1.773-2.101 1.103-.187 1.73-.755 2.101-1.718.327 1.193.774 1.707 1.621 1.904-.268-1.227-.531-2.434-.795-3.641-.047-.008-.093-.014-.14-.02-.204.328-.407.655-.596.96-.195-.372-.337-.802-.608-1.122-.274-.322-.676-.537-1.037-.811.105-.035.199-.068.293-.097 1.207-.368 1.625-1.079 1.361-2.312-.021-.098-.055-.195-.062-.295-.067-.822-.388-1.451-1.368-1.66.184-.076.256-.126.333-.133.55-.054.605-.33.486-.828-.404-1.715-.758-3.439-1.13-5.161-.177-.813-.351-1.626-.525-2.438-.049-.02-.098-.038-.147-.057-.315.412-.632.824-.968 1.264-.18-.887-.692-1.557-1.631-1.889 1.079-.5 1.079-.5 2.001-1.673.095.267.189.536.285.808.044-.021.086-.041.13-.062-.405-1.317-.305-2.913-2.104-3.515.34-.127.604-.221.863-.324.248-.098.332-.234.274-.54-.462-2.419-.895-4.843-1.34-7.265-.04-.22-.108-.436-.17-.68-.823.242-1.257.8-1.603 1.648-.184-1.109-.734-1.74-1.646-2.109.995-.18 1.613-.762 1.967-1.735.33 1.112.585 1.468 1.246 1.743-.242-1.062-.477-2.086-.74-3.246-.176.338-.286.549-.462.885-.151-1.057-.712-1.686-1.603-2.023.427-.217.787-.385 1.131-.582.239-.137.342-.328.209-.629-.218-.49-.365-1.014-.598-1.496-.083-.171-.321-.344-.51-.373-.614-.093-1.238-.147-1.858-.16-.274-.006-.556.124-.775.178-.219-.104-.429-.271-.655-.299-.783-.098-1.576-.129-2.361-.219-.415-.049-.639.029-.619.505.013.317-.011.646-.081.953-.174.765-.041 1.351.802 1.594.009.003.004.057.006.104-.096.018-.194.031-.291.053-.477.105-.753.336-.745.891.009.586-.039 1.182-.146 1.758-.149.781-.044 1.383.816 1.635.006.003.007.031.016.074-.106.027-.211.06-.32.082-.485.1-.748.34-.739.889.009.553-.043 1.113-.138 1.658-.135.787-.113 1.461.808 1.742.009.002.009.03.02.072-.098.019-.193.033-.286.055-.482.113-.802.316-.782.914.021.602-.041 1.215-.148 1.809-.137.75-.031 1.319.794 1.553.018.006.022.055.037.096-.099.024-.193.049-.292.069-.499.104-.778.345-.765.922.014.585-.034 1.184-.146 1.757-.153.777-.022 1.35.809 1.6.012.004.011.051.017.09-.082.016-.163.032-.243.049-.512.105-.828.332-.812.939.018.586-.035 1.184-.146 1.758-.147.774-.029 1.354.816 1.594.011.004.009.051.014.084-.099.023-.194.051-.293.07-.501.102-.775.344-.764.92.014.602-.036 1.217-.151 1.808-.15.769.004 1.312.813 1.544.013.004.012.051.016.082-.098.027-.191.063-.289.084-.502.1-.773.342-.764.916.013.619-.089 1.24-.143 1.861-.084 1.006-.084 1.005.809 1.482.016.008.016.049.025.082-.099.029-.191.066-.289.084-.507.096-.784.332-.775.914.009.635-.094 1.273-.146 1.91-.084.983-.084.983.807 1.434.019.01.021.049.033.084-.113.035-.223.082-.336.102-.504.09-.729.355-.729.895 0 .637-.096 1.273-.149 1.911-.082.985-.082.985.803 1.435.018.01.02.049.034.086-.098.033-.188.08-.285.096-.517.084-.777.334-.777.906-.001.688-.104 1.375-.161 2.062-.074.879-.074.879.72 1.238.051.022.098.053.203.111-.178.054-.285.098-.397.119-.492.094-.735.344-.737.888-.003.671-.102 1.341-.158 2.012-.078.942-.078.942.803 1.327.022.012.033.047.068.097-.12.038-.228.084-.34.104-.491.092-.747.338-.746.884.002.603-.052 1.214-.15 1.808-.129.773-.083 1.406 1.022 1.57-.277.096-.383.148-.493.17-.489.093-.75.328-.753.879-.006.688-.104 1.375-.162 2.062-.077.918-.077.918.798 1.282.021.009.031.046.062.097-.116.039-.222.086-.331.109-.485.102-.743.342-.743.891-.002.67-.101 1.342-.157 2.012-.08.949-.08.949.806 1.326.018.008.021.049.044.103-.115.035-.221.077-.332.099-.49.102-.732.359-.734.9-.004.672-.102 1.342-.158 2.012-.08.949-.08.949.812 1.321.016.007.013.054.024.104-.091.029-.182.068-.276.088-.5.104-.785.336-.779.918.008.652-.097 1.307-.151 1.961-.082.975-.082.975.814 1.369.014.006.008.057.014.109-.075.021-.152.051-.231.064-.524.092-.823.334-.817.934.005.619-.045 1.25-.158 1.858-.135.726.012 1.242.771 1.472.011.003.007.059.011.111-.106.031-.216.07-.328.096-.453.102-.663.35-.665.846-.004.637-.045 1.283-.163 1.908-.137.731.025 1.236.771 1.475.012.004.006.061.013.115-.094.024-.188.052-.284.072-.462.102-.721.332-.711.862.009.536-.069 1.074-.127 1.608-.082.768-.318 1.592.88 1.816-.166.08-.255.102-.344.12-.493.103-.796.326-.787.907.009.586-.05 1.18-.145 1.76-.125.763-.121 1.42.9 1.6-.025.039-.05.078-.074.117-.095.019-.192.037-.288.057-.497.105-.787.338-.771.921.017.585-.036 1.183-.146 1.757-.145.768-.042 1.354.803 1.602.015.004.016.053.028.104-.085.012-.168.019-.246.037-.506.107-.832.328-.812.939.018.585-.033 1.184-.147 1.758-.153.775-.023 1.348.81 1.598.013.004.011.051.02.092-.1.02-.196.039-.295.06-.503.102-.773.353-.761.925.012.586-.034 1.184-.147 1.758-.154.778-.018 1.348.812 1.598.011.004.007.053.01.08-.114.031-.226.072-.339.092-.485.084-.701.342-.703.857-.004.621-.039 1.252-.16 1.858-.155.776.024 1.306.824 1.54.01.003.007.051.013.082-.1.025-.194.057-.292.078-.497.104-.778.336-.767.916.014.619-.036 1.251-.155 1.857-.153.766.051 1.265.819 1.488.015.004.016.051.024.084-.098.027-.192.061-.289.08-.501.098-.783.328-.772.91.012.636-.093 1.273-.146 1.91-.083.977-.083.977.802 1.438.02.011.026.048.045.085-.115.035-.225.082-.338.102-.501.088-.73.353-.733.889-.003.639-.095 1.275-.149 1.912-.084.993-.084.993.796 1.438.02.01.027.049.049.092-.116.035-.226.078-.338.099-.495.094-.737.346-.733.892.005.637-.095 1.273-.147 1.912-.085.996-.085.996.8 1.434.021.011.028.047.054.094-.117.035-.226.078-.341.099-.493.093-.734.345-.737.886-.004.672-.101 1.342-.157 2.012-.08.943-.08.943.798 1.331.023.011.036.045.075.094-.122.038-.229.086-.341.106-.491.092-.743.334-.749.881-.009.722-.108 1.441-.171 2.162-.066.782-.05.811.661 1.135.07.031.141.059.282.119-.184.062-.29.111-.401.133-.495.092-.741.346-.745.888-.007.671-.102 1.341-.158 2.013-.081.948-.081.947.801 1.328.019.008.026.047.052.092-.116.039-.222.088-.333.111-.49.102-.735.354-.738.896-.002.671-.1 1.342-.156 2.012-.08.938-.08.938.809 1.324.016.008.016.051.025.096-.094.034-.185.08-.279.098-.513.093-.778.346-.774.916.006.62-.091 1.24-.144 1.861-.089 1.043-.089 1.043.883 1.537-.163.051-.283.098-.406.127-.463.108-.7.352-.704.873-.006.688-.103 1.375-.161 2.062-.078.916-.078.916.798 1.281.021.009.031.05.064.109-.116.034-.22.071-.327.096-.479.105-.748.338-.748.889-.001.671-.102 1.342-.158 2.012-.08.959-.08.959.8 1.332.018.007.019.055.036.113-.091.027-.179.063-.272.08-.506.096-.783.338-.781.912.001.654-.099 1.309-.152 1.962-.081.94-.081.94.759 1.368.018.01.018.057.034.119-.091.025-.181.055-.272.075-.476.108-.745.343-.742.896.004.637-.094 1.273-.148 1.91-.084.994-.084.994.79 1.444.021.011.022.059.043.117-.1.021-.194.038-.287.058-.492.11-.789.334-.775.921.016.618-.036 1.251-.156 1.858-.149.76.036 1.27.814 1.492.015.004.016.057.022.086-1.008.264-1.105.377-.971 1.133 1.062.09 2.125.18 3.238.275-.255-.727-.789-1.086-1.57-1.393 1.084-.184 1.731-.725 2.113-1.62.204.98.787 1.577 1.791 1.963-.835.157-1.41.438-1.77 1.085 1.312.111 2.57.218 3.876.328-.274-.711-.793-1.073-1.448-1.373.983-.181 1.621-.758 1.993-1.672.164 1.016.765 1.611 1.763 2.004-.822.174-1.405.436-1.75 1.102 1.312.111 2.562.217 3.871.328-.26-.725-.792-1.086-1.439-1.385.983-.184 1.604-.777 2.01-1.793.159 1.123.729 1.729 1.658 2.078-1.201.463-1.385.596-1.627 1.141 1.262.106 2.52.213 3.814.322-.242-.729-.799-1.066-1.56-1.397 1.125-.165 1.746-.747 2.119-1.651.169 1.006.776 1.6 1.707 1.989-1.062.302-1.483.606-1.609 1.116 1.244.105 2.492.211 3.776.318-.244-.73-.793-1.075-1.436-1.381.992-.164 1.593-.77 1.98-1.689.323 1.025.323 1.025 1.653 2.055-.693.137-1.267.41-1.629 1.068 1.319.111 2.566.218 3.859.326-.235-.736-.792-1.074-1.544-1.396 1.091-.182 1.739-.74 2.104-1.654.181.992.752 1.611 1.637 1.99-.709.184-1.27.455-1.619 1.096 1.317.111 2.576.219 3.861.326-.255-.719-.805-1.067-1.575-1.387 1.135-.177 1.759-.752 2.139-1.797.161 1.127.735 1.75 1.746 2.141-.809.178-1.378.447-1.752 1.102 1.313.11 2.571.217 3.873.326-.252-.728-.793-1.08-1.571-1.387 1.108-.184 1.758-.742 2.118-1.66.188.988.763 1.604 1.777 2-.845.168-1.397.454-1.766 1.088 1.324.111 2.583.217 3.878.326-.258-.705-.79-1.056-1.545-1.388 1.087-.186 1.711-.741 2.093-1.779.184 1.106.755 1.731 1.74 2.122-.802.191-1.381.439-1.717 1.094 1.302.111 2.562.217 3.864.326-.268-.705-.791-1.063-1.54-1.381 1.077-.201 1.709-.76 2.092-1.777.175 1.088.726 1.729 1.769 2.113-.844.182-1.414.447-1.749 1.09 1.302.109 2.56.216 3.849.324-.247-.717-.8-1.045-1.505-1.379 1.054-.206 1.699-.743 2.046-1.658.205.98.754 1.629 1.824 1.998-.85.162-1.433.432-1.797 1.096 1.305.109 2.562.217 3.838.324-.227-.633-.358-.764-1.35-1.348 1.609-.639 1.501-1.008 1.939-1.733.18 1.001.713 1.679 1.667 2.021-.729.176-1.303.455-1.661 1.1 1.312.111 2.57.217 3.86.326-.257-.711-.797-1.051-1.555-1.391 1.119-.164 1.731-.74 2.1-1.635.196.987.779 1.606 1.785 1.994-.81.158-1.398.418-1.753 1.085 1.301.11 2.558.216 3.852.325-.254-.713-.788-1.059-1.551-1.381 1.097-.186 1.728-.741 2.106-1.773.204 1.09.739 1.75 1.734 2.081-1.12.36-1.417.567-1.671 1.124 1.258.107 2.515.213 3.823.324-.275-.711-.791-1.072-1.556-1.369 1.07-.219 1.742-.73 2.038-1.652.218.42.364.863.645 1.196.274.327.683.544 1.052.823-.692.121-1.254.411-1.632 1.066 1.332.113 2.582.219 3.877.328-.236-.726-.786-1.072-1.555-1.406 1.097-.182 1.739-.723 2.093-1.645.208.97.744 1.625 1.813 1.979-.832.191-1.435.434-1.776 1.111 1.301.11 2.559.217 3.856.326-.243-.725-.801-1.063-1.544-1.398 1.093-.178 1.724-.734 2.101-1.789.19 1.123.741 1.765 1.792 2.131-.835.175-1.425.436-1.778 1.104 1.307.111 2.565.217 3.971.336-.281-.353-.456-.641-.695-.855-.236-.211-.539-.348-.879-.559.99-.17 1.626-.705 2.012-1.604.184.994.809 1.567 1.731 1.958-1.012.244-1.469.565-1.646 1.094 1.253.105 2.511.212 3.805.32-.278-.705-.786-1.082-1.593-1.367 1.094-.191 1.754-.718 2.125-1.627.23.957.765 1.594 1.722 1.914-1.19.449-1.406.602-1.654 1.145 1.264.106 2.521.213 3.837.324-.268-.723-.807-1.078-1.442-1.391.992-.166 1.596-.761 1.956-1.682.362.877.161 1.133 1.681 2.043-.693.149-1.284.41-1.635 1.066.953.08 1.862.157 2.809.236-.089-.461.371-1.013-.312-1.295zm-14.718-16.44c.21.966.737 1.624 1.827 1.981-1.09.215-1.763.727-2.129 1.651-.193-.958-.745-1.575-1.78-1.962 1.066-.222 1.744-.716 2.082-1.67zm-4.071-4.809c.545 1.51.818 1.483 1.739 2.015-1.007.17-1.661.705-2.022 1.637-.2-.971-.759-1.613-1.736-1.962 1.222-.379 1.55-.656 2.019-1.69zm1.325 6.401c-.955.221-1.632.748-1.984 1.685-.202-.974-.753-1.609-1.659-1.978.958-.214 1.602-.73 1.963-1.811.218 1.08.711 1.766 1.68 2.104zm-5.364-11.332c.224 1.066.711 1.762 1.829 2.096-1.086.224-1.77.742-2.133 1.67-.208-.969-.752-1.594-1.792-1.971 1.091-.213 1.745-.732 2.096-1.795zm-57.888-1.084c-.228-.957-.757-1.632-1.697-1.98.979-.195 1.609-.754 1.986-1.644.208.964.742 1.575 1.779 1.942-1.037.239-1.748.703-2.068 1.682zm1.716 2.764c-1.089.207-1.752.725-2.111 1.664-.197-.971-.753-1.61-1.653-1.986.979-.18 1.582-.753 1.974-1.781.197 1.091.727 1.738 1.79 2.103zm9.427-134.928c.204.975.741 1.625 1.652 1.938-.416.213-.836.35-1.153.613-.322.268-.542.658-.846 1.045-.17-.895-.694-1.553-1.753-1.916 1.086-.221 1.747-.754 2.1-1.68zm-1.725-2.742c1.056-.238 1.76-.736 2.07-1.756.424 1.201.424 1.201 1.701 2.086-.951.174-1.604.677-1.967 1.604-.242-.915-.735-1.587-1.804-1.934zm1.355 7.164c.181 1.004.759 1.619 1.788 2.01-1.082.186-1.726.717-2.103 1.77-.226-1.087-.739-1.757-1.833-2.09 1.118-.207 1.794-.744 2.148-1.69zm38.63 123.642c.215 1.073.713 1.755 1.666 2.107-.963.2-1.599.767-1.984 1.774-.2-1.08-.747-1.725-1.667-2.076.969-.207 1.616-.724 1.985-1.805zm-1.742-2.635c1.101-.195 1.752-.72 2.119-1.794.212 1.076.713 1.758 1.657 2.098-.952.23-1.609.77-1.991 1.814-.174-1.111-.726-1.734-1.785-2.118zm-2.263-2.671c-.175-1.107-.726-1.745-1.783-2.139 1.1-.191 1.743-.729 2.107-1.768.219 1.045.707 1.723 1.657 2.08-.966.218-1.618.772-1.981 1.827zm-40.228.908c-.205-.973-.776-1.6-1.804-1.991 1.102-.179 1.716-.737 2.105-1.757.218 1.072.728 1.738 1.799 2.074-1.057.241-1.769.707-2.1 1.674zm1.744 2.769c-1.092.216-1.787.71-2.118 1.686-.216-.945-.732-1.622-1.801-2.004 1.093-.206 1.729-.733 2.1-1.784.218 1.085.728 1.751 1.819 2.102zm-1.375-7.167c-.188-1.006-.773-1.645-1.824-2.026 1.111-.163 1.747-.722 2.137-1.763.202 1.08.72 1.723 1.778 2.088-1.061.233-1.765.722-2.091 1.701zm.382-4.484c-.234-.956-.771-1.593-1.815-1.956 1.096-.195 1.748-.742 2.114-1.66.205.971.733 1.605 1.811 1.976-1.089.208-1.765.712-2.11 1.64zm7.412-87.811c.199.982.75 1.604 1.781 1.975-1.043.212-1.723.695-2.044 1.676-.707-1.417-.707-1.417-1.782-2.016 1.032-.161 1.677-.723 2.045-1.635zm-1.763-2.776c1.104-.195 1.771-.717 2.13-1.649.21.983.772 1.608 1.791 1.976-1.053.197-1.718.695-2.088 1.773-.235-1.076-.766-1.748-1.833-2.1zm26.102 84.364c-.2-.96-.74-1.607-1.653-1.965.948-.215 1.593-.74 1.967-1.805.204 1.088.731 1.743 1.805 2.115-1.097.197-1.748.729-2.119 1.655zm3.985 5.491c.235 1.044.722 1.735 1.674 2.075-.95.213-1.616.74-1.975 1.68-.196-.981-.764-1.609-1.778-1.994 1.075-.195 1.718-.719 2.079-1.761zm-30.564-7.754c-.208-.955-.765-1.574-1.782-1.966 1.082-.191 1.718-.75 2.104-1.77.188 1.092.73 1.719 1.78 2.101-1.082.193-1.741.71-2.102 1.635zm1.735 2.791c-1.082.2-1.745.714-2.109 1.784-.222-1.06-.741-1.728-1.66-2.098.963-.199 1.592-.764 1.978-1.779.196 1.08.722 1.72 1.791 2.093zm3.449-11.145c-.234-1.062-.752-1.748-1.723-2.057 1.213-.487 1.188-.311 2.056-1.703.171.985.727 1.62 1.761 1.992-1.082.198-1.732.715-2.094 1.768zm1.721 2.658c-1.079.207-1.749.715-2.096 1.793-.229-1.068-.737-1.75-1.679-2.105.976-.195 1.61-.762 1.996-1.795.187 1.091.72 1.731 1.779 2.107zm-1.35-7.072c-.226-1.064-.725-1.754-1.692-2.092.969-.203 1.623-.76 1.984-1.717.404 1.212.45 1.27 1.688 2.037-.964.203-1.638.705-1.98 1.772zm2.563-30.51c.193 1.107.707 1.756 1.637 2.112-.935.243-1.622.73-1.941 1.69-.234-.926-.714-1.624-1.664-1.977.975-.22 1.603-.784 1.968-1.825zm-1.592-2.614c.977-.203 1.589-.784 1.97-1.798.184 1.085.704 1.728 1.778 2.103-1.077.223-1.753.726-2.094 1.658-.226-.925-.727-1.59-1.654-1.963zm4.186 24.581c-.203-1.033-.718-1.688-1.652-2.042.959-.209 1.61-.757 1.99-1.792.196 1.096.748 1.739 1.736 2.084-1.217.357-1.549.635-2.074 1.75zm1.694 2.683c-1.203.352-1.553.645-2.074 1.76-.191-1.052-.719-1.693-1.769-2.061 1.08-.205 1.728-.756 2.115-1.776.195 1.093.748 1.731 1.728 2.077zm-1.296-7.08c-.236-1.016-.697-1.715-1.651-2.064.945-.24 1.611-.779 1.964-1.854.18 1.118.725 1.76 1.64 2.141-.959.215-1.602.746-1.953 1.777zm-3.367-13.119c.188 1.088.716 1.736 1.621 2.104-.965.217-1.582.768-1.945 1.793-.21-1.043-.696-1.721-1.646-2.092.961-.207 1.589-.774 1.97-1.805zm-.369 4.457c.19 1.086.738 1.713 1.786 2.094-1.104.199-1.745.723-2.104 1.635-.235-.926-.73-1.596-1.687-1.943.956-.213 1.614-.765 2.005-1.786zm-.36 4.551c.178.974.739 1.604 1.705 1.958-1.22.36-1.582.669-2.004 1.641-.201-.39-.345-.825-.617-1.153-.268-.322-.664-.536-1.009-.801 1.185-.515 1.021-.277 1.925-1.645zm-.412 4.435c.207.971.774 1.595 1.793 1.975-1.09.189-1.735.726-2.098 1.76-.22-1.035-.703-1.718-1.656-2.071.936-.226 1.601-.746 1.961-1.664zm-.349 4.295c.178 1.098.735 1.716 1.725 2.09-1.204.341-1.532.619-2.064 1.736-.203-1.002-.709-1.682-1.782-2.036 1.072-.214 1.729-.755 2.121-1.79zm3.303 13.668c.189 1.089.735 1.719 1.771 2.104-1.078.197-1.73.727-2.057 1.657-.681-1.415-.681-1.415-1.756-2.003 1.022-.169 1.656-.732 2.042-1.758zm.056-.553c-.228-1.062-.735-1.74-1.829-2.09 1.088-.206 1.771-.723 2.076-1.648.228.432.378.867.653 1.194.271.319.672.528 1.03.797-.918.176-1.569.693-1.93 1.747zm.374-4.436c-.233-1.043-.713-1.742-1.688-2.075.954-.213 1.629-.739 1.986-1.67.211.97.764 1.607 1.818 1.98-1.118.194-1.755.725-2.116 1.765zm4.024 5.419c.148 1.031.705 1.651 1.731 2.045-1.056.209-1.723.719-2.072 1.811-.217-1.086-.737-1.766-1.693-2.097 1.562-.593 1.453-.769 2.034-1.759zm.015-.613c-.192-1.055-.711-1.725-1.794-2.082 1.083-.219 1.761-.744 2.124-1.82.182 1.105.733 1.758 1.708 2.105-1.296.455-1.551.675-2.038 1.797zm.395-4.57c-.229-.941-.756-1.603-1.829-1.956 1.115-.195 1.78-.745 2.135-1.688.176.998.75 1.623 1.78 2.02-1.076.188-1.72.707-2.086 1.624zm.365-4.274c-.208-1.082-.729-1.743-1.812-2.109 1.103-.203 1.758-.742 2.123-1.676.187.982.752 1.623 1.784 2.003-1.079.194-1.725.713-2.095 1.782zm4.001 5.34c.202 1.086.729 1.746 1.641 2.1-.977.209-1.592.766-1.967 1.774-.209-1.077-.74-1.737-1.817-2.093 1.103-.18 1.756-.721 2.143-1.781zm.046-.536c-.198-1.073-.71-1.734-1.646-2.097.95-.22 1.606-.758 1.979-1.801.187 1.092.732 1.725 1.623 2.104-.965.206-1.581.765-1.956 1.794zm-3.673-9.389c-.22-.956-.756-1.587-1.771-1.95 1.057-.234 1.74-.743 2.078-1.688.193.979.75 1.613 1.791 2.01-1.098.187-1.73.739-2.098 1.628zm-3.677-9.093c-.229-1.051-.707-1.755-1.674-2.086.983-.207 1.613-.776 1.991-1.809.188 1.074.702 1.738 1.639 2.096-.958.226-1.606.758-1.956 1.799zm.359-4.468c-.199-1.01-.697-1.689-1.634-2.054.961-.221 1.599-.781 1.974-1.816.169 1.105.724 1.74 1.673 2.092-1.295.502-1.526.702-2.013 1.778zm-2.511-14.844c-.321.271-.536.668-.817 1.037-.191-.897-.706-1.574-1.64-1.92.985-.199 1.61-.765 1.936-1.646.21.406.347.826.609 1.145.269.321.659.54.985.797-.322.169-.75.315-1.073.587zm-4.47-8.023c-.218-1.077-.73-1.733-1.652-2.101.972-.197 1.59-.762 1.967-1.645.202.967.749 1.584 1.799 1.961-1.081.19-1.74.717-2.114 1.785zm-.058.533c.202 1.091.731 1.738 1.795 2.106-1.074.221-1.763.715-2.101 1.658-.225-.957-.761-1.613-1.688-1.969.987-.188 1.611-.75 1.994-1.795zm-.368 4.443c.199 1.068.702 1.736 1.64 2.082-.933.242-1.606.734-1.945 1.807-.24-1.061-.743-1.761-1.69-2.104.985-.197 1.611-.763 1.995-1.785zm-1.165 5.636c.319-.271.533-.67.829-1.058.143.948.695 1.567 1.735 1.956-1.077.209-1.732.719-2.087 1.783-.229-1.045-.715-1.737-1.664-2.042.448-.231.872-.371 1.187-.639zm.406 3.223c.215 1.076.719 1.742 1.651 2.088-.938.232-1.599.73-1.918 1.713-.636-1.514-.572-1.307-1.713-2.045.976-.182 1.612-.715 1.98-1.756zm-.374 4.551c.194.967.732 1.596 1.783 1.989-1.089.208-1.749.726-2.085 1.806-.229-1.068-.717-1.768-1.672-2.119.979-.194 1.607-.766 1.974-1.676zm-.38 4.438c.193.973.762 1.604 1.808 1.989-1.107.203-1.751.719-2.076 1.688-.629-1.438-.643-1.453-1.772-2.038 1.02-.168 1.668-.714 2.04-1.639zm-.37 4.345c.277 1.059.296 1.082 1.657 2.1-.949.171-1.597.682-1.953 1.609-.234-.92-.727-1.594-1.812-1.947 1.095-.227 1.759-.774 2.108-1.762zm-.377 4.52c.204.979.756 1.6 1.793 1.977-1.074.213-1.741.717-2.097 1.809-.213-1.086-.726-1.758-1.66-2.112.945-.225 1.616-.747 1.964-1.674zm-.381 4.322c.309 1.109.309 1.109 1.667 2.12-.954.169-1.596.69-1.961 1.743-.234-1.037-.709-1.738-1.67-2.078.946-.221 1.608-.746 1.964-1.785zm-.386 4.5c.382 1.072.382 1.072 1.673 2.051-.947.174-1.602.684-1.949 1.61-.24-.935-.746-1.597-1.693-1.948.964-.198 1.616-.756 1.969-1.713zm-.336 4.332c.181 1.113.729 1.738 1.746 2.109-1.036.232-1.729.713-2.062 1.676-.231-.947-.735-1.634-1.681-1.974.969-.207 1.607-.77 1.997-1.811zm-.39 4.57c.197.988.769 1.609 1.772 1.984-1.052.198-1.712.703-2.081 1.785-.215-1.078-.735-1.746-1.808-2.11 1.102-.201 1.751-.749 2.117-1.659zm3.322 13.551c.186 1.088.734 1.723 1.758 2.094-1.049.215-1.719.713-2.07 1.771-.252-1.053-.756-1.753-1.706-2.084.992-.191 1.621-.759 2.018-1.781zm.057-.695c-.223-.943-.756-1.602-1.68-1.955.991-.197 1.61-.777 2.003-1.799.171 1.117.734 1.74 1.756 2.113-1.054.207-1.717.708-2.079 1.641zm.377-4.264c-.234-1.074-.719-1.77-1.656-2.113.965-.217 1.583-.777 1.966-1.802.195 1.103.739 1.741 1.773 2.103-1.054.214-1.741.706-2.083 1.812zm3.996 5.33c.192 1.072.711 1.717 1.755 2.085-1.036.237-1.729.721-2.069 1.651-.227-.971-.784-1.607-1.702-1.959.992-.179 1.623-.746 2.016-1.777zm.053-.678c-.204-.961-.759-1.602-1.69-1.947 1.028-.408 1.204-.293 2.034-1.721.163 1.029.733 1.636 1.735 2.017-1.048.204-1.713.71-2.079 1.651zm.365-4.281c-.201-1.098-.729-1.744-1.647-2.117.953-.208 1.597-.752 1.97-1.792.2 1.1.749 1.741 1.783 2.107-1.076.195-1.737.718-2.106 1.802zm4.015 5.301c.171 1.102.708 1.751 1.76 2.122-1.061.224-1.74.731-2.079 1.675-.211-.967-.755-1.619-1.836-1.998 1.135-.17 1.775-.741 2.155-1.799zm.052-.613c-.189-.974-.743-1.629-1.797-2.017 1.112-.19 1.744-.759 2.123-1.802.166 1.112.716 1.752 1.762 2.132-1.071.21-1.743.724-2.088 1.687zm.376-4.461c-.213-.956-.75-1.594-1.771-1.973 1.05-.223 1.716-.74 2.077-1.801.203 1.094.74 1.76 1.785 2.113-1.073.209-1.744.725-2.091 1.661zm3.987 5.488c.214 1.066.73 1.729 1.805 2.086-1.092.211-1.761.729-2.108 1.665-.217-.974-.769-1.619-1.819-1.987 1.096-.182 1.745-.72 2.122-1.764zm.045-.621c-.19-1.011-.723-1.662-1.704-2.018 1.217-.411 1.217-.411 2.06-1.686.181.973.725 1.616 1.654 1.951-1.382.585-1.419.616-2.01 1.753zm.382-4.354c-.192-1.102-.74-1.748-1.779-2.119 1.088-.191 1.732-.744 2.116-1.793.182 1.117.743 1.748 1.792 2.122-1.099.187-1.75.724-2.129 1.79zm.382-4.449c-.21-1.073-.736-1.733-1.79-2.098 1.082-.209 1.743-.74 2.112-1.803.197 1.106.731 1.742 1.635 2.114-.946.209-1.581.744-1.957 1.787zm3.982 5.479c.222.939.731 1.605 1.671 1.967-.944.212-1.599.736-1.962 1.654-.214-.934-.739-1.58-1.786-1.957 1.063-.22 1.734-.725 2.077-1.664zm.078-.643c-.207-1.102-.738-1.761-1.652-2.121.966-.211 1.594-.761 1.976-1.807.184 1.102.726 1.752 1.796 2.119-1.098.201-1.763.724-2.12 1.809zm-1.274-6.553c.976-.221 1.6-.772 1.964-1.785.201 1.076.736 1.734 1.807 2.104-1.117.195-1.77.736-2.134 1.822-.181-1.131-.733-1.775-1.637-2.141zm5.275 11.883c.201 1.076.726 1.742 1.81 2.094-1.088.192-1.75.721-2.126 1.641-.216-.964-.77-1.605-1.694-1.955.994-.19 1.629-.749 2.01-1.78zm.058-.68c-.207-.953-.743-1.6-1.798-1.975 1.096-.198 1.737-.742 2.111-1.785.197 1.082.728 1.741 1.802 2.102-1.09.216-1.749.731-2.115 1.658zm-3.324-13.552c-.199-1.055-.708-1.713-1.771-2.08 1.064-.225 1.736-.738 2.101-1.808.201 1.097.735 1.755 1.659 2.11-.981.202-1.606.766-1.989 1.778zm-3.669-9.229c-.221-1.055-.72-1.738-1.681-2.046 1.46-.677 1.072-.313 2.027-1.704.17.963.716 1.592 1.753 1.984-1.097.189-1.737.731-2.099 1.766zm-3.687-9.211c-.204-1.07-.699-1.74-1.647-2.103.957-.228 1.616-.776 1.976-1.831.178 1.098.712 1.75 1.641 2.12-.963.215-1.608.752-1.97 1.814zm.376-4.463c-.217-1.061-.719-1.741-1.688-2.081.992-.194 1.646-.758 2.003-1.675.205 1.002.767 1.614 1.81 1.994-1.113.178-1.756.731-2.125 1.762zm-3.699-9.283c-.188-.983-.675-1.664-1.623-2.027.946-.225 1.593-.766 1.963-1.811.188 1.088.726 1.73 1.736 2.098-1.222.362-1.517.613-2.076 1.74zm-3.281-13.74c-.219-.951-.748-1.613-1.685-1.967.985-.193 1.616-.766 2.001-1.785.193 1.068.705 1.717 1.775 2.082-1.052.236-1.742.727-2.091 1.67zm-3.687-9.1c-.21-1.084-.751-1.736-1.697-2.089 1.252-.45 1.263-.46 2.028-1.704.188.978.705 1.633 1.789 1.994-1.087.206-1.757.719-2.12 1.799zm.385-4.575c-.223-.936-.747-1.596-1.652-1.963.964-.2 1.569-.774 1.961-1.776.196 1.08.73 1.726 1.789 2.089-1.062.208-1.74.696-2.098 1.65zm-3.721-8.434c.165.975.709 1.611 1.745 1.98-1.056.207-1.724.705-2.081 1.648-.223-.959-.781-1.612-1.743-1.955 1.096-.338 1.096-.338 2.079-1.673zm-.386 4.429c.189.971.714 1.621 1.752 1.969-1.043.236-1.743.716-2.077 1.693-.208-.964-.745-1.637-1.738-1.977 1.199-.402 1.199-.402 2.063-1.685zm-.402 4.459c.213.956.743 1.572 1.779 1.943-1.042.229-1.738.707-2.076 1.684-.219-.957-.751-1.631-1.684-1.99.972-.191 1.603-.75 1.981-1.637zm-.367 4.281c.211 1.08.719 1.732 1.762 2.084-1.016.254-1.744.701-2.053 1.686-.241-.938-.773-1.611-1.817-2.002 1.11-.185 1.732-.738 2.108-1.768zm-.343 4.565c.175.947.683 1.596 1.624 1.953-.955.221-1.621.748-1.967 1.693-.205-.975-.753-1.639-1.774-1.98 1.066-.293 1.066-.293 2.117-1.666zm-.419 4.43c.212.946.724 1.592 1.79 1.955-1.048.245-1.749.719-2.08 1.672-.223-.953-.752-1.615-1.692-1.965.972-.201 1.619-.741 1.982-1.662zm-.353 4.273c.186 1.118.719 1.749 1.619 2.119-.944.228-1.588.748-1.944 1.824-.198-1.083-.719-1.748-1.639-2.121.967-.216 1.589-.786 1.964-1.822zm-.386 4.573c.191.973.728 1.603 1.774 1.983-1.059.229-1.74.719-2.07 1.794-.255-1.028-.707-1.749-1.659-2.093.971-.22 1.599-.784 1.955-1.684zm-.354 4.284c.166 1.125.716 1.746 1.759 2.138-1.071.216-1.745.716-2.08 1.663-.226-.953-.741-1.625-1.697-1.977.988-.187 1.631-.761 2.018-1.824zm-.405 4.583c.208.968.743 1.627 1.733 1.959-1.273.434-1.539.66-2.053 1.781-.195-1.029-.689-1.712-1.662-2.055.955-.215 1.633-.737 1.982-1.685zm-.375 4.433c.201.971.75 1.605 1.646 1.98-.944.211-1.566.734-1.934 1.751-.258-1.001-.712-1.718-1.69-2.044.942-.23 1.634-.737 1.978-1.687zm-.372 4.43c.19.988.776 1.611 1.801 2.002-1.1.184-1.735.719-2.104 1.618-.218-.935-.734-1.567-1.759-1.938 1.04-.237 1.71-.754 2.062-1.682zm-.365 4.414c.18 1.008.761 1.621 1.769 2.011-1.062.199-1.723.712-2.076 1.644-.231-.954-.753-1.615-1.806-1.963 1.079-.218 1.767-.74 2.113-1.692zm-.378 4.441c.185.992.76 1.623 1.797 2.001-1.091.193-1.738.712-2.1 1.771-.236-1.054-.727-1.745-1.689-2.085.968-.204 1.632-.747 1.992-1.687zm-.383 4.341c.325 1.185.469 1.356 1.708 2.115-.993.159-1.641.694-2.008 1.622-.213-.965-.754-1.617-1.816-1.973 1.085-.193 1.751-.719 2.116-1.764zm-.359 4.4c.207 1.114.74 1.751 1.783 2.106-1.065.216-1.735.723-2.103 1.807-.208-1.084-.729-1.736-1.631-2.107.934-.224 1.578-.76 1.951-1.806zm-.383 4.576c.206.975.759 1.594 1.773 1.968-1.044.21-1.72.712-2.081 1.794-.224-1.068-.73-1.732-1.771-2.104 1.06-.227 1.725-.748 2.079-1.658zm-.379 4.433c.218.953.743 1.59 1.777 1.959-1.043.221-1.72.721-2.074 1.635-.227-.934-.759-1.558-1.653-1.939.946-.209 1.593-.746 1.95-1.655zm3.319 13.519c.203 1.099.729 1.749 1.639 2.104-.944.224-1.589.745-1.956 1.797-.205-1.088-.766-1.729-1.768-2.119 1.076-.188 1.708-.728 2.085-1.782zm.046-.589c-.198-1.016-.725-1.681-1.649-1.994.414-.211.848-.35 1.17-.619.333-.279.558-.686.844-1.055.167.914.678 1.562 1.642 1.897-1.449.665-1.469.681-2.007 1.771zm.4-4.377c-.247-1.062-.748-1.769-1.708-2.09.987-.194 1.628-.748 2.014-1.802.201 1.103.734 1.749 1.793 2.104-1.073.224-1.747.715-2.099 1.788zm3.998 5.348c.185 1.088.706 1.73 1.627 2.092-.924.228-1.585.735-1.946 1.668-.215-.947-.767-1.591-1.79-1.984 1.108-.185 1.729-.759 2.109-1.776zm.061-.665c-.229-.96-.772-1.614-1.812-1.983 1.086-.186 1.735-.723 2.114-1.789.198 1.098.733 1.74 1.778 2.108-1.054.22-1.744.713-2.08 1.664zm3.979 5.463c.215 1.098.729 1.759 1.799 2.101-1.066.228-1.749.732-2.111 1.804-.207-1.084-.752-1.739-1.795-2.117 1.096-.197 1.74-.723 2.107-1.788zm.075-.527c-.242-1.07-.747-1.756-1.68-2.102.978-.201 1.602-.75 1.977-1.777.219 1.064.729 1.729 1.797 2.08-1.058.225-1.751.715-2.094 1.799zm.363-4.443c-.211-1.072-.762-1.719-1.781-2.111 1.096-.178 1.711-.74 2.1-1.764.203 1.078.725 1.734 1.809 2.098-1.101.2-1.762.726-2.128 1.777zm3.989 5.379c.235 1.042.716 1.733 1.676 2.061-.941.236-1.631.734-1.976 1.82-.222-1.076-.739-1.762-1.677-2.111.978-.206 1.602-.755 1.977-1.77zm.067-.537c-.204-1.081-.728-1.75-1.655-2.129.964-.199 1.597-.752 1.973-1.773.207 1.061.714 1.713 1.771 2.074-1.058.24-1.748.747-2.089 1.828zm.383-4.565c-.209-.961-.739-1.639-1.678-1.992.975-.201 1.6-.75 1.97-1.73.371 1.215.57 1.451 1.72 2.053-.99.204-1.669.71-2.012 1.669zm3.992 5.46c.2 1.065.709 1.722 1.654 2.085-.944.215-1.612.734-1.965 1.649-.222-.956-.777-1.579-1.809-1.97 1.119-.181 1.748-.741 2.12-1.764zm.062-.7c-.218-.957-.773-1.579-1.802-1.961 1.108-.188 1.737-.75 2.083-1.682.518 1.319.696 1.529 1.753 2.007-.999.219-1.68.718-2.034 1.636zm.365-4.289c-.212-1.066-.731-1.721-1.652-2.089.963-.197 1.593-.751 1.972-1.787.205 1.072.723 1.735 1.775 2.093-1.061.218-1.728.74-2.095 1.783zm4.005 5.343c.189 1.089.719 1.745 1.779 2.114-1.061.213-1.724.722-2.068 1.703-.453-1.115-.264-1.145-1.698-2.051.989-.166 1.619-.726 1.987-1.766zm.066-.667c-.476-1.188-.476-1.188-1.686-1.994.986-.172 1.628-.719 1.992-1.768.195 1.089.724 1.748 1.662 2.068-1.451.742-1.451.742-1.968 1.694zm.364-4.417c-.197-.971-.76-1.606-1.702-1.962 1.25-.426 1.404-.557 2.005-1.682.444 1.24.6 1.426 1.72 1.992-1.004.199-1.661.731-2.023 1.652zm.378-4.303c-.224-1.081-.746-1.747-1.675-2.104.985-.181 1.602-.761 1.985-1.764.212 1.053.724 1.725 1.801 2.068-1.067.22-1.76.727-2.111 1.8zm3.982 5.487c.222.953.75 1.594 1.808 1.957-1.082.203-1.742.738-2.084 1.682-.536-1.281-.536-1.281-1.715-2.025.995-.172 1.635-.711 1.991-1.614zm.067-.687c-.205-1.082-.746-1.727-1.775-2.107 1.089-.205 1.74-.738 2.086-1.789.217 1.068.719 1.752 1.663 2.098-.94.225-1.6.737-1.974 1.798zm4.004 5.338c.197 1.082.714 1.75 1.786 2.109-1.091.217-1.745.761-2.116 1.81-.182-1.091-.723-1.739-1.787-2.126 1.105-.2 1.747-.741 2.117-1.793zm.048-.509c-.189-1.085-.717-1.741-1.776-2.122 1.073-.222 1.743-.725 2.083-1.645.235.948.756 1.596 1.821 1.967-1.116.189-1.762.744-2.128 1.8zm.381-4.561c-.185-.979-.751-1.622-1.783-2.005 1.084-.195 1.726-.722 2.094-1.777.213 1.075.727 1.746 1.67 2.093-.959.218-1.624.747-1.981 1.689zm3.991 5.456c.214 1.062.726 1.736 1.812 2.104-1.11.207-1.766.752-2.127 1.662-.188-.979-.754-1.59-1.775-1.99 1.087-.192 1.73-.731 2.09-1.776zm.046-.5c-.165-1.129-.726-1.766-1.77-2.154 1.095-.191 1.731-.736 2.104-1.771.209 1.064.717 1.727 1.78 2.086-1.082.226-1.751.771-2.114 1.839zm-3.302-13.715c-.192-1.083-.729-1.721-1.75-2.094 1.054-.219 1.712-.741 2.039-1.674.655 1.416.655 1.416 1.752 2.007-1.018.178-1.658.732-2.041 1.761zm-3.676-9.233c-.199-1.085-.735-1.736-1.788-2.102 1.09-.202 1.746-.741 2.112-1.794.199 1.087.732 1.749 1.66 2.107-.967.204-1.601.747-1.984 1.789zm-3.666-9.255c-.228-1.033-.723-1.713-1.666-2.07.951-.211 1.599-.754 1.933-1.684.554 1.232.235 1.062 1.698 2.021-.961.171-1.603.698-1.965 1.733zm-3.684-9.33c-.205-.959-.732-1.617-1.807-1.991 1.082-.202 1.733-.729 2.109-1.634.203.953.761 1.574 1.785 1.958-1.082.206-1.742.728-2.087 1.667zm.364-4.329c-.21-1.05-.707-1.722-1.802-2.081 1.091-.225 1.76-.75 2.116-1.67.197.96.738 1.594 1.787 1.977-1.097.209-1.739.753-2.101 1.774zm-3.68-9.208c-.204-1.072-.704-1.748-1.645-2.105.948-.234 1.615-.76 1.957-1.676.193.98.759 1.59 1.773 1.984-1.075.209-1.721.727-2.085 1.797zm-3.641-9.304c-.414-1.066-.308-1.253-1.72-2.091 1.015-.168 1.643-.734 1.999-1.777.199 1.1.716 1.75 1.765 2.119-1.04.246-1.75.715-2.044 1.749zm.346-4.495c-.206-.945-.73-1.604-1.652-1.985.966-.212 1.6-.769 1.959-1.823.199 1.099.705 1.754 1.644 2.113-.931.238-1.612.738-1.951 1.695zm-3.676-9.26c-.235-.946-.761-1.614-1.684-1.965.995-.205 1.622-.775 1.991-1.814.19 1.104.707 1.75 1.756 2.107-1.025.249-1.733.717-2.063 1.672zm.37-4.437c-.224-.934-.741-1.598-1.654-1.957.971-.199 1.573-.776 1.965-1.781.193 1.076.724 1.723 1.783 2.09-1.058.206-1.731.701-2.094 1.648zm-3.686-9.225c-.218-.974-.776-1.617-1.809-1.984 1.079-.191 1.742-.717 2.102-1.648.216.963.747 1.613 1.782 1.963-1.031.235-1.734.71-2.075 1.669zm.368-4.308c-.23-1.068-.743-1.75-1.673-2.094.979-.193 1.595-.756 1.989-1.789.197 1.096.74 1.736 1.796 2.108-1.091.189-1.75.717-2.112 1.775zm-3.689-9.219c-.208-1.096-.745-1.748-1.775-2.121 1.07-.199 1.702-.741 2.102-1.777.195 1.104.744 1.738 1.778 2.098-1.065.207-1.734.716-2.105 1.8zm.422-4.614c-.204-.39-.349-.827-.625-1.15-.281-.327-.693-.542-1.063-.818.919-.153 1.575-.691 1.951-1.606.21.973.771 1.598 1.711 1.938-1.264.447-1.525.668-1.974 1.636zm-3.791-8.39c.188.982.772 1.598 1.78 1.979-1.07.187-1.71.714-2.088 1.758-.232-1.067-.747-1.741-1.818-2.081 1.084-.205 1.761-.718 2.126-1.656zm-.422 4.442c.218.419.362.854.637 1.181.269.32.67.529 1.04.809-.903.175-1.572.68-1.936 1.594-.228-.95-.768-1.581-1.822-1.95 1.11-.181 1.765-.734 2.081-1.634zm-.312 4.267c.184 1.106.725 1.752 1.778 2.123-1.067.202-1.738.709-2.091 1.642-.234-.94-.761-1.587-1.646-1.954.962-.221 1.581-.782 1.959-1.811zm-.399 4.598c.224.953.763 1.594 1.743 1.934-1.278.43-1.601.707-1.996 1.673-.201-.397-.341-.831-.61-1.153-.28-.334-.688-.56-1.054-.844.881-.18 1.547-.692 1.917-1.61zm-.327 4.427c.174.953.704 1.586 1.762 1.954-1.082.22-1.765.716-2.098 1.683-.212-.98-.762-1.643-1.757-1.975 1.078-.345 1.078-.345 2.093-1.662zm-1.194 5.496c.321-.266.532-.664.82-1.039.178.92.696 1.562 1.605 1.919-.924.231-1.598.722-1.941 1.69-.219-.954-.732-1.641-1.68-1.934.435-.221.869-.364 1.196-.636zm.413 3.217c.212 1.092.727 1.738 1.765 2.09-1.02.254-1.748.701-2.062 1.68-.231-.949-.756-1.617-1.692-1.973.962-.199 1.61-.736 1.989-1.797zm-.368 4.442c.209 1.082.72 1.734 1.772 2.082-1.04.238-1.742.717-2.087 1.697-.189-.985-.768-1.621-1.805-2.016 1.107-.173 1.73-.74 2.12-1.763zm-.385 4.553c.203.972.741 1.6 1.639 1.963-.938.235-1.599.739-1.942 1.688-.204-.951-.724-1.619-1.652-1.981.96-.219 1.591-.776 1.955-1.67zm-.388 4.431c.22.959.744 1.608 1.679 1.928-1.734.695-1.527 1.021-2.009 1.75-.168-1.004-.703-1.66-1.637-2.01.959-.215 1.62-.73 1.967-1.668zm-.363 4.427c.207.973.739 1.608 1.643 1.972-.947.227-1.596.742-1.952 1.824-.209-1.09-.721-1.766-1.669-2.123.962-.209 1.627-.743 1.978-1.673zm-.378 4.434c.21.963.746 1.605 1.798 1.98-1.09.211-1.748.734-2.105 1.805-.208-1.07-.707-1.735-1.61-2.112.934-.234 1.568-.767 1.917-1.673zm-.378 4.432c.219.928.714 1.602 1.751 1.951-1.24.4-1.521.645-2.017 1.653-.199-.39-.346-.825-.618-1.157-.263-.318-.654-.529-1.031-.818.916-.194 1.563-.711 1.915-1.629zm-.369 4.43c.195.976.754 1.602 1.805 1.988-1.09.201-1.74.707-2.102 1.634-.216-.946-.753-1.595-1.829-1.962 1.109-.199 1.766-.733 2.126-1.66zm-.376 4.443c.217.98.759 1.607 1.668 1.959-.947.217-1.6.723-1.959 1.783-.257-1.027-.702-1.752-1.691-2.068.959-.217 1.638-.738 1.982-1.674zm-.366 4.421c.187.979.749 1.606 1.796 1.985-1.085.205-1.742.705-2.101 1.786-.239-1.056-.716-1.757-1.671-2.093.96-.212 1.605-.762 1.976-1.678zm-.387 4.429c.22.963.751 1.633 1.686 1.979-.978.202-1.609.738-1.979 1.635-.234-.943-.753-1.592-1.809-1.939 1.066-.22 1.752-.726 2.102-1.675zm-.37 4.425c.206.975.745 1.634 1.684 1.978-.953.216-1.61.715-1.942 1.688-.693-1.445-.799-1.564-1.795-1.99 1.014-.22 1.702-.73 2.053-1.676zm-.37 4.441c.183.978.748 1.589 1.796 1.983-1.082.197-1.737.719-2.098 1.639-.228-.956-.762-1.609-1.823-1.961 1.097-.199 1.763-.727 2.125-1.661zm-.379 4.423c.198.974.747 1.607 1.734 1.969-1.236.398-1.424.554-2.06 1.711-.203-.992-.721-1.662-1.811-2.01 1.111-.2 1.782-.72 2.137-1.67zm-.364 4.443c.178.983.755 1.584 1.756 1.974-1.031.212-1.707.712-2.066 1.778-.237-1.072-.758-1.744-1.812-2.1 1.089-.195 1.754-.724 2.122-1.652zm-.404 4.417c.51 1.301.568 1.368 1.721 1.995-.963.215-1.654.697-1.99 1.67-.218-.963-.758-1.631-1.82-1.995 1.082-.192 1.729-.737 2.089-1.67zm-.344 4.313c.203 1.107.749 1.749 1.769 2.099-1.03.232-1.729.693-2.063 1.674-.233-.943-.749-1.625-1.684-1.975.95-.202 1.584-.741 1.978-1.798zm-.385 4.59c.219.965.768 1.584 1.787 1.941-1.049.221-1.748.701-2.079 1.684-.209-.977-.764-1.635-1.824-2.006 1.093-.179 1.739-.716 2.116-1.619zm-.364 4.293c.214 1.08.742 1.729 1.783 2.079-1.059.225-1.753.711-2.088 1.688-.211-.967-.752-1.637-1.833-2.014 1.111-.169 1.743-.717 2.138-1.753zm-1.162 5.62c.321-.266.534-.661.822-1.034.178.925.707 1.573 1.752 1.925-1.055.219-1.748.708-2.086 1.683-.225-.954-.751-1.632-1.666-1.944.417-.216.851-.361 1.178-.63zm.409 3.378c.22.948.734 1.576 1.764 1.93-1.006.259-1.734.702-2.058 1.693-.21-.969-.766-1.62-1.835-2.002 1.118-.181 1.745-.738 2.129-1.621zm3.344 13.647c.172.947.681 1.596 1.752 1.953-1.046.25-1.747.723-2.088 1.689-.211-.936-.713-1.609-1.748-1.949 1.133-.408 1.133-.408 2.084-1.693zm.03-.774c-.19-.986-.744-1.645-1.746-1.982 1.173-.375 1.173-.375 2.098-1.701.166 1.005.705 1.626 1.754 2-1.091.21-1.761.723-2.106 1.683zm.377-4.441c-.204-.964-.74-1.623-1.673-1.996.989-.174 1.605-.756 1.969-1.721.373 1.215.59 1.473 1.727 2.053-1 .201-1.681.705-2.023 1.664zm3.999 5.449c.19 1.092.722 1.738 1.79 2.113-1.1.206-1.751.738-2.107 1.664-.209-.938-.715-1.602-1.626-1.973.949-.218 1.564-.779 1.943-1.804zm.064-.654c-.225-.945-.738-1.631-1.674-1.98 1.002-.188 1.59-.782 1.989-1.775.181 1.076.725 1.711 1.761 2.088-1.052.228-1.728.714-2.076 1.667zm.379-4.287c-.229-1.087-.753-1.768-1.68-2.127.99-.187 1.596-.76 1.985-1.79.196 1.076.705 1.724 1.782 2.1-1.069.223-1.75.719-2.087 1.817zm.375-4.59c-.225-.954-.781-1.596-1.727-1.961 1.14-.351 1.165-.371 1.998-1.594.196.373.341.807.614 1.131.27.318.67.526 1.04.804-.895.175-1.587.667-1.925 1.62zm3.979 5.626c.206.942.723 1.571 1.646 1.943-.931.227-1.597.741-1.955 1.806-.219-1.082-.754-1.742-1.676-2.104.977-.197 1.606-.755 1.985-1.645zm.845-1.888c-.32.27-.535.664-.782.986-.709-1.277-.709-1.277-1.696-1.919 1.01-.155 1.641-.733 1.998-1.7.345 1.189.66 1.563 1.622 1.998-.385.208-.816.36-1.142.635zm-.421-3.289c-.209-1.018-.723-1.676-1.643-2.041.981-.193 1.592-.773 1.975-1.771.205 1.064.715 1.729 1.664 2.033-1.511.789-1.511.789-1.996 1.779zm3.704 9.346c-.221-1.111-.734-1.803-1.679-2.151 1.002-.188 1.6-.765 1.987-1.781.198 1.069.719 1.722 1.767 2.089-1.062.239-1.754.732-2.075 1.843zm1.705 2.59c-1.068.232-1.749.736-2.083 1.809-.222-1.055-.713-1.748-1.65-2.109.967-.22 1.587-.771 1.959-1.797.201 1.069.721 1.724 1.774 2.097zm-1.323-7.18c-.226-.939-.725-1.637-1.659-1.983.974-.218 1.568-.78 1.958-1.772.208 1.054.718 1.717 1.788 2.066-1.055.236-1.757.716-2.087 1.689zm3.979 5.457c.203 1.066.714 1.729 1.714 2.068-1.321.494-1.469.623-2.008 1.68-.553-1.17-.553-1.17-1.665-1.998.964-.172 1.585-.721 1.959-1.75zm.066-.517c-.215-1.088-.732-1.771-1.682-2.124.986-.191 1.627-.755 1.986-1.657.218.973.742 1.592 1.776 1.961-1.054.232-1.738.728-2.08 1.82zm.38-4.559c-.206-.964-.741-1.635-1.736-1.977 1.255-.424 1.323-.48 2.059-1.711.184.98.707 1.635 1.769 1.997-1.067.23-1.762.719-2.092 1.691zm3.989 5.443c.193 1.076.714 1.73 1.763 2.102-1.062.242-1.745.744-2.08 1.693-.19-.965-.726-1.618-1.643-1.99.956-.228 1.586-.768 1.96-1.805zm.063-.539c-.231-1.053-.725-1.757-1.674-2.098 1.004-.188 1.596-.771 1.985-1.766.211 1.044.696 1.732 1.676 2.061-.956.221-1.635.744-1.987 1.803zm.372-4.549c-.198-.963-.757-1.603-1.81-1.996 1.119-.182 1.736-.734 2.114-1.74.221 1.033.723 1.707 1.663 2.06-.951.219-1.618.741-1.967 1.676zm3.993 5.456c.201 1.084.715 1.736 1.644 2.105-.949.221-1.599.76-1.97 1.821-.188-1.09-.71-1.749-1.631-2.112.964-.225 1.599-.775 1.957-1.814zm.083-.673c-.268-.931-.764-1.628-1.714-1.958 1.01-.18 1.62-.76 2.004-1.753.214 1.032.713 1.712 1.787 2.048-1.024.25-1.742.707-2.077 1.663zm.348-4.302c-.218-1.041-.714-1.695-1.63-2.072.948-.229 1.596-.773 1.942-1.807.213 1.059.705 1.733 1.65 2.09-.937.224-1.595.756-1.962 1.789zm3.97 5.442c.506 1.321.622 1.462 1.746 2.044-1.028.187-1.679.727-2.033 1.785-.205-1.084-.731-1.742-1.643-2.117.971-.211 1.602-.767 1.93-1.712zm.078-.596c-.181-1.121-.763-1.754-1.8-2.148 1.122-.17 1.754-.728 2.12-1.748.227 1.031.695 1.738 1.664 2.068-.96.22-1.612.763-1.984 1.828zm.389-4.559c-.199-.979-.751-1.622-1.709-1.979 1.262-.438 1.447-.596 1.98-1.645.197.387.336.82.607 1.146.267.32.665.533 1.039.818-.888.206-1.587.71-1.917 1.66zm.36-4.316c-.202-1.096-.723-1.748-1.645-2.104.969-.216 1.604-.763 1.965-1.784.213 1.054.725 1.723 1.79 2.085-1.077.213-1.739.744-2.11 1.803zm3.991 5.355c.241 1.039.719 1.751 1.705 2.068-.993.202-1.651.76-2.02 1.848-.171-1.125-.72-1.768-1.632-2.143.96-.216 1.592-.748 1.947-1.773zm.063-.539c-.18-1.101-.722-1.749-1.642-2.119.97-.211 1.604-.762 1.968-1.791.206 1.055.702 1.723 1.634 2.086-.956.227-1.599.781-1.96 1.824zm4.002 5.346c.22 1.021.699 1.707 1.654 2.072-.962.211-1.602.764-1.963 1.682-.181-.973-.75-1.605-1.791-2.006 1.124-.194 1.743-.744 2.1-1.748zm.055-.545c-.181-1.1-.729-1.738-1.773-2.127 1.087-.207 1.729-.725 2.085-1.754.248 1.018.702 1.738 1.681 2.061-.973.207-1.614.765-1.993 1.82zm1.164-5.652c-.328.282-.548.69-.824 1.054-.142-.945-.706-1.576-1.746-1.965 1.087-.199 1.732-.712 2.104-1.785.212 1.068.711 1.744 1.649 2.045-.423.225-.857.374-1.183.651zm3.212 6.541c.214 1.054.701 1.733 1.645 2.092-.918.255-1.612.739-1.943 1.69-.206-.955-.735-1.604-1.779-1.981 1.064-.227 1.729-.742 2.077-1.801zm.05-.526c-.18-1.09-.719-1.739-1.638-2.105.971-.211 1.598-.75 1.969-1.801.208 1.077.708 1.762 1.66 2.097-.976.217-1.612.78-1.991 1.809zm.395-4.576c-.21-.961-.759-1.598-1.652-1.961.977-.213 1.598-.758 1.952-1.785.231 1.03.695 1.727 1.66 2.08-.939.225-1.602.746-1.96 1.666zm3.978 5.619c.231.933.723 1.587 1.656 1.959-.949.213-1.59.76-1.95 1.673-.206-.952-.735-1.6-1.793-1.976 1.082-.224 1.757-.73 2.087-1.656zm.068-.814c-.186-.982-.768-1.576-1.765-1.975 1.068-.208 1.721-.715 2.066-1.756.254 1.016.708 1.736 1.697 2.062-.969.212-1.622.766-1.998 1.669zm.369-4.268c-.181-1.111-.729-1.745-1.768-2.131 1.072-.211 1.721-.721 2.077-1.639.241.924.729 1.615 1.695 1.945-.973.207-1.621.753-2.004 1.825zm4.003 5.313c.215 1.057.71 1.73 1.65 2.107-.963.203-1.6.756-1.958 1.662-.193-.969-.747-1.585-1.794-1.98 1.096-.196 1.745-.727 2.102-1.789zm.069-.68c-.203-.969-.772-1.584-1.72-1.934 1.251-.422 1.522-.652 2.045-1.768.206 1.049.716 1.705 1.664 2.057-.963.186-1.605.734-1.989 1.645zm-3.366-12.998c.201 1.082.702 1.746 1.767 2.105-1.049.234-1.725.742-2.077 1.662-.215-.969-.778-1.594-1.795-1.975 1.09-.187 1.732-.726 2.105-1.792zm-3.698-9.199c.237 1.041.717 1.742 1.691 2.064-.964.215-1.622.766-1.982 1.723-.432-1.252-.436-1.258-1.696-2.041.975-.19 1.63-.711 1.987-1.746zm-3.673-9.266c.206 1.086.734 1.747 1.788 2.113-1.086.21-1.744.748-2.099 1.767-.315-1.188-.512-1.428-1.711-2.106 1.008-.176 1.654-.71 2.022-1.774zm-.371 4.448c.216 1.083.739 1.749 1.796 2.091-1.077.213-1.769.73-2.109 1.693-.188-.99-.751-1.623-1.785-2.014 1.082-.193 1.728-.73 2.098-1.77zm-3.686-9.235c.211 1.061.725 1.72 1.762 2.084-1.032.238-1.719.732-2.063 1.666-.214-.97-.769-1.605-1.806-1.974 1.079-.199 1.741-.725 2.107-1.776zm-3.692-9.111c.212.945.745 1.596 1.643 1.967-.958.213-1.586.76-1.949 1.801-.201-1.093-.738-1.742-1.772-2.113 1.049-.214 1.718-.714 2.078-1.655zm-3.678-9.213c.213.959.775 1.576 1.798 1.959-1.108.193-1.756.734-2.076 1.701-.521-1.351-.654-1.51-1.769-2.035 1.016-.207 1.688-.716 2.047-1.625zm-3.294-13.844c.184 1.111.744 1.76 1.67 2.125-.987.188-1.62.74-1.992 1.779-.217-1.061-.711-1.746-1.667-2.084.965-.212 1.613-.758 1.989-1.82zm-3.696-9.108c.198.97.751 1.605 1.781 2.003-1.083.202-1.721.729-2.083 1.763-.228-1.031-.705-1.729-1.653-2.07.951-.242 1.613-.769 1.955-1.696zm-3.296-13.801c.2 1.093.708 1.745 1.77 2.112-1.063.236-1.752.744-2.087 1.84-.206-1.107-.729-1.773-1.673-2.145.98-.189 1.623-.748 1.99-1.807zm-3.307-13.641c.203 1.079.718 1.739 1.798 2.089-1.076.223-1.751.714-2.107 1.641-.229-.937-.759-1.584-1.67-1.941.974-.205 1.6-.768 1.979-1.789zm-3.309-13.678c.203 1.099.735 1.745 1.784 2.099-1.069.223-1.745.727-2.098 1.678-.2-.964-.751-1.611-1.793-1.996 1.081-.191 1.719-.725 2.107-1.781zm-3.615-9.783c-.249-1.056-.734-1.768-1.707-2.081.967-.204 1.631-.733 2.002-1.662.206.975.768 1.605 1.794 1.973-1.075.195-1.728.706-2.089 1.77zm.674-8.202c.185.986.749 1.611 1.772 1.995-1.06.214-1.73.716-2.072 1.657-.233-.955-.749-1.627-1.683-1.965.977-.212 1.624-.761 1.983-1.687zm-3.312-13.637c.206.95.733 1.592 1.659 1.947-.94.234-1.621.725-1.955 1.682-.225-.956-.737-1.631-1.702-1.972.964-.202 1.63-.727 1.998-1.657zm-3.695-9.258c.217.951.732 1.613 1.653 1.974-.95.212-1.579.747-1.944 1.667-.218-.947-.734-1.613-1.806-1.965 1.063-.23 1.762-.712 2.097-1.676zm-.367 4.467c.221.953.759 1.578 1.807 1.951-1.089.201-1.744.721-2.107 1.784-.232-1.069-.725-1.757-1.684-2.093.943-.204 1.607-.722 1.984-1.642zm-.374 4.432c.227.947.76 1.582 1.785 1.938-1.192.312-1.447.523-2.107 1.699-.207-.973-.709-1.651-1.66-1.994.951-.201 1.606-.733 1.982-1.643zm-.383 4.436c.229.959.78 1.581 1.819 1.946-1.087.207-1.747.703-2.098 1.781-.252-1.047-.722-1.75-1.686-2.082.925-.228 1.617-.711 1.965-1.645zm-.367 4.414c.206.98.788 1.596 1.799 1.975-1.084.188-1.728.707-2.096 1.615-.226-.948-.755-1.586-1.802-1.936 1.047-.22 1.738-.709 2.099-1.654zm-.342 4.394c.19.99.722 1.648 1.633 1.943-.422.216-.846.354-1.163.619-.323.266-.542.657-.839 1.035-.193-.885-.689-1.57-1.695-1.877 1.343-.529 1.343-.529 2.064-1.72zm-.405 4.488c.215.967.785 1.574 1.782 1.945-1.041.198-1.704.693-2.075 1.637-.227-.939-.75-1.597-1.686-1.947.942-.207 1.605-.723 1.979-1.635zm-.378 4.416c.223.962.773 1.582 1.815 1.967-1.095.18-1.741.711-2.119 1.779-.217-1.096-.75-1.75-1.827-2.119 1.108-.175 1.762-.707 2.131-1.627zm-.378 4.431c.231.942.753 1.603 1.667 1.943-.941.228-1.603.728-1.96 1.663-.207-.979-.772-1.604-1.804-1.973 1.069-.196 1.73-.702 2.097-1.633zm-.372 4.429c.232.946.751 1.611 1.672 1.945-.953.215-1.595.74-1.97 1.65-.22-.945-.743-1.591-1.79-1.943 1.049-.23 1.729-.724 2.088-1.652zm-.368 4.421c.207.956.745 1.601 1.802 1.964-1.064.205-1.73.715-2.104 1.642-.215-.97-.78-1.599-1.795-1.962 1.067-.196 1.717-.713 2.097-1.644zm-.37 4.46c.214.959.768 1.574 1.763 1.932-1.008.229-1.71.688-2.06 1.652-.224-.955-.767-1.6-1.823-1.969 1.093-.182 1.733-.722 2.12-1.615zm-.359 4.365c.214.979.715 1.654 1.78 1.991-1.046.233-1.754.704-2.093 1.659-.234-.967-.774-1.621-1.767-1.943 1.249-.385 1.424-.531 2.08-1.707zm-.4 4.467c.229.948.734 1.604 1.66 1.955-.925.223-1.596.719-1.95 1.66-.213-.969-.779-1.596-1.813-1.973 1.092-.192 1.75-.715 2.103-1.642zm-1.138 5.494c.318-.266.531-.66.815-1.033.171.926.693 1.579 1.746 1.928-1.044.234-1.73.712-2.062 1.714-.415-.955-.193-1.154-1.625-1.995.365-.192.798-.341 1.126-.614zm.41 3.232c.207 1.096.725 1.742 1.662 2.093-.933.208-1.596.713-1.966 1.64-.245-.926-.761-1.596-1.686-1.938.976-.197 1.605-.756 1.99-1.795zm-.382 4.436c.216 1.082.732 1.738 1.667 2.1-.953.188-1.589.719-1.971 1.762-.252-1.037-.732-1.734-1.678-2.062.965-.208 1.603-.752 1.982-1.8zm-.388 4.554c.208.955.742 1.582 1.761 1.975-1.049.24-1.715.734-2.028 1.738-.501-1.331-.588-1.436-1.729-2.066.996-.209 1.665-.717 1.996-1.647zm-.38 4.432c.221.928.711 1.59 1.621 1.953-.905.27-1.58.752-1.907 1.691-.204-.953-.728-1.594-1.636-1.967.924-.243 1.589-.74 1.922-1.677zm-.371 4.465c.24.93.747 1.603 1.68 1.932-.944.227-1.6.725-1.931 1.694-.714-1.466-.801-1.563-1.805-1.997 1.011-.211 1.693-.703 2.056-1.629zm-.372 4.427c.225.962.775 1.601 1.685 1.952-.987.189-1.611.746-1.994 1.787-.216-1.095-.723-1.732-1.654-2.086.916-.231 1.604-.717 1.963-1.653zm-.372 4.428c.219.965.781 1.593 1.743 1.938-1.237.387-1.508.615-2.028 1.683-.509-1.288-.716-1.527-1.769-1.986 1.008-.201 1.688-.701 2.054-1.635zm-.37 4.432c.223.949.749 1.589 1.809 1.949-1.086.217-1.756.717-2.1 1.66-.241-.939-.732-1.629-1.673-1.96.959-.215 1.591-.753 1.964-1.649zm-.383 4.43c.233.945.759 1.606 1.668 1.902-.419.213-.843.35-1.16.611-.322.268-.54.658-.844 1.049-.179-.895-.686-1.565-1.616-1.908.928-.227 1.589-.73 1.952-1.654zm-.362 4.441c.194.982.792 1.565 1.765 1.959-1.039.188-1.692.694-2.064 1.773-.238-1.072-.736-1.752-1.799-2.086 1.032-.238 1.728-.719 2.098-1.646zm-.349 4.367c.188 1.01.733 1.65 1.757 2.008-1.063.203-1.724.723-2.084 1.643-.239-.952-.761-1.613-1.726-1.922 1.363-.541 1.38-.558 2.053-1.729zm-.373 4.463c.194.98.738 1.623 1.773 1.982-1.073.196-1.732.703-2.1 1.766-.242-1.051-.74-1.736-1.746-2.06 1.275-.458 1.275-.458 2.073-1.688zm-.407 4.447c.212.974.775 1.6 1.801 1.969-1.072.188-1.724.705-2.07 1.689-.548-1.357-.566-1.377-1.754-2.038.993-.172 1.656-.692 2.023-1.62zm-.37 4.428c.204.967.754 1.604 1.689 1.922-1.417.637-1.484.693-2.021 1.777-.199-1.058-.737-1.691-1.762-2.05 1.05-.207 1.72-.713 2.094-1.649zm-.408 4.483c.202.383.352.812.623 1.135.271.318.668.529.979.766-.327.17-.761.316-1.092.588-.318.264-.53.656-.832 1.047-.167-.955-.727-1.588-1.688-1.92 1.247-.411 1.414-.548 2.01-1.616zm-.384 4.401c.216.413.358.834.625 1.149.271.32.665.536 1.045.828-.897.168-1.561.674-1.928 1.758-.239-1.08-.743-1.763-1.683-2.104.971-.189 1.599-.748 1.941-1.631zm-.34 4.411c.229.953.756 1.607 1.688 1.916-1.489.754-1.489.754-2.013 1.78-.176-1.048-.732-1.679-1.625-2.048.948-.205 1.591-.728 1.95-1.648zm-.371 4.421c.224.958.738 1.604 1.803 1.958-1.05.227-1.734.717-2.104 1.635-.211-.961-.773-1.574-1.814-1.944 1.109-.199 1.762-.726 2.115-1.649zm-.373 4.442c.218.965.752 1.596 1.824 1.961-1.075.202-1.743.703-2.116 1.635-.238-.931-.745-1.607-1.679-1.938.951-.224 1.618-.732 1.971-1.658zm-.396 4.394c.521 1.312.688 1.504 1.701 1.977-1.322.538-1.448.646-2.009 1.753-.186-1.045-.731-1.686-1.642-2.039.971-.202 1.602-.757 1.95-1.691zm-1.4 16.934c-.216-.93-.724-1.566-1.774-1.94 1.044-.255 1.744-.729 2.066-1.685.209.965.745 1.605 1.8 1.982-1.07.221-1.738.724-2.092 1.643zm1.142-5.492c-.316.271-.524.67-.82 1.067-.158-.937-.675-1.568-1.584-1.954.944-.219 1.583-.762 1.897-1.658.212.424.344.848.606 1.166.266.32.657.535.982.787-.346.182-.769.324-1.081.592zm-.39-3.339c-.201-.968-.753-1.622-1.709-1.962.866-.371 1.13-.154 2.048-1.684.176.959.698 1.598 1.764 1.973-1.077.213-1.758.713-2.103 1.673zm3.682 9.23c-.206-.938-.721-1.6-1.643-1.969.952-.227 1.59-.775 1.947-1.682.184.982.751 1.602 1.631 1.986-.952.218-1.573.739-1.935 1.665zm.375-4.289c-.23-1.057-.695-1.75-1.646-2.105.947-.232 1.597-.768 1.946-1.684.194.954.733 1.58 1.596 1.979-.932.242-1.557.763-1.896 1.81zm.382-4.575c-.23-.942-.745-1.626-1.689-1.972.971-.205 1.613-.746 1.986-1.648.193.966.753 1.574 1.772 1.957-1.053.222-1.73.705-2.069 1.663zm3.668 9.387c-.21-1.066-.699-1.74-1.637-2.114.93-.234 1.595-.748 1.944-1.667.197.96.744 1.58 1.796 1.975-1.09.201-1.747.72-2.103 1.806zm.382-4.443c-.219-1.06-.722-1.735-1.619-2.112.952-.22 1.543-.788 1.931-1.788.189 1.061.706 1.701 1.745 2.092-1.046.238-1.713.734-2.057 1.808zm4.098 4.668c-.837-1.527-.837-1.527-1.805-2.005 1.066-.168 1.697-.722 2.07-1.778.201 1.098.729 1.744 1.789 2.121-1.088.213-1.749.73-2.054 1.662zm.343-4.31c-.24-1.04-.721-1.733-1.64-2.091.959-.228 1.581-.781 1.932-1.682.199.961.722 1.603 1.622 1.971-.918.253-1.571.742-1.914 1.802zm4.046 4.812c-.231-1.044-.699-1.751-1.66-2.1.993-.199 1.598-.796 1.988-1.799.165 1.088.702 1.717 1.761 2.107-1.078.22-1.745.727-2.089 1.792zm.371-4.424c-.216-1.049-.695-1.735-1.626-2.102.941-.226 1.566-.772 1.934-1.676.192.961.731 1.599 1.65 1.971-.95.219-1.609.743-1.958 1.807zm.41-4.516c-.613-1.592-.751-1.455-1.74-2.062 1.02-.166 1.646-.73 1.97-1.614.207.415.339.843.604 1.161.267.32.663.535 1.048.83-.891.188-1.569.689-1.882 1.685zm3.646 9.167c-.213-.935-.736-1.578-1.645-1.956.97-.209 1.591-.781 1.973-1.801.164 1.099.73 1.724 1.752 2.123-1.084.205-1.715.739-2.08 1.634zm.405-4.395c-.663-1.425-.663-1.425-1.685-1.984 1.202-.461 1.202-.461 1.989-1.7.168.979.704 1.622 1.765 2.007-1.1.209-1.75.741-2.069 1.677zm4.035 4.893c-.24-1.019-.705-1.725-1.667-2.069.973-.21 1.601-.776 1.97-1.665.199.961.746 1.586 1.778 1.972-1.077.215-1.729.724-2.081 1.762zm.367-4.415c-.219-1.049-.723-1.729-1.649-2.09.953-.223 1.585-.762 1.951-1.775.232 1.031.708 1.727 1.665 2.062-.95.233-1.617.752-1.967 1.803zm4.052 4.798c-.218-1.036-.702-1.714-1.646-2.081.95-.225 1.605-.758 1.954-1.794.219 1.048.708 1.733 1.653 2.091-.977.211-1.605.77-1.961 1.784zm.376-4.419c-.216-1.051-.702-1.738-1.636-2.092.96-.229 1.583-.779 1.953-1.807.189 1.076.716 1.729 1.777 2.105-1.078.224-1.743.742-2.094 1.794zm4.043 4.723c-.203-.973-.701-1.647-1.635-2.01.951-.229 1.613-.756 1.951-1.691.2.963.731 1.619 1.694 1.957-1.367.572-1.421.619-2.01 1.744zm.388-4.482c-.202-.953-.739-1.586-1.653-1.965.956-.213 1.604-.756 1.971-1.812.191 1.085.702 1.752 1.65 2.11-.971.212-1.61.758-1.968 1.667zm4.029 4.873c-.175-1-.692-1.658-1.627-2.025.956-.219 1.601-.765 1.973-1.813.187 1.085.716 1.742 1.691 2.079-1.343.534-1.404.587-2.037 1.759zm.418-4.44c-.454-1.291-.562-1.419-1.631-1.995.389-.202.824-.348 1.15-.624.32-.271.529-.674.813-1.054.148.933.692 1.578 1.606 1.952-.967.213-1.603.768-1.938 1.721zm4.816 3.678c-.32.273-.533.671-.812 1.037-.171-.904-.687-1.564-1.75-1.932 1.08-.238 1.756-.747 2.074-1.764.414 1.273.581 1.475 1.622 2.029-.384.206-.813.357-1.134.63zm-.402-3.366c-.204-.948-.735-1.584-1.782-1.962 1.058-.229 1.733-.729 2.077-1.77.245 1.008.709 1.715 1.665 2.066-.96.216-1.598.763-1.96 1.666zm.404-4.471c-.195-.376-.342-.804-.61-1.13-.266-.322-.656-.543-.973-.793.341-.179.773-.324 1.098-.599.317-.271.524-.673.796-1.038.18.885.666 1.559 1.645 1.896-1.395.659-1.395.659-1.956 1.664zm3.644 9.403c-.198-1.062-.723-1.714-1.712-2.068 1.281-.451 1.484-.627 2.038-1.738.199.971.708 1.648 1.634 2.023-.961.209-1.582.762-1.96 1.783zm.375-4.447c-.213-1.031-.703-1.714-1.642-2.062.953-.236 1.611-.762 1.92-1.721.598 1.402.645 1.457 1.767 2.043-1.055.185-1.671.746-2.045 1.74zm4.047 4.82c-.188-1.063-.704-1.711-1.771-2.084 1.07-.229 1.751-.733 2.087-1.668.213.944.739 1.59 1.658 1.977-.983.187-1.589.777-1.974 1.775zm.37-4.416c-.175-1.082-.703-1.721-1.776-2.109 1.087-.215 1.756-.727 2.104-1.811.211 1.07.706 1.755 1.645 2.111-.97.225-1.596.797-1.973 1.809zm4.071 4.811c-.199-1.09-.724-1.74-1.79-2.109 1.089-.226 1.765-.73 2.096-1.68.221.936.71 1.611 1.636 1.982-.949.218-1.572.768-1.942 1.807zm.363-4.426c-.174-1.092-.71-1.719-1.602-2.113.934-.229 1.574-.751 1.927-1.809.211 1.066.711 1.744 1.626 2.113-.975.21-1.571.794-1.951 1.809zm4.055 4.781c-.185-1.071-.7-1.715-1.762-2.079 1.044-.252 1.754-.714 2.075-1.691.212.943.73 1.608 1.638 1.985-.96.211-1.557.793-1.951 1.785zm.399-4.548c-.206-.937-.718-1.582-1.604-1.965.924-.25 1.561-.76 1.895-1.684.209.941.738 1.6 1.643 1.98-.945.229-1.583.76-1.934 1.669zm4.05 4.816c-.198-.984-.741-1.607-1.778-1.984 1.064-.224 1.741-.726 2.079-1.682.219.934.712 1.622 1.65 1.984-.964.227-1.604.773-1.951 1.682zm.377-4.431c-.188-.97-.738-1.587-1.735-1.988 1.043-.239 1.699-.743 2.043-1.815.215 1.072.706 1.746 1.627 2.113-.935.243-1.591.774-1.935 1.69zm4.033 4.824c-.192-.973-.698-1.637-1.634-1.99.938-.23 1.616-.732 1.961-1.684.202.945.731 1.598 1.67 1.943-1.414.57-1.351.642-1.997 1.731zm.355-4.415c-.147-1.016-.699-1.615-1.68-2.014 1.014-.253 1.688-.74 2.019-1.68.218.934.719 1.611 1.69 1.93-1.454.636-1.333.616-2.029 1.764zm4.132 4.686c-.195-.379-.333-.796-.596-1.106-.27-.319-.662-.532-1.062-.839.902-.162 1.561-.666 1.926-1.586.221.936.761 1.561 1.657 1.905-1.35.632-1.35.632-1.925 1.626zm.351-4.394c-.22-.93-.743-1.551-1.687-1.9 1.246-.52 1.224-.424 2.027-1.696.183.958.688 1.596 1.599 1.963-.925.214-1.571.73-1.939 1.633zm4.026 4.882c-.194-.992-.7-1.643-1.611-2.004.923-.223 1.567-.738 1.938-1.635.238.928.737 1.587 1.787 1.908-1.25.39-1.487.585-2.114 1.731z" fill="#f3765a" opacity=".55"/><path d="m285.039 75.94h62.679v11.142h-62.679z" fill="#fff" transform="matrix(-.9965 -.0842 .0842 -.9965 624.7739 189.3611)"/><path d="m285.964 76.965h60.142v9.181h-60.142z" fill="#453d3a" transform="matrix(-.9965 -.0842 .0842 -.9965 624.0837 189.4243)"/><path d="m285.43 103.565h50.84v86.775h-50.84z" fill="#fff" transform="matrix(-.9965 -.0842 .0842 -.9965 608.2267 319.5478)"/><path d="m287.636 107.329h46.428v79.246h-46.428z" fill="#f6917b" transform="matrix(-.9965 -.0841 .0841 -.9965 608.2352 319.5367)"/><path d="m304.829 218.222-45.454-3.84-15.538 15.695 59.566 5.031 59.565 5.033-12.685-18.079z" fill="#c05841"/><path d="m242.12 235.045h119.555v35.751h-119.555z" fill="#f2b965" transform="matrix(-.9965 -.0842 .0842 -.9965 581.4328 530.3575)"/><path d="m251.174 240.627h101.447v24.587h-101.447z" fill="#f3765a" transform="matrix(-.9965 -.0842 .0842 -.9965 581.4354 530.3558)"/><path d="m266.72 28.159 7.252 13.426 45.455 3.84 45.455 3.84 9.401-12.02-53.781-4.543z" fill="#f6917b"/><path d="m267.095 19.262h107.947v13.464h-107.947z" fill="#f3765a" transform="matrix(-.9965 -.0842 .0842 -.9965 638.8094 78.9206)"/><g fill="#fcc9b1"><path d="m277.153 17.974-.275-.022c-.498-.042-.938.329-.979.827l-.57 6.752c-.043.499.328.938.827.979l.274.022c.5.043.938-.327.979-.826l.571-6.752c.041-.499-.327-.937-.827-.98z"/><path d="m280.971 18.297-.275-.022c-.499-.043-.938.327-.979.826l-.57 6.752c-.043.499.328.938.826.979l.276.023c.497.042.937-.328.979-.827l.57-6.752c.042-.499-.329-.937-.827-.979z"/><path d="m293.345 19.343-.274-.023c-.499-.043-.938.328-.979.826l-.57 6.752c-.042.5.327.938.826.98l.275.023c.498.041.938-.328.979-.827l.57-6.753c.044-.498-.327-.937-.827-.978z"/><path d="m297.163 19.665-.276-.023c-.498-.043-.937.328-.979.826l-.569 6.753c-.043.499.328.938.826.979l.275.023c.499.043.938-.328.979-.828l.571-6.751c.041-.498-.328-.938-.827-.979z"/><path d="m309.538 20.71-.274-.023c-.499-.042-.938.328-.98.827l-.57 6.753c-.042.498.328.938.827.979l.275.023c.499.043.938-.328.979-.826l.57-6.753c.043-.5-.328-.937-.827-.98z"/><path d="m313.355 21.032-.275-.023c-.499-.042-.938.329-.979.827l-.57 6.753c-.044.498.327.938.827.979l.275.023c.498.043.938-.328.979-.826l.57-6.752c.043-.5-.328-.938-.827-.981z"/><path d="m325.73 22.078-.275-.023c-.499-.042-.938.328-.979.827l-.571 6.752c-.042.499.329.938.828.98l.275.022c.498.042.937-.328.979-.827l.569-6.752c.045-.497-.327-.937-.826-.979z"/><path d="m329.548 22.4-.275-.023c-.499-.042-.938.329-.979.827l-.57 6.752c-.043.499.328.938.827.98l.274.022c.5.042.938-.327.98-.827l.57-6.752c.042-.497-.328-.937-.827-.979z"/><path d="m341.925 23.446-.276-.023c-.499-.043-.937.328-.979.826l-.57 6.753c-.042.499.327.937.826.979l.276.023c.498.042.938-.328.979-.827l.57-6.753c.042-.497-.329-.937-.826-.978z"/><path d="m345.74 23.769-.274-.023c-.499-.043-.938.328-.98.826l-.57 6.753c-.042.499.328.938.827.979l.275.023c.499.042.938-.328.979-.827l.569-6.753c.044-.498-.327-.936-.826-.978z"/><path d="m358.116 24.813-.276-.023c-.498-.041-.936.328-.979.826l-.569 6.754c-.043.498.328.938.827.979l.274.023c.498.043.938-.328.979-.826l.57-6.752c.042-.5-.328-.938-.826-.981z"/><path d="m361.932 25.137-.273-.024c-.5-.042-.938.328-.979.828l-.57 6.752c-.043.498.328.938.826.979l.275.023c.498.043.937-.328.979-.826l.57-6.753c.043-.5-.328-.937-.828-.979z"/></g><path d="m323.178 1.012c-27.906-2.358-51.527 3.749-55.071 13.819l107.032 8.975c-1.887-10.497-24.115-20.443-51.961-22.794z" fill="#f2b965"/><path d="m310.575 134.622c-.834-.1-1.485.369-1.923 1.437-1.672 3.956-3.359 7.069-4.801 9.331-.331.494-2.189 3.912-3.171 3.481-1.732-.815.631-10.556 2.306-13.873 1.29-2.536-1.429-4.073-3.391-2.524-2.942 2.484-4.515 10.78-3.928 15.537.588 4.73 4.708 6.879 7.67 2.102 1.208-1.932 2.54-4.609 3.702-6.662-.17 2.02-.888 7.743-.106 9.844.761 2.012 3.45 1.832 3.955-.363.545-2.31 2.916-17.98-.313-18.31z" fill="#453d3a"/><path d="m327.167 150.149c-1.376 1.482-3.68 3.99-5.121 1.107-.439-.996-.725-2.096-1.069-3.171-.321-1.015-.666-2.091-1.745-2.734.255-.269.395-.548.59-.793 1.702-1.919 3.432-3.808 5.135-5.728.219-.186.442-.428.635-.645.525-.711-.192-1.848-1.078-1.34-.368.229-.738.49-1.025.784-1.729 1.889-3.254 3.767-5.12 5.556-.09-1.346.628-5.703.62-7.33-.015-.525-.173-1.062-.397-1.488-.678-1.277-2.207-1.406-3.088-.26-.358.435-.607.994-.798 1.531-1.912 5.07-1.771 10.982-1.856 16.468.001.669.118 1.348.327 1.976.223.803.85 1.293 1.718 1.336.868.045 1.54-.334 1.867-1.121.253-.588.424-1.213.505-1.846.226-1.289.341-2.646.479-3.941.046-.549.314-.963.839-1.324.854 1.234 1.149 2.916 1.782 4.365.239.602.568 1.181.994 1.652.838 1.088 2.158 1.287 3.324.543 1.229-.768 2.287-1.609 3.26-2.805.793-1.153-.009-1.628-.778-.792z" fill="#453d3a"/></svg>