<svg height="48" viewBox="0 0 48 48" width="48" xmlns="http://www.w3.org/2000/svg"><path d="m40.125 4.031c7.781 8.063 7.781 20.156 0 27.938l-3.281-3.188c5.531-6.375 5.531-15.563 0-21.563zm-6.562 6.657c4.031 4.406 4.031 10.5 0 14.531l-3.375-3.375c1.688-2.344 1.688-5.438 0-7.781zm-15.563 19.312c5.344 0 16.031 2.625 16.031 7.969v4.031h-32.063v-4.031c0-5.344 10.688-7.969 16.031-7.969zm-7.969-12c0-4.406 3.563-7.969 7.969-7.969s7.969 3.563 7.969 7.969-3.563 7.969-7.969 7.969-7.969-3.563-7.969-7.969z"/></svg>