<svg enable-background="new -0.287 -0.543 280 280" height="280" viewBox="-.287 -.543 280 280" width="280" xmlns="http://www.w3.org/2000/svg"><path d="m275.535 141.91-22.666 26.312 9.977 33.991-34.996 11.625-.075 41.084-40.438-9.794-18.529 33.376-31.168-18.419-31.115 18.187-17.66-35.053-41.814 12.272-.416-41.019-40.154-9.389 16.344-36.957-22.825-26.216 22.76-26.231-13.203-35.461 37.717-10.361-.104-41.378 41.939 12.634 17.648-34.54 30.881 21.996 32.378-28.569 18.192 36.877 39.024-7.301-2.31 42.74 37.807 9.345-10.077 34.179zm3.672 3.671" fill="#f4c525"/><path d="m208.093 204.707c-32.644 36.624-90.651 38.199-129.562 3.517-38.91-34.681-43.99-92.487-11.346-129.112 32.645-36.623 90.65-38.197 129.562-3.516 38.909 34.682 43.991 92.488 11.346 129.111zm0 0" fill="#f7a81b"/></svg>