<svg enable-background="new 0 0 400 400" height="400" viewBox="0 0 400 400" width="400" xmlns="http://www.w3.org/2000/svg"><path clip-rule="evenodd" d="m369.318 335.141c-58.762 81.426-182.206 86.928-275.717 12.293-93.512-74.637-121.682-201.149-62.92-282.575 58.762-81.425 182.205-86.929 275.717-12.292 93.512 74.636 121.682 201.148 62.92 282.574z" fill="#dde9de" fill-rule="evenodd"/><path clip-rule="evenodd" d="m369.318 335.141c-58.762 81.426-182.206 86.928-275.717 12.293-93.512-74.637-121.682-201.149-62.92-282.575 58.762-81.425 182.205-86.929 275.717-12.292 93.512 74.636 121.682 201.148 62.92 282.574z" fill="#dde9de" fill-rule="evenodd"/><path d="m200.759 106.596h184.47v143.967h-184.47z" fill="#eac28c" transform="matrix(-1 .0039 -.0039 -1 586.6771 356.022)"/><path d="m185.846 66.288 213.75-.829-105.87-64.973z" fill="#af9269"/><path d="m368.895 58.469-13.026-7.996-1.183-.731-13.028-7.991-1.185-.724-13.026-7.996-1.183-.732-13.027-7.996-1.184-.724-13.026-7.997-1.185-.725-4.297-2.637-88.518 53.994 175.387-.678-10.334-6.341z" fill="#eac28c"/><path d="m185.86 65.874h213.751v7.125h-213.751z" fill="#f79871" transform="matrix(-1 .0039 -.0039 -1 585.7366 137.7374)"/><path d="m194.511 72.999h196.567v24.308h-196.567z" fill="#ffe0b6" transform="matrix(-1 .0039 -.0039 -1 585.9181 169.1689)"/><path d="m194.578 97.306h196.566v9.641h-196.566z" fill="#eac28c" transform="matrix(-1 .0039 -.0039 -1 586.1152 203.1178)"/><g fill="#283031"><circle cx="199.098" cy="79.019" r="2.306"/><circle cx="209.576" cy="78.979" r="2.305"/><circle cx="221.312" cy="78.933" r="2.305"/><circle cx="231.789" cy="78.892" r="2.306"/><circle cx="243.523" cy="78.847" r="2.306"/><circle cx="254.002" cy="78.806" r="2.305"/><circle cx="265.737" cy="78.761" r="2.305"/><circle cx="276.215" cy="78.72" r="2.305"/><circle cx="287.95" cy="78.675" r="2.305"/><circle cx="298.428" cy="78.634" r="2.305"/><circle cx="310.163" cy="78.589" r="2.305"/><circle cx="320.642" cy="78.548" r="2.306"/><circle cx="332.376" cy="78.503" r="2.305"/><circle cx="342.855" cy="78.462" r="2.305"/><circle cx="354.589" cy="78.417" r="2.306"/><circle cx="365.067" cy="78.376" r="2.305"/><circle cx="376.803" cy="78.331" r="2.305"/><circle cx="387.281" cy="78.29" r="2.305"/></g><path d="m200.459 116.396h25.461v143.277h-25.461z" fill="#ffe0b6" transform="matrix(-1 .0039 -.0039 -1 427.1129 375.2344)"/><path d="m208.289 128.686c-.48.003-.867.394-.865.873l.471 121.335c0 .479.392.867.871.865s.867-.393.865-.873l-.47-121.334c-.002-.479-.391-.867-.872-.866z" fill="#453d3a"/><path d="m217.998 128.649c-.48.003-.869.394-.866.873l.47 121.333c.002.48.393.867.873.865.479-.002.867-.393.865-.873l-.471-121.333c-.002-.478-.392-.866-.871-.865z" fill="#453d3a"/><path d="m201.751 106.906h22.347v9.49h-22.347z" fill="#f79871" transform="matrix(-1 .0039 -.0039 -1 426.2822 222.4738)"/><path d="m198.21 250.873h30.176v9.49h-30.176z" fill="#f79871" transform="matrix(-1 .0039 -.0039 -1 427.5878 510.4061)"/><circle cx="228.214" cy="111.758" fill="#ffe0b6" r="6.912"/><path d="m227.223 104.831c-2.592.395-5.002 2.04-5.949 4.536-.861 2.273-.454 5.321 1.604 6.854 1.947 1.449 5.921.927 7.435-.995 3.32-4.218-4.117-8.516-5.714-3.223-.216.712.168 1.065.854 1.018 1.197-.085 2.155-2.514 3.424-1.018.542.638.231 1.208-.156 1.805-.604.93-1.007 1.059-2.067 1.224-2.056.319-3.884-1.093-3.954-3.174-.102-2.981 2.848-5.417 5.747-5.257 2.879.158 5.782 3.543 5.243 6.402-.563 2.979-3.333 5.811-6.478 5.627-1.196-.069-1.185 1.794.007 1.864 5.85.341 10.799-7.295 7.069-12.193-1.782-2.339-4.046-3.929-7.065-3.47z" fill="#af9269"/><circle cx="198.982" cy="111.872" fill="#ffe0b6" r="6.912"/><path d="m196.744 105.297c-2.739 1.067-4.892 2.804-5.285 5.833-.336 2.6.581 5.371 2.719 6.97 1.946 1.457 4.989 1.905 7.028.352 1.932-1.473 2.527-5.436 1.098-7.421-3.137-4.355-9.321 1.605-4.675 4.602.486.313 1.12.084 1.315-.462.263-.727-.368-1.341-.709-1.913-.366-.612-.278-1.354.408-1.72.654-.349 1.527-.006 1.858.631.727.839.739 1.261.605 2.324-.26 2.064-2.122 3.432-4.142 2.925-2.893-.726-4.42-4.232-3.466-6.975.947-2.725 5.001-4.581 7.602-3.271 2.707 1.363 4.665 4.808 3.62 7.777-.398 1.133 1.396 1.637 1.795.508 1.939-5.527-4.033-12.393-9.771-10.16z" fill="#af9269"/><path d="m252.839 116.194h25.461v143.276h-25.461z" fill="#ffe0b6" transform="matrix(-1 .0039 -.0039 -1 531.8715 374.6242)"/><path d="m260.67 128.485c-.48.001-.869.392-.867.871l.471 121.335c.001.479.393.867.871.865.48-.002.869-.393.867-.873l-.471-121.334c-.002-.479-.393-.867-.871-.864z" fill="#453d3a"/><path d="m270.378 128.447c-.48.002-.868.393-.867.872l.471 121.333c.001.48.392.869.872.865.48 0 .868-.391.866-.871l-.47-121.334c-.002-.479-.393-.867-.872-.865z" fill="#453d3a"/><path d="m254.132 106.702h22.346v9.492h-22.346z" fill="#f79871" transform="matrix(-1 .0038 -.0038 -1 531.036 221.8744)"/><path d="m250.59 250.67h30.176v9.49h-30.176z" fill="#f79871" transform="matrix(-1 .0039 -.0039 -1 532.3453 509.7964)"/><circle cx="280.594" cy="111.555" fill="#ffe0b6" r="6.913"/><path d="m279.604 104.628c-2.592.394-5.003 2.04-5.951 4.536-.861 2.272-.453 5.321 1.604 6.853 1.948 1.45 5.922.928 7.437-.994 3.319-4.218-4.118-8.517-5.714-3.223-.215.712.168 1.064.854 1.017 1.199-.085 2.155-2.514 3.426-1.018.541.639.23 1.208-.158 1.805-.605.93-1.008 1.059-2.066 1.224-2.057.32-3.884-1.092-3.955-3.174-.1-2.98 2.85-5.416 5.748-5.257 2.879.158 5.783 3.542 5.242 6.402-.563 2.979-3.332 5.811-6.477 5.628-1.198-.071-1.186 1.793.008 1.863 5.848.342 10.799-7.295 7.067-12.193-1.783-2.338-4.046-3.928-7.065-3.469z" fill="#af9269"/><circle cx="251.361" cy="111.668" fill="#ffe0b6" r="6.912"/><path d="m249.123 105.095c-2.738 1.067-4.892 2.803-5.284 5.832-.337 2.6.579 5.371 2.718 6.971 1.947 1.456 4.99 1.904 7.027.351 1.933-1.473 2.528-5.436 1.099-7.421-3.138-4.355-9.322 1.605-4.675 4.602.486.313 1.119.084 1.315-.46.261-.729-.368-1.342-.71-1.914-.366-.613-.278-1.354.408-1.721.652-.349 1.527-.005 1.857.632.728.838.739 1.26.605 2.323-.26 2.065-2.121 3.433-4.143 2.926-2.894-.727-4.418-4.232-3.465-6.975.947-2.726 5.001-4.581 7.601-3.271 2.708 1.363 4.666 4.806 3.622 7.776-.399 1.133 1.396 1.636 1.791.508 1.945-5.527-4.028-12.392-9.766-10.159z" fill="#af9269"/><path d="m305.22 115.99h25.46v143.278h-25.46z" fill="#ffe0b6" transform="matrix(-1 .0038 -.0038 -1 636.6168 374.0374)"/><path d="m313.049 128.282c-.48.001-.867.393-.866.872l.47 121.333c.002.48.393.869.873.867s.867-.393.865-.873l-.47-121.333c-.003-.481-.393-.869-.872-.866z" fill="#453d3a"/><path d="m322.757 128.244c-.479.001-.868.393-.866.872l.471 121.333c.002.48.393.869.871.867.481-.002.869-.393.867-.873l-.471-121.334c-.001-.48-.393-.867-.872-.865z" fill="#453d3a"/><path d="m306.511 106.5h22.348v9.491h-22.348z" fill="#f79871" transform="matrix(-1 .0039 -.0039 -1 635.7994 221.2548)"/><path d="m302.97 250.466h30.176v9.492h-30.176z" fill="#f79871" transform="matrix(-1 .0038 -.0038 -1 637.0875 509.2074)"/><circle cx="332.974" cy="111.353" fill="#ffe0b6" r="6.912"/><path d="m331.982 104.425c-2.592.395-5.003 2.04-5.949 4.536-.863 2.272-.453 5.321 1.603 6.853 1.948 1.45 5.923.928 7.436-.994 3.32-4.218-4.116-8.516-5.714-3.224-.215.713.168 1.065.855 1.018 1.198-.084 2.154-2.513 3.424-1.017.54.638.23 1.208-.156 1.805-.606.93-1.008 1.058-2.067 1.223-2.057.32-3.884-1.092-3.955-3.173-.101-2.981 2.849-5.417 5.746-5.258 2.882.159 5.784 3.543 5.244 6.402-.564 2.979-3.333 5.812-6.476 5.628-1.199-.07-1.188 1.794.007 1.863 5.848.342 10.798-7.294 7.066-12.192-1.781-2.339-4.043-3.929-7.064-3.47z" fill="#af9269"/><circle cx="303.741" cy="111.465" fill="#ffe0b6" r="6.912"/><path d="m301.503 104.893c-2.739 1.066-4.892 2.802-5.284 5.831-.338 2.6.579 5.371 2.718 6.971 1.946 1.456 4.988 1.904 7.028.351 1.932-1.472 2.526-5.436 1.096-7.421-3.137-4.355-9.32 1.606-4.674 4.603.486.312 1.119.083 1.315-.461.261-.729-.367-1.342-.71-1.914-.365-.612-.277-1.354.409-1.72.653-.349 1.526-.006 1.857.631.727.838.739 1.26.605 2.324-.26 2.064-2.122 3.432-4.143 2.925-2.894-.726-4.419-4.233-3.465-6.976.946-2.724 5.001-4.581 7.6-3.271 2.71 1.363 4.666 4.806 3.622 7.777-.398 1.132 1.396 1.636 1.793.507 1.945-5.525-4.028-12.391-9.767-10.157z" fill="#af9269"/><path d="m357.598 115.788h25.462v143.278h-25.462z" fill="#ffe0b6" transform="matrix(-1 .0039 -.0039 -1 741.3876 373.4038)"/><path d="m365.428 128.079c-.479.002-.867.393-.866.872l.471 121.334c.001.48.392.867.872.865s.869-.393.866-.873l-.47-121.333c-.002-.48-.393-.867-.873-.865z" fill="#453d3a"/><path d="m375.136 128.041c-.48.002-.867.393-.866.873l.47 121.333c.003.48.394.869.874.867.479-.002.866-.393.865-.873l-.469-121.333c-.003-.481-.394-.869-.874-.867z" fill="#453d3a"/><path d="m358.89 106.297h22.348v9.491h-22.348z" fill="#f79871" transform="matrix(-1 .0039 -.0039 -1 740.556 220.6449)"/><path d="m355.348 250.263h30.177v9.492h-30.177z" fill="#f79871" transform="matrix(-1 .0038 -.0038 -1 741.8441 508.6011)"/><circle cx="385.353" cy="111.15" fill="#ffe0b6" r="6.912"/><path d="m384.361 104.222c-2.592.395-5.002 2.04-5.948 4.537-.863 2.272-.454 5.32 1.603 6.852 1.949 1.45 5.922.928 7.436-.994 3.32-4.217-4.117-8.516-5.715-3.224-.214.713.168 1.065.856 1.019 1.197-.086 2.153-2.514 3.423-1.018.541.638.231 1.207-.156 1.805-.605.93-1.007 1.059-2.066 1.224-2.057.319-3.885-1.092-3.955-3.175-.102-2.981 2.848-5.416 5.746-5.256 2.881.158 5.785 3.542 5.244 6.402-.564 2.979-3.332 5.811-6.476 5.627-1.198-.069-1.188 1.794.007 1.864 5.848.341 10.799-7.295 7.066-12.193-1.781-2.339-4.044-3.929-7.065-3.47z" fill="#af9269"/><circle cx="356.12" cy="111.263" fill="#ffe0b6" r="6.912"/><path d="m353.883 104.69c-2.74 1.066-4.893 2.803-5.285 5.832-.336 2.6.58 5.371 2.718 6.97 1.946 1.456 4.989 1.905 7.029.351 1.931-1.472 2.525-5.436 1.097-7.42-3.137-4.356-9.322 1.605-4.676 4.602.486.312 1.12.084 1.316-.461.262-.728-.367-1.342-.709-1.913-.365-.613-.279-1.354.408-1.721.652-.349 1.525-.006 1.857.631.727.838.74 1.261.605 2.324-.261 2.065-2.121 3.432-4.143 2.925-2.893-.726-4.42-4.232-3.467-6.975.947-2.725 5.002-4.581 7.602-3.271 2.709 1.363 4.665 4.806 3.621 7.777-.398 1.133 1.396 1.636 1.794.508 1.944-5.527-4.03-12.393-9.767-10.159z" fill="#af9269"/><path d="m219.611 66.158 2.301-.008 77.115-50.568-1.185-.725z" fill="#283031"/><path d="m247.28 66.051 2.307-.009 63.65-41.739-1.184-.724z" fill="#283031"/><path d="m274.961 65.944 2.301-.009 50.185-32.904-1.183-.732z" fill="#283031"/><path d="m302.635 65.837 2.307-.009 36.716-24.077-1.185-.724z" fill="#283031"/><path d="m330.311 65.73 2.306-.009 23.252-15.248-1.183-.731z" fill="#283031"/><path d="m357.983 65.622 2.308-.008 9.789-6.419-1.185-.726z" fill="#283031"/><ellipse cx="72.488" cy="378.26" fill="#f3765a" rx="63.002" ry="20.547"/><ellipse cx="72.488" cy="375.736" fill="#f2b965" rx="63.002" ry="20.547"/><path d="m1.094 282.926s-.168 53.311 34.613 89.748c0 0-.184 14.814 34.595 13.883 34.78.932 34.596-13.883 34.596-13.883 34.78-36.438 34.613-89.748 34.613-89.748-14.985 14.783-69.209 16.994-69.209 16.994s-54.224-2.211-69.208-16.994z" fill="#ffe0b6"/><path d="m70.301 264.531c-38.222 0-69.208 8.234-69.208 18.395 0 4.43 5.896 8.496 15.714 11.672 12.694 4.104 31.942 6.721 53.493 6.721 20.322 0 38.6-2.326 51.26-6.033 11.154-3.266 17.949-7.602 17.949-12.359.001-10.161-30.985-18.396-69.208-18.396z" fill="#fed3ae"/><path d="m148.858 292.594c-3.407.465-6.673 1.834-9.636 3.537-.622.359-3.785 1.82-3.935 2.635-.001.006-3.934 21.322-2.484 21.115 1.449-.205 4.761-3.932 7.452-10.143 2.898-8.904 16.149-7.039 20.704-2.68 4.555 4.361 2.69 11.787-4.969 20.381-26.085 19.361-32.295 16.664-32.295 16.664s-12.008 16.977-10.163 18.305c.095.068.239.041.345.031 4.869-.447 10.754-4.961 14.845-7.291 8.353-4.756 16.518-9.908 24.264-15.602 5.985-4.398 13.523-9.582 17.104-16.324 6.92-13.029-2.714-33.152-21.232-30.628z" fill="#ffe0b6"/><path d="m16.808 294.598c12.694 4.104 31.942 6.721 53.493 6.721 20.322 0 38.6-2.326 51.26-6.033-41.426-17.905-84.766-7.452-104.753-.688z" fill="#283031"/><path d="m43.6 317.85 1.289.6c.07-.129 4.975-10.379 16.768-17.27-.856-.027-1.701-.057-2.543-.1-10.866 7.063-15.455 16.643-15.514 16.77z" fill="#f2b965"/><path d="m41.156 318.852-8.348 7.976v22.289h22.873v-22.289l-11.437-10.922z" fill="#f3765a"/><path d="m41.156 318.852-8.348 7.977v22.289h22.873v-3.262c-.357-.271-.741-.512-1.114-.742-8.778-5.432-14.082-15.983-13.411-26.262z" fill="#c05841"/></svg>