<svg enable-background="new -0.755 -0.253 193 261" height="261" viewBox="-.755 -.253 193 261" width="193" xmlns="http://www.w3.org/2000/svg"><path d="m187.367 98.068c-.038-6.674-5.027-12.631-11.143-15.304-3.429-1.497-7.135-2.114-10.887-2.146-2.943-.026-5.913.309-8.795.859-3.402.647-6.846 1.631-9.586 3.748-2.742 2.117-4.662 5.581-4.122 9.002.695 4.401 5.179 8.305 3.7 12.508-.766 2.184-2.967 3.561-3.973 5.643-1.975 4.09 1.173 7.985 3.172 11.299-4.439 4.049-7.744 8.512-6.064 15.021 1.461 5.665 6.225 10.09 11.674 12.217 5.449 2.125 11.502 2.203 17.297 1.415 3.834-.521 7.696-1.44 10.985-3.479 3.291-2.039 5.959-5.341 6.493-9.175.037-.269.062-.539.08-.81.146-2.036-.148-4.115.27-6.114.946-4.495 5.332-7.857 5.623-12.441.314-4.988-4.318-8.99-5.09-13.928-.427-2.748.383-5.534.366-8.315z" fill="#4fa795"/><path d="m167.467 113.946c-3.066-6.596-4.605-13.834-3.648-21.096.543-4.126 1.895-8.239 1.52-12.231-2.943-.026-5.913.309-8.795.859-3.402.647-6.846 1.631-9.586 3.748-2.742 2.117-4.662 5.581-4.122 9.002.695 4.401 5.179 8.305 3.7 12.508-.766 2.184-2.967 3.561-3.973 5.643-1.975 4.09 1.173 7.985 3.172 11.299-4.439 4.049-7.744 8.512-6.064 15.021 1.461 5.665 6.225 10.09 11.674 12.217 5.449 2.125 11.502 2.203 17.297 1.415 3.834-.521 7.696-1.44 10.985-3.479 3.291-2.039 5.959-5.341 6.493-9.175.037-.269.062-.539.08-.81-1.264-1.73-2.805-3.343-4.266-4.858-5.721-5.938-10.973-12.55-14.467-20.063z" fill="#55a89b"/><path d="m166.786 138.617c-.961-21.934-1.729-39.514-1.729-39.514l-.641 27.177-10.652-22.772 9.74 27.406.456 16.129-8.35-15.606 7.092 19.653-1.181 72.222s8.35-.742 9.008 0c-.084-1.255-1.77-39.604-3.249-73.359l10.949-28.101z" fill="#2b342f"/><path d="m61.391 110.556c-2.748-16.733-5.694-33.994-14.87-48.255-2.83-4.397-6.414-8.587-11.25-10.574-4.836-1.992-11.126-1.174-14.247 3.02-5.022 6.747.525 17.093-3.425 24.518-3.043 5.724-10.562 7.543-14.508 12.688-5.783 7.535-1.775 18.211-1.251 27.695.651 11.861-4.559 24.387.206 35.27 4.084 9.326 13.717 13.602 22.708 16.848 9.628 3.475 16.719 9.062 27.593 4.563 6.751-2.794 12.098-8.788 14.101-15.814 1.962-6.878.818-14.212-.343-21.271-1.573-9.564-3.143-19.126-4.714-28.688z" fill="#4fa795"/><path d="m37.442 161.846-2.745-50.853-.94-5.086v52.941l-17.367-44.499 17.367 59.71v68.151h5.518l-1.487-65.265 19.29-52.22z" fill="#2b342f"/><path d="m136.53 31.77c-.072-12.152-9.151-22.996-20.288-27.861-6.239-2.727-12.988-3.85-19.817-3.906-5.358-.048-10.765.561-16.015 1.563-6.193 1.181-12.462 2.97-17.451 6.825-4.991 3.854-8.488 10.16-7.505 16.388 1.268 8.013 9.431 15.119 6.74 22.771-1.397 3.975-5.403 6.482-7.234 10.271-3.595 7.447 2.137 14.541 5.776 20.572-8.082 7.373-14.102 15.496-11.042 27.351 2.659 10.31 11.331 18.366 21.252 22.237 9.919 3.871 20.939 4.014 31.492 2.577 6.981-.948 14.01-2.621 19.999-6.331 5.988-3.713 10.848-9.727 11.817-16.705.069-.488.117-.98.151-1.475.265-3.707-.273-7.49.489-11.131 1.722-8.183 9.705-14.305 10.234-22.65.573-9.082-7.862-16.367-9.265-25.356-.776-5.005.696-10.077.667-15.14z" fill="#4fa795"/><path d="m100.3 60.674c-5.582-12.004-8.383-25.183-6.645-38.403.988-7.514 3.451-15.001 2.77-22.269-5.358-.047-10.765.562-16.015 1.564-6.193 1.181-12.462 2.97-17.451 6.825-4.991 3.854-8.488 10.16-7.505 16.388 1.268 8.013 9.431 15.119 6.74 22.771-1.397 3.975-5.403 6.482-7.234 10.271-3.595 7.447 2.137 14.541 5.776 20.572-8.082 7.373-14.102 15.496-11.042 27.351 2.659 10.31 11.331 18.366 21.252 22.237 9.919 3.871 20.939 4.014 31.492 2.577 6.981-.948 14.01-2.621 19.999-6.331 5.988-3.713 10.848-9.727 11.817-16.705.069-.488.117-.98.151-1.475-2.304-3.148-5.111-6.084-7.769-8.843-10.41-10.811-19.976-22.848-26.336-36.53z" fill="#55a89b"/><path d="m99.06 105.594c-1.75-39.936-3.146-71.941-3.146-71.941l-1.167 49.479-19.395-41.458 17.732 49.894.831 29.362-15.2-28.412 12.913 35.78-2.152 131.485s15.2-1.353 16.398 0c-.148-2.285-3.22-72.103-5.913-133.559l19.931-51.159z" fill="#2b342f"/></svg>